<?xml version="1.0" encoding="utf-8" standalone="no"?>
<!DOCTYPE svg PUBLIC "-//W3C//DTD SVG 1.1//EN"
  "http://www.w3.org/Graphics/SVG/1.1/DTD/svg11.dtd">
<svg xmlns:xlink="http://www.w3.org/1999/xlink" width="460.8pt" height="345.6pt" viewBox="0 0 460.8 345.6" xmlns="http://www.w3.org/2000/svg" version="1.1">
 <metadata>
  <rdf:RDF xmlns:dc="http://purl.org/dc/elements/1.1/" xmlns:cc="http://creativecommons.org/ns#" xmlns:rdf="http://www.w3.org/1999/02/22-rdf-syntax-ns#">
   <cc:Work>
    <dc:type rdf:resource="http://purl.org/dc/dcmitype/StillImage"/>
    <dc:date>2024-11-24T11:18:38.020158</dc:date>
    <dc:format>image/svg+xml</dc:format>
    <dc:creator>
     <cc:Agent>
      <dc:title>Matplotlib v3.6.3, https://matplotlib.org/</dc:title>
     </cc:Agent>
    </dc:creator>
   </cc:Work>
  </rdf:RDF>
 </metadata>
 <defs>
  <style type="text/css">*{stroke-linejoin: round; stroke-linecap: butt}</style>
 </defs>
 <g id="figure_1">
  <g id="patch_1">
   <path d="M 0 345.6 
L 460.8 345.6 
L 460.8 0 
L 0 0 
z
" style="fill: #ffffff"/>
  </g>
  <g id="axes_1">
   <g id="patch_2">
    <path d="M 57.6 307.584 
L 414.72 307.584 
L 414.72 41.472 
L 57.6 41.472 
z
" style="fill: #ffffff"/>
   </g>
   <g id="matplotlib.axis_1">
    <g id="xtick_1">
     <g id="line2d_1">
      <defs>
       <path id="m154bd9f898" d="M 0 0 
L 0 3.5 
" style="stroke: #000000; stroke-width: 0.8"/>
      </defs>
      <g>
       <use xlink:href="#m154bd9f898" x="106.298182" y="307.584" style="stroke: #000000; stroke-width: 0.8"/>
      </g>
     </g>
     <g id="text_1">
      <!-- $\mathdefault{0.5}$ -->
      <g transform="translate(95.63515 327.0373) scale(0.18 -0.18)">
       <defs>
        <path id="CMR17-30" d="M 2688 2038 
C 2688 2430 2682 3099 2413 3613 
C 2176 4063 1798 4224 1466 4224 
C 1158 4224 768 4082 525 3620 
C 269 3137 243 2539 243 2038 
C 243 1671 250 1112 448 623 
C 723 -39 1216 -128 1466 -128 
C 1760 -128 2208 -7 2470 604 
C 2662 1048 2688 1568 2688 2038 
z
M 1466 -26 
C 1056 -26 813 328 723 816 
C 653 1196 653 1749 653 2109 
C 653 2604 653 3015 736 3407 
C 858 3954 1216 4121 1466 4121 
C 1728 4121 2067 3947 2189 3420 
C 2272 3054 2278 2623 2278 2109 
C 2278 1691 2278 1176 2202 797 
C 2067 96 1690 -26 1466 -26 
z
" transform="scale(0.015625)"/>
        <path id="CMMI12-3a" d="M 1178 307 
C 1178 492 1024 620 870 620 
C 685 620 557 467 557 313 
C 557 128 710 0 864 0 
C 1050 0 1178 153 1178 307 
z
" transform="scale(0.015625)"/>
        <path id="CMR17-35" d="M 730 3750 
C 794 3724 1056 3641 1325 3641 
C 1920 3641 2246 3961 2432 4140 
C 2432 4191 2432 4224 2394 4224 
C 2387 4224 2374 4224 2323 4198 
C 2099 4102 1837 4032 1517 4032 
C 1325 4032 1037 4055 723 4191 
C 653 4224 640 4224 634 4224 
C 602 4224 595 4217 595 4090 
L 595 2231 
C 595 2113 595 2080 659 2080 
C 691 2080 704 2093 736 2139 
C 941 2435 1222 2560 1542 2560 
C 1766 2560 2246 2415 2246 1293 
C 2246 1087 2246 716 2054 422 
C 1894 159 1645 25 1370 25 
C 947 25 518 319 403 812 
C 429 806 480 793 506 793 
C 589 793 749 838 749 1036 
C 749 1209 627 1280 506 1280 
C 358 1280 262 1190 262 1011 
C 262 454 704 -128 1382 -128 
C 2042 -128 2669 441 2669 1267 
C 2669 2054 2170 2662 1549 2662 
C 1222 2662 947 2540 730 2304 
L 730 3750 
z
" transform="scale(0.015625)"/>
       </defs>
       <use xlink:href="#CMR17-30" transform="scale(0.996264)"/>
       <use xlink:href="#CMMI12-3a" transform="translate(45.690477 0) scale(0.996264)"/>
       <use xlink:href="#CMR17-35" transform="translate(72.787654 0) scale(0.996264)"/>
      </g>
     </g>
    </g>
    <g id="xtick_2">
     <g id="line2d_2">
      <g>
       <use xlink:href="#m154bd9f898" x="187.461818" y="307.584" style="stroke: #000000; stroke-width: 0.8"/>
      </g>
     </g>
     <g id="text_2">
      <!-- $\mathdefault{1.0}$ -->
      <g transform="translate(176.798786 327.0373) scale(0.18 -0.18)">
       <defs>
        <path id="CMR17-31" d="M 1702 4083 
C 1702 4217 1696 4224 1606 4224 
C 1357 3927 979 3833 621 3820 
C 602 3820 570 3820 563 3808 
C 557 3795 557 3782 557 3648 
C 755 3648 1088 3686 1344 3839 
L 1344 467 
C 1344 243 1331 166 781 166 
L 589 166 
L 589 0 
C 896 6 1216 12 1523 12 
C 1830 12 2150 6 2458 0 
L 2458 166 
L 2266 166 
C 1715 166 1702 236 1702 467 
L 1702 4083 
z
" transform="scale(0.015625)"/>
       </defs>
       <use xlink:href="#CMR17-31" transform="scale(0.996264)"/>
       <use xlink:href="#CMMI12-3a" transform="translate(45.690477 0) scale(0.996264)"/>
       <use xlink:href="#CMR17-30" transform="translate(72.787654 0) scale(0.996264)"/>
      </g>
     </g>
    </g>
    <g id="xtick_3">
     <g id="line2d_3">
      <g>
       <use xlink:href="#m154bd9f898" x="268.625455" y="307.584" style="stroke: #000000; stroke-width: 0.8"/>
      </g>
     </g>
     <g id="text_3">
      <!-- $\mathdefault{1.5}$ -->
      <g transform="translate(257.962423 327.0373) scale(0.18 -0.18)">
       <use xlink:href="#CMR17-31" transform="scale(0.996264)"/>
       <use xlink:href="#CMMI12-3a" transform="translate(45.690477 0) scale(0.996264)"/>
       <use xlink:href="#CMR17-35" transform="translate(72.787654 0) scale(0.996264)"/>
      </g>
     </g>
    </g>
    <g id="xtick_4">
     <g id="line2d_4">
      <g>
       <use xlink:href="#m154bd9f898" x="349.789091" y="307.584" style="stroke: #000000; stroke-width: 0.8"/>
      </g>
     </g>
     <g id="text_4">
      <!-- $\mathdefault{2.0}$ -->
      <g transform="translate(339.126059 327.0373) scale(0.18 -0.18)">
       <defs>
        <path id="CMR17-32" d="M 2669 990 
L 2554 990 
C 2490 537 2438 460 2413 422 
C 2381 371 1920 371 1830 371 
L 602 371 
C 832 620 1280 1073 1824 1596 
C 2214 1966 2669 2400 2669 3033 
C 2669 3788 2067 4224 1395 4224 
C 691 4224 262 3603 262 3027 
C 262 2777 448 2745 525 2745 
C 589 2745 781 2783 781 3007 
C 781 3206 614 3264 525 3264 
C 486 3264 448 3257 422 3244 
C 544 3788 915 4057 1306 4057 
C 1862 4057 2227 3616 2227 3033 
C 2227 2477 1901 1998 1536 1583 
L 262 147 
L 262 0 
L 2515 0 
L 2669 990 
z
" transform="scale(0.015625)"/>
       </defs>
       <use xlink:href="#CMR17-32" transform="scale(0.996264)"/>
       <use xlink:href="#CMMI12-3a" transform="translate(45.690477 0) scale(0.996264)"/>
       <use xlink:href="#CMR17-30" transform="translate(72.787654 0) scale(0.996264)"/>
      </g>
     </g>
    </g>
    <g id="text_5">
     <!-- Time [s] -->
     <g transform="translate(206.96351 347.958784) scale(0.18 -0.18)">
      <defs>
       <path id="CMR17-54" d="M 3981 4332 
L 288 4332 
L 179 2924 
L 294 2924 
C 378 3981 467 4166 1453 4166 
C 1568 4166 1754 4166 1805 4159 
C 1926 4140 1926 4064 1926 3917 
L 1926 465 
C 1926 236 1907 166 1376 166 
L 1197 166 
L 1197 0 
C 1504 6 1824 12 2138 12 
C 2451 12 2771 6 3078 0 
L 3078 166 
L 2899 166 
C 2368 166 2349 236 2349 465 
L 2349 3917 
C 2349 4057 2349 4134 2464 4159 
C 2515 4166 2701 4166 2816 4166 
C 3795 4166 3891 3981 3974 2924 
L 4090 2924 
L 3981 4332 
z
" transform="scale(0.015625)"/>
       <path id="CMR17-69" d="M 992 3961 
C 992 4102 877 4224 730 4224 
C 589 4224 467 4108 467 3961 
C 467 3820 582 3699 730 3699 
C 870 3699 992 3814 992 3961 
z
M 243 2745 
L 243 2579 
C 602 2579 653 2540 653 2231 
L 653 443 
C 653 198 627 166 218 166 
L 218 0 
C 371 12 646 12 806 12 
C 960 12 1222 12 1370 0 
L 1370 166 
C 992 166 979 205 979 436 
L 979 2816 
L 243 2745 
z
" transform="scale(0.015625)"/>
       <path id="CMR17-6d" d="M 4326 1954 
C 4326 2276 4269 2816 3507 2816 
C 3072 2816 2771 2520 2656 2173 
L 2650 2173 
C 2573 2700 2195 2816 1837 2816 
C 1331 2816 1069 2424 973 2166 
L 966 2166 
L 966 2816 
L 211 2745 
L 211 2578 
C 589 2578 646 2540 646 2231 
L 646 443 
C 646 198 621 166 211 166 
L 211 0 
C 365 12 646 12 813 12 
C 979 12 1267 12 1421 0 
L 1421 166 
C 1011 166 986 192 986 443 
L 986 1678 
C 986 2269 1344 2713 1792 2713 
C 2266 2713 2317 2289 2317 1980 
L 2317 443 
C 2317 198 2291 166 1882 166 
L 1882 0 
C 2035 12 2317 12 2483 12 
C 2650 12 2938 12 3091 0 
L 3091 166 
C 2682 166 2656 192 2656 443 
L 2656 1678 
C 2656 2269 3014 2713 3462 2713 
C 3936 2713 3987 2289 3987 1980 
L 3987 443 
C 3987 198 3962 166 3552 166 
L 3552 0 
C 3706 12 3987 12 4154 12 
C 4320 12 4608 12 4762 0 
L 4762 166 
C 4352 166 4326 192 4326 443 
L 4326 1954 
z
" transform="scale(0.015625)"/>
       <path id="CMR17-65" d="M 2438 1503 
C 2464 1529 2464 1542 2464 1606 
C 2464 2251 2118 2816 1389 2816 
C 710 2816 173 2175 173 1394 
C 173 554 781 -64 1459 -64 
C 2176 -64 2458 619 2458 755 
C 2458 800 2419 800 2406 800 
C 2362 800 2355 787 2330 709 
C 2189 270 1837 51 1504 51 
C 1229 51 954 206 781 490 
C 582 819 582 1200 582 1503 
L 2438 1503 
z
M 589 1600 
C 634 2511 1126 2713 1382 2713 
C 1818 2713 2112 2308 2118 1600 
L 589 1600 
z
" transform="scale(0.015625)"/>
       <path id="CMR17-5b" d="M 1504 -1600 
L 1504 -1376 
L 902 -1376 
L 902 4575 
L 1504 4575 
L 1504 4800 
L 678 4800 
L 678 -1600 
L 1504 -1600 
z
" transform="scale(0.015625)"/>
       <path id="CMR17-73" d="M 1978 2688 
C 1978 2803 1971 2809 1933 2809 
C 1907 2809 1901 2803 1824 2707 
C 1805 2681 1747 2617 1728 2592 
C 1523 2809 1235 2816 1126 2816 
C 416 2816 160 2444 160 2073 
C 160 1497 813 1363 998 1324 
C 1402 1241 1542 1216 1677 1100 
C 1760 1024 1901 883 1901 652 
C 1901 384 1747 38 1158 38 
C 602 38 403 460 288 1024 
C 269 1113 269 1120 218 1120 
C 166 1120 160 1113 160 985 
L 160 64 
C 160 -52 166 -58 205 -58 
C 237 -58 243 -52 275 0 
C 314 57 410 211 448 275 
C 576 102 800 -64 1158 -64 
C 1792 -64 2131 281 2131 780 
C 2131 1107 1958 1280 1875 1356 
C 1683 1555 1459 1600 1190 1651 
C 838 1728 390 1817 390 2208 
C 390 2374 480 2726 1126 2726 
C 1811 2726 1850 2086 1862 1881 
C 1869 1849 1901 1843 1920 1843 
C 1978 1843 1978 1862 1978 1971 
L 1978 2688 
z
" transform="scale(0.015625)"/>
       <path id="CMR17-5d" d="M 915 4800 
L 90 4800 
L 90 4575 
L 691 4575 
L 691 -1376 
L 90 -1376 
L 90 -1600 
L 915 -1600 
L 915 4800 
z
" transform="scale(0.015625)"/>
      </defs>
      <use xlink:href="#CMR17-54" transform="scale(0.996264)"/>
      <use xlink:href="#CMR17-69" transform="translate(66.509881 0) scale(0.996264)"/>
      <use xlink:href="#CMR17-6d" transform="translate(91.380939 0) scale(0.996264)"/>
      <use xlink:href="#CMR17-65" transform="translate(168.300529 0) scale(0.996264)"/>
      <use xlink:href="#CMR17-5b" transform="translate(238.862156 0) scale(0.996264)"/>
      <use xlink:href="#CMR17-73" transform="translate(263.733214 0) scale(0.996264)"/>
      <use xlink:href="#CMR17-5d" transform="translate(299.534552 0) scale(0.996264)"/>
     </g>
    </g>
    <g id="text_6">
     <!-- $\times\mathdefault{10^{−2}}\mathdefault{}$ -->
     <g transform="translate(368.414702 346.12898) scale(0.18 -0.18)">
      <defs>
       <path id="CMSY10-2" d="M 2490 1775 
L 1210 3046 
C 1133 3123 1120 3136 1069 3136 
C 1005 3136 941 3078 941 3008 
C 941 2963 954 2950 1024 2880 
L 2304 1596 
L 1024 313 
C 954 243 941 230 941 185 
C 941 115 1005 57 1069 57 
C 1120 57 1133 70 1210 147 
L 2483 1418 
L 3808 95 
C 3821 89 3866 57 3904 57 
C 3981 57 4032 115 4032 185 
C 4032 198 4032 223 4013 255 
C 4006 268 2989 1271 2669 1596 
L 3840 2765 
C 3872 2803 3968 2886 4000 2925 
C 4006 2937 4032 2963 4032 3008 
C 4032 3078 3981 3136 3904 3136 
C 3853 3136 3827 3110 3757 3040 
L 2490 1775 
z
" transform="scale(0.015625)"/>
       <path id="CMSY10-0" d="M 4218 1472 
C 4326 1472 4442 1472 4442 1600 
C 4442 1728 4326 1728 4218 1728 
L 755 1728 
C 646 1728 531 1728 531 1600 
C 531 1472 646 1472 755 1472 
L 4218 1472 
z
" transform="scale(0.015625)"/>
      </defs>
      <use xlink:href="#CMSY10-2" transform="scale(0.996264)"/>
      <use xlink:href="#CMR17-31" transform="translate(77.487468 0) scale(0.996264)"/>
      <use xlink:href="#CMR17-30" transform="translate(123.177945 0) scale(0.996264)"/>
      <use xlink:href="#CMSY10-0" transform="translate(168.868422 36.153639) scale(0.697382)"/>
      <use xlink:href="#CMR17-32" transform="translate(223.109415 36.153639) scale(0.697382)"/>
     </g>
    </g>
   </g>
   <g id="matplotlib.axis_2">
    <g id="ytick_1">
     <g id="line2d_5">
      <defs>
       <path id="md1e6805305" d="M 0 0 
L -3.5 0 
" style="stroke: #000000; stroke-width: 0.8"/>
      </defs>
      <g>
       <use xlink:href="#md1e6805305" x="57.6" y="280.986614" style="stroke: #000000; stroke-width: 0.8"/>
      </g>
     </g>
     <g id="text_7">
      <!-- $\mathdefault{−2}$ -->
      <g transform="translate(28.427972 287.213264) scale(0.18 -0.18)">
       <use xlink:href="#CMSY10-0" transform="scale(0.996264)"/>
       <use xlink:href="#CMR17-32" transform="translate(77.487468 0) scale(0.996264)"/>
      </g>
     </g>
    </g>
    <g id="ytick_2">
     <g id="line2d_6">
      <g>
       <use xlink:href="#md1e6805305" x="57.6" y="241.996269" style="stroke: #000000; stroke-width: 0.8"/>
      </g>
     </g>
     <g id="text_8">
      <!-- $\mathdefault{0}$ -->
      <g transform="translate(42.375714 248.222919) scale(0.18 -0.18)">
       <use xlink:href="#CMR17-30" transform="scale(0.996264)"/>
      </g>
     </g>
    </g>
    <g id="ytick_3">
     <g id="line2d_7">
      <g>
       <use xlink:href="#md1e6805305" x="57.6" y="203.005924" style="stroke: #000000; stroke-width: 0.8"/>
      </g>
     </g>
     <g id="text_9">
      <!-- $\mathdefault{2}$ -->
      <g transform="translate(42.375714 209.232574) scale(0.18 -0.18)">
       <use xlink:href="#CMR17-32" transform="scale(0.996264)"/>
      </g>
     </g>
    </g>
    <g id="ytick_4">
     <g id="line2d_8">
      <g>
       <use xlink:href="#md1e6805305" x="57.6" y="164.01558" style="stroke: #000000; stroke-width: 0.8"/>
      </g>
     </g>
     <g id="text_10">
      <!-- $\mathdefault{4}$ -->
      <g transform="translate(42.375714 170.24223) scale(0.18 -0.18)">
       <defs>
        <path id="CMR17-34" d="M 2150 4147 
C 2150 4281 2144 4288 2029 4288 
L 128 1254 
L 128 1088 
L 1779 1088 
L 1779 460 
C 1779 230 1766 166 1318 166 
L 1197 166 
L 1197 0 
C 1402 12 1747 12 1965 12 
C 2182 12 2528 12 2733 0 
L 2733 166 
L 2611 166 
C 2163 166 2150 230 2150 460 
L 2150 1088 
L 2803 1088 
L 2803 1254 
L 2150 1254 
L 2150 4147 
z
M 1798 3723 
L 1798 1254 
L 256 1254 
L 1798 3723 
z
" transform="scale(0.015625)"/>
       </defs>
       <use xlink:href="#CMR17-34" transform="scale(0.996264)"/>
      </g>
     </g>
    </g>
    <g id="ytick_5">
     <g id="line2d_9">
      <g>
       <use xlink:href="#md1e6805305" x="57.6" y="125.025235" style="stroke: #000000; stroke-width: 0.8"/>
      </g>
     </g>
     <g id="text_11">
      <!-- $\mathdefault{6}$ -->
      <g transform="translate(42.375714 131.251885) scale(0.18 -0.18)">
       <defs>
        <path id="CMR17-36" d="M 678 2198 
C 678 3712 1395 4076 1811 4076 
C 1946 4076 2272 4049 2400 3782 
C 2298 3782 2106 3782 2106 3558 
C 2106 3385 2246 3328 2336 3328 
C 2394 3328 2566 3353 2566 3571 
C 2566 3987 2246 4224 1805 4224 
C 1043 4224 243 3411 243 2011 
C 243 257 966 -128 1478 -128 
C 2099 -128 2688 431 2688 1295 
C 2688 2101 2170 2688 1517 2688 
C 1126 2688 838 2430 678 1979 
L 678 2198 
z
M 1478 25 
C 691 25 691 1212 691 1450 
C 691 1914 909 2585 1504 2585 
C 1613 2585 1926 2585 2138 2140 
C 2253 1889 2253 1624 2253 1302 
C 2253 954 2253 696 2118 438 
C 1978 173 1773 25 1478 25 
z
" transform="scale(0.015625)"/>
       </defs>
       <use xlink:href="#CMR17-36" transform="scale(0.996264)"/>
      </g>
     </g>
    </g>
    <g id="ytick_6">
     <g id="line2d_10">
      <g>
       <use xlink:href="#md1e6805305" x="57.6" y="86.03489" style="stroke: #000000; stroke-width: 0.8"/>
      </g>
     </g>
     <g id="text_12">
      <!-- $\mathdefault{8}$ -->
      <g transform="translate(42.375714 92.26154) scale(0.18 -0.18)">
       <defs>
        <path id="CMR17-38" d="M 1741 2289 
C 2144 2494 2554 2803 2554 3298 
C 2554 3884 1990 4224 1472 4224 
C 890 4224 378 3800 378 3215 
C 378 3054 416 2777 666 2533 
C 730 2469 998 2276 1171 2154 
C 883 2006 211 1652 211 945 
C 211 282 838 -128 1459 -128 
C 2144 -128 2720 366 2720 1022 
C 2720 1607 2330 1877 2074 2051 
L 1741 2289 
z
M 902 2855 
C 851 2887 595 3086 595 3388 
C 595 3781 998 4076 1459 4076 
C 1965 4076 2336 3716 2336 3298 
C 2336 2700 1670 2359 1638 2359 
C 1632 2359 1626 2359 1574 2398 
L 902 2855 
z
M 2080 1536 
C 2176 1466 2483 1253 2483 861 
C 2483 385 2010 25 1472 25 
C 890 25 448 443 448 951 
C 448 1459 838 1884 1280 2083 
L 2080 1536 
z
" transform="scale(0.015625)"/>
       </defs>
       <use xlink:href="#CMR17-38" transform="scale(0.996264)"/>
      </g>
     </g>
    </g>
    <g id="ytick_7">
     <g id="line2d_11">
      <g>
       <use xlink:href="#md1e6805305" x="57.6" y="47.044546" style="stroke: #000000; stroke-width: 0.8"/>
      </g>
     </g>
     <g id="text_13">
      <!-- $\mathdefault{10}$ -->
      <g transform="translate(34.151428 53.271196) scale(0.18 -0.18)">
       <use xlink:href="#CMR17-31" transform="scale(0.996264)"/>
       <use xlink:href="#CMR17-30" transform="translate(45.690477 0) scale(0.996264)"/>
      </g>
     </g>
    </g>
    <g id="text_14">
     <!-- Frequency fluctuation [kHz] -->
     <g transform="translate(19.959788 273.956633) rotate(-90) scale(0.18 -0.18)">
      <defs>
       <path id="CMR17-46" d="M 3482 4339 
L 326 4339 
L 326 4172 
C 768 4172 838 4172 838 3883 
L 838 450 
C 838 166 768 166 326 166 
L 326 0 
C 512 12 870 12 1069 12 
C 1331 12 1638 12 1901 0 
L 1901 166 
L 1760 166 
C 1274 166 1261 229 1261 456 
L 1261 2073 
L 1837 2073 
C 2432 2073 2490 1865 2490 1334 
L 2605 1334 
L 2605 2991 
L 2490 2991 
C 2490 2451 2432 2240 1837 2240 
L 1261 2240 
L 1261 3922 
C 1261 4140 1274 4172 1530 4172 
L 2355 4172 
C 3322 4172 3430 3774 3520 2920 
L 3635 2920 
L 3482 4339 
z
" transform="scale(0.015625)"/>
       <path id="CMR17-72" d="M 960 1517 
C 960 2134 1222 2713 1702 2713 
C 1747 2713 1792 2707 1837 2687 
C 1837 2687 1696 2642 1696 2475 
C 1696 2321 1818 2257 1914 2257 
C 1990 2257 2131 2302 2131 2482 
C 2131 2687 1926 2816 1709 2816 
C 1222 2816 1011 2340 947 2115 
L 941 2115 
L 941 2816 
L 198 2745 
L 198 2578 
C 576 2578 634 2540 634 2231 
L 634 443 
C 634 198 608 166 198 166 
L 198 0 
C 352 12 646 12 813 12 
C 998 12 1325 12 1498 0 
L 1498 166 
C 1037 166 960 166 960 455 
L 960 1517 
z
" transform="scale(0.015625)"/>
       <path id="CMR17-71" d="M 2630 2816 
L 2528 2816 
L 2336 2177 
C 2189 2519 1920 2816 1491 2816 
C 838 2816 211 2228 211 1376 
C 211 529 800 -64 1440 -64 
C 1933 -64 2208 316 2291 458 
L 2291 -834 
C 2291 -1081 2266 -1114 1856 -1114 
L 1856 -1280 
C 2010 -1268 2291 -1268 2458 -1268 
C 2624 -1268 2912 -1268 3066 -1280 
L 3066 -1114 
C 2656 -1114 2630 -1088 2630 -834 
L 2630 2816 
z
M 2304 871 
C 2304 594 2074 335 2054 316 
C 1856 90 1626 38 1472 38 
C 992 38 621 652 621 1369 
C 621 2125 1043 2700 1536 2700 
C 2048 2700 2304 2112 2304 1776 
L 2304 871 
z
" transform="scale(0.015625)"/>
       <path id="CMR17-75" d="M 1882 2745 
L 1882 2579 
C 2259 2579 2317 2540 2317 2229 
L 2317 1053 
C 2317 510 2029 38 1555 38 
C 1030 38 986 355 986 691 
L 986 2816 
L 211 2745 
L 211 2579 
C 467 2579 640 2579 646 2320 
L 646 1079 
C 646 646 646 368 813 187 
C 896 103 1056 -64 1517 -64 
C 2061 -64 2272 400 2323 536 
L 2330 536 
L 2330 -64 
L 3091 -13 
L 3091 154 
C 2714 154 2656 193 2656 503 
L 2656 2816 
L 1882 2745 
z
" transform="scale(0.015625)"/>
       <path id="CMR17-6e" d="M 2656 1954 
C 2656 2282 2592 2816 1837 2816 
C 1331 2816 1069 2424 973 2166 
L 966 2166 
L 966 2816 
L 211 2745 
L 211 2578 
C 589 2578 646 2540 646 2231 
L 646 443 
C 646 198 621 166 211 166 
L 211 0 
C 365 12 646 12 813 12 
C 979 12 1267 12 1421 0 
L 1421 166 
C 1011 166 986 192 986 443 
L 986 1678 
C 986 2269 1344 2713 1792 2713 
C 2266 2713 2317 2289 2317 1980 
L 2317 443 
C 2317 198 2291 166 1882 166 
L 1882 0 
C 2035 12 2317 12 2483 12 
C 2650 12 2938 12 3091 0 
L 3091 166 
C 2682 166 2656 192 2656 443 
L 2656 1954 
z
" transform="scale(0.015625)"/>
       <path id="CMR17-63" d="M 2234 2240 
C 2112 2240 1933 2240 1933 2015 
C 1933 1836 2080 1785 2163 1785 
C 2208 1785 2394 1804 2394 2028 
C 2394 2476 1958 2816 1466 2816 
C 787 2816 211 2201 211 1379 
C 211 521 813 -64 1466 -64 
C 2259 -64 2458 676 2458 747 
C 2458 773 2451 792 2406 792 
C 2362 792 2355 786 2330 702 
C 2163 180 1798 51 1523 51 
C 1114 51 621 431 621 1385 
C 621 2358 1094 2700 1472 2700 
C 1722 2700 2093 2582 2234 2240 
z
" transform="scale(0.015625)"/>
       <path id="CMR17-79" d="M 2496 2183 
C 2656 2579 2944 2585 3034 2585 
L 3034 2752 
C 2912 2745 2752 2739 2630 2739 
C 2496 2739 2285 2739 2157 2752 
L 2157 2585 
C 2400 2566 2406 2384 2406 2332 
C 2406 2268 2394 2235 2362 2158 
L 1664 409 
L 902 2300 
C 870 2378 870 2423 870 2430 
C 870 2572 1018 2585 1171 2585 
L 1171 2752 
C 1018 2739 742 2739 582 2739 
C 410 2739 205 2739 64 2752 
L 64 2585 
C 410 2585 448 2553 531 2345 
L 1485 -31 
C 1197 -795 1030 -1242 627 -1242 
C 557 -1242 397 -1223 282 -1106 
C 429 -1093 493 -1002 493 -892 
C 493 -782 416 -685 288 -685 
C 147 -685 77 -782 77 -899 
C 77 -1158 339 -1344 627 -1344 
C 998 -1344 1229 -983 1357 -659 
L 2496 2183 
z
" transform="scale(0.015625)"/>
       <path id="CMR17-d" d="M 2554 4428 
C 2483 4415 2426 4403 2342 4383 
C 2157 4480 1914 4480 1850 4480 
C 1306 4480 634 4174 634 3494 
L 634 2752 
L 122 2752 
L 122 2585 
L 634 2585 
L 634 441 
C 634 198 608 166 198 166 
L 198 0 
C 352 12 634 12 794 12 
C 960 12 1242 12 1395 0 
L 1395 166 
C 986 166 960 192 960 441 
L 960 2585 
L 2227 2585 
L 2227 441 
C 2227 198 2202 166 1792 166 
L 1792 0 
C 1946 12 2227 12 2387 12 
C 2554 12 2835 12 2989 0 
L 2989 166 
C 2579 166 2554 192 2554 441 
L 2554 4428 
z
M 947 2752 
L 947 3494 
C 947 4053 1370 4377 1837 4377 
C 1869 4377 2221 4364 2221 4301 
C 2221 4294 2214 4288 2182 4256 
C 2125 4218 2099 4155 2099 4091 
C 2099 4002 2144 3926 2227 3894 
L 2227 2752 
L 947 2752 
z
" transform="scale(0.015625)"/>
       <path id="CMR17-74" d="M 966 2585 
L 1862 2585 
L 1862 2752 
L 966 2752 
L 966 3968 
L 851 3968 
C 838 3292 614 2700 70 2687 
L 70 2585 
L 627 2585 
L 627 778 
C 627 655 627 -64 1370 -64 
C 1747 -64 1965 308 1965 784 
L 1965 1151 
L 1850 1151 
L 1850 790 
C 1850 347 1677 51 1408 51 
C 1222 51 966 179 966 765 
L 966 2585 
z
" transform="scale(0.015625)"/>
       <path id="CMR17-61" d="M 2304 1656 
C 2304 2048 2304 2275 2035 2534 
C 1798 2751 1523 2816 1306 2816 
C 800 2816 435 2408 435 1977 
C 435 1740 627 1728 666 1728 
C 749 1728 896 1779 896 1958 
C 896 2118 774 2188 666 2188 
C 640 2188 608 2182 589 2176 
C 723 2594 1069 2713 1293 2713 
C 1613 2713 1965 2421 1965 1875 
L 1965 1632 
C 1587 1619 1133 1568 774 1373 
C 371 1147 256 822 256 576 
C 256 77 832 -64 1171 -64 
C 1523 -64 1850 135 1990 505 
C 2003 219 2182 -39 2464 -39 
C 2598 -39 2938 51 2938 563 
L 2938 926 
L 2822 926 
L 2822 557 
C 2822 161 2650 109 2566 109 
C 2304 109 2304 446 2304 732 
L 2304 1656 
z
M 1965 887 
C 1965 323 1568 38 1216 38 
C 896 38 646 278 646 576 
C 646 771 730 1114 1101 1322 
C 1408 1497 1760 1523 1965 1536 
L 1965 887 
z
" transform="scale(0.015625)"/>
       <path id="CMR17-6f" d="M 2758 1356 
C 2758 2176 2163 2816 1466 2816 
C 768 2816 173 2176 173 1356 
C 173 550 768 -64 1466 -64 
C 2163 -64 2758 550 2758 1356 
z
M 1466 51 
C 1165 51 909 230 762 480 
C 602 768 582 1126 582 1408 
C 582 1676 595 2009 762 2297 
C 890 2508 1139 2713 1466 2713 
C 1754 2713 1997 2553 2150 2329 
C 2349 2028 2349 1606 2349 1408 
C 2349 1158 2336 774 2163 467 
C 1984 172 1709 51 1466 51 
z
" transform="scale(0.015625)"/>
       <path id="CMR17-6b" d="M 1670 1679 
C 1664 1692 1632 1730 1632 1749 
C 1632 1762 2086 2175 2144 2226 
C 2509 2532 2739 2563 2906 2570 
L 2906 2735 
C 2867 2735 2854 2735 2848 2729 
L 2534 2722 
C 2355 2722 2080 2722 1907 2735 
L 1907 2570 
C 1997 2563 2061 2513 2061 2423 
C 2061 2296 1933 2175 1926 2175 
L 960 1298 
L 960 4416 
L 198 4345 
L 198 4179 
C 576 4179 634 4141 634 3835 
L 634 439 
C 634 198 608 166 198 166 
L 198 0 
C 352 12 634 12 794 12 
C 954 12 1235 12 1389 0 
L 1389 166 
C 979 166 954 191 954 439 
L 954 1139 
L 1395 1540 
L 2042 586 
C 2118 471 2182 382 2182 299 
C 2182 185 2067 166 1990 166 
L 1990 0 
C 2144 12 2419 12 2579 12 
C 2694 12 2931 6 3040 0 
L 3040 166 
C 2739 166 2669 223 2477 503 
L 1670 1679 
z
" transform="scale(0.015625)"/>
       <path id="CMR17-48" d="M 3590 3898 
C 3590 4185 3661 4185 4102 4185 
L 4102 4352 
C 3917 4339 3578 4339 3379 4339 
C 3181 4339 2842 4339 2656 4352 
L 2656 4185 
C 3098 4185 3168 4185 3168 3898 
L 3168 2342 
L 1261 2342 
L 1261 3898 
C 1261 4185 1331 4185 1773 4185 
L 1773 4352 
C 1587 4339 1248 4339 1050 4339 
C 851 4339 512 4339 326 4352 
L 326 4185 
C 768 4185 838 4185 838 3898 
L 838 452 
C 838 166 768 166 326 166 
L 326 0 
C 512 12 851 12 1050 12 
C 1248 12 1587 12 1773 0 
L 1773 166 
C 1331 166 1261 166 1261 452 
L 1261 2176 
L 3168 2176 
L 3168 452 
C 3168 166 3098 166 2656 166 
L 2656 0 
C 2842 12 3181 12 3379 12 
C 3578 12 3917 12 4102 0 
L 4102 166 
C 3661 166 3590 166 3590 452 
L 3590 3898 
z
" transform="scale(0.015625)"/>
       <path id="CMR17-7a" d="M 2310 2604 
C 2362 2668 2362 2681 2362 2694 
C 2362 2752 2336 2752 2221 2752 
L 275 2752 
L 211 1760 
L 326 1760 
C 371 2380 442 2649 1178 2649 
L 1958 2649 
L 128 96 
C 128 6 134 0 269 0 
L 2291 0 
L 2381 1152 
L 2266 1152 
C 2214 441 2131 115 1350 115 
L 531 115 
L 2310 2604 
z
" transform="scale(0.015625)"/>
      </defs>
      <use xlink:href="#CMR17-46" transform="scale(0.996264)"/>
      <use xlink:href="#CMR17-72" transform="translate(52.176591 0) scale(0.996264)"/>
      <use xlink:href="#CMR17-65" transform="translate(87.457359 0) scale(0.996264)"/>
      <use xlink:href="#CMR17-71" transform="translate(127.943019 0) scale(0.996264)"/>
      <use xlink:href="#CMR17-75" transform="translate(176.235935 0) scale(0.996264)"/>
      <use xlink:href="#CMR17-65" transform="translate(227.131305 0) scale(0.996264)"/>
      <use xlink:href="#CMR17-6e" transform="translate(267.616966 0) scale(0.996264)"/>
      <use xlink:href="#CMR17-63" transform="translate(318.512335 0) scale(0.996264)"/>
      <use xlink:href="#CMR17-79" transform="translate(358.997996 0) scale(0.996264)"/>
      <use xlink:href="#CMR17-d" transform="translate(437.366878 0) scale(0.996264)"/>
      <use xlink:href="#CMR17-75" transform="translate(487.109101 0) scale(0.996264)"/>
      <use xlink:href="#CMR17-63" transform="translate(538.004471 0) scale(0.996264)"/>
      <use xlink:href="#CMR17-74" transform="translate(578.490132 0) scale(0.996264)"/>
      <use xlink:href="#CMR17-75" transform="translate(613.770899 0) scale(0.996264)"/>
      <use xlink:href="#CMR17-61" transform="translate(664.666269 0) scale(0.996264)"/>
      <use xlink:href="#CMR17-74" transform="translate(710.356746 0) scale(0.996264)"/>
      <use xlink:href="#CMR17-69" transform="translate(745.637514 0) scale(0.996264)"/>
      <use xlink:href="#CMR17-6f" transform="translate(770.508573 0) scale(0.996264)"/>
      <use xlink:href="#CMR17-6e" transform="translate(816.19905 0) scale(0.996264)"/>
      <use xlink:href="#CMR17-5b" transform="translate(897.170386 0) scale(0.996264)"/>
      <use xlink:href="#CMR17-6b" transform="translate(922.041444 0) scale(0.996264)"/>
      <use xlink:href="#CMR17-48" transform="translate(970.33436 0) scale(0.996264)"/>
      <use xlink:href="#CMR17-7a" transform="translate(1039.40679 0) scale(0.996264)"/>
      <use xlink:href="#CMR17-5d" transform="translate(1079.89245 0) scale(0.996264)"/>
     </g>
    </g>
   </g>
   <g id="LineCollection_1">
    <path d="M 73.832727 243.945786 
L 73.832727 240.046752 
" clip-path="url(#p5fd5dd5504)" style="fill: none; stroke: #ffb400; stroke-width: 1.5"/>
    <path d="M 106.298182 216.652545 
L 106.298182 212.753511 
" clip-path="url(#p5fd5dd5504)" style="fill: none; stroke: #ffb400; stroke-width: 1.5"/>
    <path d="M 138.763636 146.469925 
L 138.763636 142.57089 
" clip-path="url(#p5fd5dd5504)" style="fill: none; stroke: #ffb400; stroke-width: 1.5"/>
    <path d="M 171.229091 64.590201 
L 171.229091 60.691166 
" clip-path="url(#p5fd5dd5504)" style="fill: none; stroke: #ffb400; stroke-width: 1.5"/>
    <path d="M 203.694545 76.287304 
L 203.694545 72.38827 
" clip-path="url(#p5fd5dd5504)" style="fill: none; stroke: #ffb400; stroke-width: 1.5"/>
    <path d="M 236.16 119.176683 
L 236.16 115.277649 
" clip-path="url(#p5fd5dd5504)" style="fill: none; stroke: #ffb400; stroke-width: 1.5"/>
    <path d="M 268.625455 126.974752 
L 268.625455 123.075718 
" clip-path="url(#p5fd5dd5504)" style="fill: none; stroke: #ffb400; stroke-width: 1.5"/>
    <path d="M 301.090909 208.854476 
L 301.090909 204.955442 
" clip-path="url(#p5fd5dd5504)" style="fill: none; stroke: #ffb400; stroke-width: 1.5"/>
    <path d="M 333.556364 286.835166 
L 333.556364 282.936131 
" clip-path="url(#p5fd5dd5504)" style="fill: none; stroke: #ffb400; stroke-width: 1.5"/>
    <path d="M 366.021818 286.835166 
L 366.021818 282.936131 
" clip-path="url(#p5fd5dd5504)" style="fill: none; stroke: #ffb400; stroke-width: 1.5"/>
    <path d="M 398.487273 255.64289 
L 398.487273 251.743855 
" clip-path="url(#p5fd5dd5504)" style="fill: none; stroke: #ffb400; stroke-width: 1.5"/>
   </g>
   <g id="line2d_12">
    <defs>
     <path id="mc4884e8606" d="M 5 0 
L -5 -0 
" style="stroke: #ffb400"/>
    </defs>
    <g clip-path="url(#p5fd5dd5504)">
     <use xlink:href="#mc4884e8606" x="73.832727" y="243.945786" style="fill: #ffb400; stroke: #ffb400"/>
     <use xlink:href="#mc4884e8606" x="106.298182" y="216.652545" style="fill: #ffb400; stroke: #ffb400"/>
     <use xlink:href="#mc4884e8606" x="138.763636" y="146.469925" style="fill: #ffb400; stroke: #ffb400"/>
     <use xlink:href="#mc4884e8606" x="171.229091" y="64.590201" style="fill: #ffb400; stroke: #ffb400"/>
     <use xlink:href="#mc4884e8606" x="203.694545" y="76.287304" style="fill: #ffb400; stroke: #ffb400"/>
     <use xlink:href="#mc4884e8606" x="236.16" y="119.176683" style="fill: #ffb400; stroke: #ffb400"/>
     <use xlink:href="#mc4884e8606" x="268.625455" y="126.974752" style="fill: #ffb400; stroke: #ffb400"/>
     <use xlink:href="#mc4884e8606" x="301.090909" y="208.854476" style="fill: #ffb400; stroke: #ffb400"/>
     <use xlink:href="#mc4884e8606" x="333.556364" y="286.835166" style="fill: #ffb400; stroke: #ffb400"/>
     <use xlink:href="#mc4884e8606" x="366.021818" y="286.835166" style="fill: #ffb400; stroke: #ffb400"/>
     <use xlink:href="#mc4884e8606" x="398.487273" y="255.64289" style="fill: #ffb400; stroke: #ffb400"/>
    </g>
   </g>
   <g id="line2d_13">
    <g clip-path="url(#p5fd5dd5504)">
     <use xlink:href="#mc4884e8606" x="73.832727" y="240.046752" style="fill: #ffb400; stroke: #ffb400"/>
     <use xlink:href="#mc4884e8606" x="106.298182" y="212.753511" style="fill: #ffb400; stroke: #ffb400"/>
     <use xlink:href="#mc4884e8606" x="138.763636" y="142.57089" style="fill: #ffb400; stroke: #ffb400"/>
     <use xlink:href="#mc4884e8606" x="171.229091" y="60.691166" style="fill: #ffb400; stroke: #ffb400"/>
     <use xlink:href="#mc4884e8606" x="203.694545" y="72.38827" style="fill: #ffb400; stroke: #ffb400"/>
     <use xlink:href="#mc4884e8606" x="236.16" y="115.277649" style="fill: #ffb400; stroke: #ffb400"/>
     <use xlink:href="#mc4884e8606" x="268.625455" y="123.075718" style="fill: #ffb400; stroke: #ffb400"/>
     <use xlink:href="#mc4884e8606" x="301.090909" y="204.955442" style="fill: #ffb400; stroke: #ffb400"/>
     <use xlink:href="#mc4884e8606" x="333.556364" y="282.936131" style="fill: #ffb400; stroke: #ffb400"/>
     <use xlink:href="#mc4884e8606" x="366.021818" y="282.936131" style="fill: #ffb400; stroke: #ffb400"/>
     <use xlink:href="#mc4884e8606" x="398.487273" y="251.743855" style="fill: #ffb400; stroke: #ffb400"/>
    </g>
   </g>
   <g id="LineCollection_2">
    <path d="M 90.065455 255.64289 
L 90.065455 251.743855 
" clip-path="url(#p5fd5dd5504)" style="fill: none; stroke: #d2980d; stroke-width: 1.5"/>
    <path d="M 122.530909 208.854476 
L 122.530909 204.955442 
" clip-path="url(#p5fd5dd5504)" style="fill: none; stroke: #d2980d; stroke-width: 1.5"/>
    <path d="M 154.996364 115.277649 
L 154.996364 111.378614 
" clip-path="url(#p5fd5dd5504)" style="fill: none; stroke: #d2980d; stroke-width: 1.5"/>
    <path d="M 187.461818 72.38827 
L 187.461818 68.489235 
" clip-path="url(#p5fd5dd5504)" style="fill: none; stroke: #d2980d; stroke-width: 1.5"/>
    <path d="M 219.927273 111.378614 
L 219.927273 107.47958 
" clip-path="url(#p5fd5dd5504)" style="fill: none; stroke: #d2980d; stroke-width: 1.5"/>
    <path d="M 252.392727 146.469925 
L 252.392727 142.57089 
" clip-path="url(#p5fd5dd5504)" style="fill: none; stroke: #d2980d; stroke-width: 1.5"/>
    <path d="M 284.858182 165.965097 
L 284.858182 162.066062 
" clip-path="url(#p5fd5dd5504)" style="fill: none; stroke: #d2980d; stroke-width: 1.5"/>
    <path d="M 317.323636 267.339993 
L 317.323636 263.440959 
" clip-path="url(#p5fd5dd5504)" style="fill: none; stroke: #d2980d; stroke-width: 1.5"/>
    <path d="M 349.789091 294.633234 
L 349.789091 290.7342 
" clip-path="url(#p5fd5dd5504)" style="fill: none; stroke: #d2980d; stroke-width: 1.5"/>
    <path d="M 382.254545 271.239028 
L 382.254545 267.339993 
" clip-path="url(#p5fd5dd5504)" style="fill: none; stroke: #d2980d; stroke-width: 1.5"/>
   </g>
   <g id="line2d_14">
    <defs>
     <path id="meb780f6744" d="M 5 0 
L -5 -0 
" style="stroke: #d2980d"/>
    </defs>
    <g clip-path="url(#p5fd5dd5504)">
     <use xlink:href="#meb780f6744" x="90.065455" y="255.64289" style="fill: #d2980d; stroke: #d2980d"/>
     <use xlink:href="#meb780f6744" x="122.530909" y="208.854476" style="fill: #d2980d; stroke: #d2980d"/>
     <use xlink:href="#meb780f6744" x="154.996364" y="115.277649" style="fill: #d2980d; stroke: #d2980d"/>
     <use xlink:href="#meb780f6744" x="187.461818" y="72.38827" style="fill: #d2980d; stroke: #d2980d"/>
     <use xlink:href="#meb780f6744" x="219.927273" y="111.378614" style="fill: #d2980d; stroke: #d2980d"/>
     <use xlink:href="#meb780f6744" x="252.392727" y="146.469925" style="fill: #d2980d; stroke: #d2980d"/>
     <use xlink:href="#meb780f6744" x="284.858182" y="165.965097" style="fill: #d2980d; stroke: #d2980d"/>
     <use xlink:href="#meb780f6744" x="317.323636" y="267.339993" style="fill: #d2980d; stroke: #d2980d"/>
     <use xlink:href="#meb780f6744" x="349.789091" y="294.633234" style="fill: #d2980d; stroke: #d2980d"/>
     <use xlink:href="#meb780f6744" x="382.254545" y="271.239028" style="fill: #d2980d; stroke: #d2980d"/>
    </g>
   </g>
   <g id="line2d_15">
    <g clip-path="url(#p5fd5dd5504)">
     <use xlink:href="#meb780f6744" x="90.065455" y="251.743855" style="fill: #d2980d; stroke: #d2980d"/>
     <use xlink:href="#meb780f6744" x="122.530909" y="204.955442" style="fill: #d2980d; stroke: #d2980d"/>
     <use xlink:href="#meb780f6744" x="154.996364" y="111.378614" style="fill: #d2980d; stroke: #d2980d"/>
     <use xlink:href="#meb780f6744" x="187.461818" y="68.489235" style="fill: #d2980d; stroke: #d2980d"/>
     <use xlink:href="#meb780f6744" x="219.927273" y="107.47958" style="fill: #d2980d; stroke: #d2980d"/>
     <use xlink:href="#meb780f6744" x="252.392727" y="142.57089" style="fill: #d2980d; stroke: #d2980d"/>
     <use xlink:href="#meb780f6744" x="284.858182" y="162.066062" style="fill: #d2980d; stroke: #d2980d"/>
     <use xlink:href="#meb780f6744" x="317.323636" y="263.440959" style="fill: #d2980d; stroke: #d2980d"/>
     <use xlink:href="#meb780f6744" x="349.789091" y="290.7342" style="fill: #d2980d; stroke: #d2980d"/>
     <use xlink:href="#meb780f6744" x="382.254545" y="267.339993" style="fill: #d2980d; stroke: #d2980d"/>
    </g>
   </g>
   <g id="line2d_16">
    <path d="M 73.832727 248.357852 
L 80.332318 241.527305 
L 89.431744 232.338502 
L 96.581294 224.997239 
L 100.806028 220.35292 
L 104.380803 216.108541 
L 107.630598 211.912926 
L 110.555414 207.800209 
L 113.480229 203.316633 
L 116.405045 198.417579 
L 119.329861 193.066257 
L 122.254676 187.236142 
L 125.179492 180.913262 
L 128.429287 173.311155 
L 131.679083 165.126134 
L 135.253857 155.510802 
L 139.478591 143.46482 
L 145.328223 126.015889 
L 153.452711 101.822271 
L 157.352465 90.945121 
L 160.60226 82.563762 
L 163.202097 76.433393 
L 165.476953 71.560089 
L 167.75181 67.197708 
L 169.701687 63.898691 
L 171.651564 61.030889 
L 173.276462 58.98434 
L 174.90136 57.259086 
L 176.526257 55.861256 
L 178.151155 54.794485 
L 179.451073 54.180243 
L 180.750991 53.777977 
L 182.050909 53.585976 
L 183.350827 53.601468 
L 184.650745 53.820626 
L 185.950663 54.238592 
L 187.575561 55.031597 
L 189.200459 56.112425 
L 190.825356 57.465257 
L 192.775233 59.42235 
L 194.725111 61.710715 
L 196.999967 64.748361 
L 199.599803 68.624953 
L 202.849599 73.926171 
L 207.724292 82.393894 
L 213.573923 92.496789 
L 216.823718 97.707265 
L 219.748534 101.987679 
L 222.34837 105.394992 
L 224.623227 108.033645 
L 226.898084 110.333234 
L 229.17294 112.286121 
L 231.122817 113.685883 
L 233.072695 114.840508 
L 235.022572 115.763077 
L 237.297428 116.570629 
L 239.572285 117.124216 
L 242.172121 117.5037 
L 245.421916 117.713151 
L 253.871384 118.090158 
L 256.146241 118.459154 
L 258.421097 119.061637 
L 260.370975 119.808027 
L 262.320852 120.802366 
L 264.270729 122.075042 
L 266.220606 123.652673 
L 268.170483 125.557679 
L 270.12036 127.807927 
L 272.070238 130.416463 
L 274.020115 133.391318 
L 275.969992 136.735402 
L 278.244848 141.100235 
L 280.519705 145.952114 
L 283.119541 152.065713 
L 285.719378 158.741764 
L 288.644193 166.850981 
L 292.218968 177.478874 
L 296.443702 190.776314 
L 311.067781 237.515011 
L 314.642555 247.851678 
L 317.567371 255.694551 
L 320.492187 262.895747 
L 323.092023 268.705257 
L 325.36688 273.303342 
L 327.641736 277.431503 
L 329.916593 281.079891 
L 331.86647 283.8221 
L 333.816347 286.209664 
L 335.766224 288.246192 
L 337.716102 289.937871 
L 339.665979 291.293211 
L 341.290876 292.173304 
L 342.915774 292.834212 
L 344.540672 293.283761 
L 346.165569 293.530417 
L 347.790467 293.583179 
L 349.740344 293.403846 
L 351.690221 292.975781 
L 353.640098 292.316315 
L 355.589975 291.443002 
L 357.864832 290.177317 
L 360.464668 288.439176 
L 363.064505 286.42857 
L 365.98932 283.889262 
L 369.564095 280.460316 
L 373.788829 276.059887 
L 379.313481 269.941134 
L 398.487273 248.357852 
L 398.487273 248.357852 
" clip-path="url(#p5fd5dd5504)" style="fill: none; stroke: #ffb400; stroke-width: 1.5; stroke-linecap: square"/>
   </g>
   <g id="line2d_17">
    <path d="M 73.832727 259.045102 
L 78.382441 256.766803 
L 90.406683 250.90864 
L 93.656478 248.995318 
L 96.581294 247.013059 
L 99.18113 244.988674 
L 101.780966 242.670359 
L 104.380803 240.015346 
L 106.655659 237.384951 
L 108.930516 234.442952 
L 111.205373 231.16892 
L 113.480229 227.546142 
L 116.080066 222.962958 
L 118.679902 217.896947 
L 121.279738 212.345716 
L 124.204554 205.529691 
L 127.129369 198.133624 
L 130.379165 189.286141 
L 133.953939 178.882352 
L 138.178673 165.869092 
L 144.678264 144.987192 
L 151.827813 122.188021 
L 155.727568 110.481285 
L 158.977363 101.40836 
L 161.902179 93.92281 
L 164.502015 87.904383 
L 166.776871 83.186412 
L 168.726749 79.582037 
L 170.676626 76.406201 
L 172.626503 73.676319 
L 174.2514 71.75171 
L 175.876298 70.151278 
L 177.501196 68.878072 
L 179.126093 67.932885 
L 180.426011 67.41199 
L 181.72593 67.098316 
L 183.025848 66.98913 
L 184.325766 67.080787 
L 185.625684 67.368752 
L 186.925602 67.847619 
L 188.5505 68.70507 
L 190.175397 69.83705 
L 191.800295 71.227785 
L 193.750172 73.213543 
L 195.700049 75.51369 
L 197.974906 78.546801 
L 200.574742 82.400008 
L 203.824537 87.657631 
L 208.374251 95.501329 
L 215.5238 107.849104 
L 219.098575 113.566249 
L 222.023391 117.85005 
L 224.623227 121.299125 
L 227.223063 124.375309 
L 229.49792 126.745957 
L 231.772776 128.813306 
L 234.047633 130.582859 
L 236.32249 132.068595 
L 238.597346 133.292557 
L 240.872203 134.284271 
L 243.472039 135.180069 
L 246.721835 136.03749 
L 257.446159 138.58297 
L 260.045995 139.572356 
L 262.320852 140.685112 
L 264.595708 142.07697 
L 266.545586 143.523561 
L 268.495463 145.228228 
L 270.44534 147.210079 
L 272.395217 149.484419 
L 274.345094 152.062501 
L 276.619951 155.463303 
L 278.894808 159.290628 
L 281.169664 163.540076 
L 283.7695 168.897184 
L 286.369337 174.758242 
L 289.294152 181.899891 
L 292.543948 190.422127 
L 296.443702 201.284755 
L 302.293333 218.329353 
L 309.767862 240.032014 
L 313.667617 250.704815 
L 316.917412 259.006973 
L 319.842228 265.903369 
L 322.442064 271.508124 
L 325.0419 276.570411 
L 327.316757 280.526768 
L 329.591613 284.023381 
L 331.541491 286.646195 
L 333.491368 288.92003 
L 335.441245 290.845006 
L 337.391122 292.424409 
L 339.01602 293.481058 
L 340.640917 294.307208 
L 342.265815 294.909294 
L 343.890713 295.294941 
L 345.51561 295.472858 
L 347.140508 295.452734 
L 349.090385 295.182093 
L 351.040262 294.661172 
L 352.990139 293.910902 
L 355.264996 292.774978 
L 357.539853 291.392649 
L 360.139689 289.558043 
L 363.389484 286.962465 
L 367.289238 283.541174 
L 383.213235 269.21309 
L 387.112989 266.182601 
L 390.687764 263.670897 
L 394.262539 261.414662 
L 398.162293 259.217368 
L 398.487273 259.045102 
L 398.487273 259.045102 
" clip-path="url(#p5fd5dd5504)" style="fill: none; stroke: #d2980d; stroke-width: 1.5; stroke-linecap: square"/>
   </g>
   <g id="line2d_18">
    <path d="M 73.832727 252.274454 
L 78.70742 248.680173 
L 94.306437 237.464511 
L 97.556233 234.719887 
L 100.481048 231.982421 
L 103.405864 228.931567 
L 106.0057 225.911487 
L 108.605536 222.563276 
L 111.205373 218.854155 
L 113.805209 214.756092 
L 116.405045 210.24687 
L 119.004881 205.311098 
L 121.929697 199.239324 
L 124.854513 192.620469 
L 127.779328 185.471646 
L 131.029124 176.947451 
L 134.603898 166.944837 
L 138.828632 154.447218 
L 145.328223 134.397767 
L 152.477772 112.504003 
L 156.377527 101.268662 
L 159.627322 92.572768 
L 162.552138 85.413802 
L 165.151974 79.675766 
L 167.42683 75.195849 
L 169.376708 71.790384 
L 171.326585 68.808937 
L 173.276462 66.269085 
L 174.90136 64.49957 
L 176.526257 63.051263 
L 178.151155 61.927153 
L 179.451073 61.261816 
L 180.750991 60.803699 
L 182.050909 60.5511 
L 183.350827 60.501359 
L 184.650745 60.650866 
L 185.950663 60.995084 
L 187.575561 61.690792 
L 189.200459 62.669619 
L 190.825356 63.916993 
L 192.775233 65.745028 
L 194.725111 67.904279 
L 196.999967 70.795381 
L 199.599803 74.516385 
L 202.524619 79.119932 
L 206.424373 85.709107 
L 216.173759 102.390629 
L 219.423554 107.422252 
L 222.34837 111.533166 
L 224.948206 114.798128 
L 227.223063 117.328199 
L 229.49792 119.541386 
L 231.772776 121.435984 
L 234.047633 123.019562 
L 236.32249 124.308706 
L 238.597346 125.328565 
L 240.872203 126.112208 
L 243.472039 126.770392 
L 246.721835 127.340326 
L 255.821261 128.745353 
L 258.421097 129.469803 
L 260.695954 130.346834 
L 262.645831 131.320843 
L 264.595708 132.53183 
L 266.545586 134.006746 
L 268.495463 135.769041 
L 270.44534 137.838285 
L 272.395217 140.229858 
L 274.345094 142.954705 
L 276.619951 146.563112 
L 278.894808 150.635554 
L 281.169664 155.165259 
L 283.7695 160.881884 
L 286.369337 167.139277 
L 289.294152 174.763419 
L 292.543948 183.856393 
L 296.443702 195.433838 
L 302.618313 214.580583 
L 309.442883 235.605061 
L 313.342637 246.949477 
L 316.592432 255.778901 
L 319.517248 263.119075 
L 322.117084 269.090915 
L 324.716921 274.492655 
L 326.991777 278.722387 
L 329.266634 282.469726 
L 331.216511 285.289168 
L 333.166388 287.742632 
L 335.116265 289.830181 
L 337.066143 291.555072 
L 338.69104 292.719896 
L 340.315938 293.642318 
L 341.940835 294.328736 
L 343.565733 294.786707 
L 345.190631 295.024841 
L 346.815528 295.052694 
L 348.440426 294.880646 
L 350.390303 294.42598 
L 352.34018 293.719737 
L 354.290057 292.783131 
L 356.564914 291.428474 
L 358.839771 289.825401 
L 361.439607 287.73464 
L 364.689402 284.809584 
L 368.589156 280.971596 
L 374.763767 274.521887 
L 382.888256 266.088128 
L 387.762948 261.363296 
L 391.987682 257.563664 
L 396.212416 254.052764 
L 398.487273 252.274454 
L 398.487273 252.274454 
" clip-path="url(#p5fd5dd5504)" style="fill: none; stroke: #a57c1b; stroke-width: 1.5; stroke-linecap: square"/>
   </g>
   <g id="line2d_19">
    <defs>
     <path id="m13e9e02d87" d="M -2.5 2.5 
L 2.5 2.5 
L 2.5 -2.5 
L -2.5 -2.5 
z
" style="stroke: #ffb400; stroke-linejoin: miter"/>
    </defs>
    <g clip-path="url(#p5fd5dd5504)">
     <use xlink:href="#m13e9e02d87" x="73.832727" y="241.996269" style="fill: #ffb400; stroke: #ffb400; stroke-linejoin: miter"/>
     <use xlink:href="#m13e9e02d87" x="106.298182" y="214.703028" style="fill: #ffb400; stroke: #ffb400; stroke-linejoin: miter"/>
     <use xlink:href="#m13e9e02d87" x="138.763636" y="144.520407" style="fill: #ffb400; stroke: #ffb400; stroke-linejoin: miter"/>
     <use xlink:href="#m13e9e02d87" x="171.229091" y="62.640683" style="fill: #ffb400; stroke: #ffb400; stroke-linejoin: miter"/>
     <use xlink:href="#m13e9e02d87" x="203.694545" y="74.337787" style="fill: #ffb400; stroke: #ffb400; stroke-linejoin: miter"/>
     <use xlink:href="#m13e9e02d87" x="236.16" y="117.227166" style="fill: #ffb400; stroke: #ffb400; stroke-linejoin: miter"/>
     <use xlink:href="#m13e9e02d87" x="268.625455" y="125.025235" style="fill: #ffb400; stroke: #ffb400; stroke-linejoin: miter"/>
     <use xlink:href="#m13e9e02d87" x="301.090909" y="206.904959" style="fill: #ffb400; stroke: #ffb400; stroke-linejoin: miter"/>
     <use xlink:href="#m13e9e02d87" x="333.556364" y="284.885648" style="fill: #ffb400; stroke: #ffb400; stroke-linejoin: miter"/>
     <use xlink:href="#m13e9e02d87" x="366.021818" y="284.885648" style="fill: #ffb400; stroke: #ffb400; stroke-linejoin: miter"/>
     <use xlink:href="#m13e9e02d87" x="398.487273" y="253.693373" style="fill: #ffb400; stroke: #ffb400; stroke-linejoin: miter"/>
    </g>
   </g>
   <g id="line2d_20">
    <defs>
     <path id="m2b1439190a" d="M -2.5 2.5 
L 2.5 2.5 
L 2.5 -2.5 
L -2.5 -2.5 
z
" style="stroke: #d2980d; stroke-linejoin: miter"/>
    </defs>
    <g clip-path="url(#p5fd5dd5504)">
     <use xlink:href="#m2b1439190a" x="90.065455" y="253.693373" style="fill: #d2980d; stroke: #d2980d; stroke-linejoin: miter"/>
     <use xlink:href="#m2b1439190a" x="122.530909" y="206.904959" style="fill: #d2980d; stroke: #d2980d; stroke-linejoin: miter"/>
     <use xlink:href="#m2b1439190a" x="154.996364" y="113.328132" style="fill: #d2980d; stroke: #d2980d; stroke-linejoin: miter"/>
     <use xlink:href="#m2b1439190a" x="187.461818" y="70.438752" style="fill: #d2980d; stroke: #d2980d; stroke-linejoin: miter"/>
     <use xlink:href="#m2b1439190a" x="219.927273" y="109.429097" style="fill: #d2980d; stroke: #d2980d; stroke-linejoin: miter"/>
     <use xlink:href="#m2b1439190a" x="252.392727" y="144.520407" style="fill: #d2980d; stroke: #d2980d; stroke-linejoin: miter"/>
     <use xlink:href="#m2b1439190a" x="284.858182" y="164.01558" style="fill: #d2980d; stroke: #d2980d; stroke-linejoin: miter"/>
     <use xlink:href="#m2b1439190a" x="317.323636" y="265.390476" style="fill: #d2980d; stroke: #d2980d; stroke-linejoin: miter"/>
     <use xlink:href="#m2b1439190a" x="349.789091" y="292.683717" style="fill: #d2980d; stroke: #d2980d; stroke-linejoin: miter"/>
     <use xlink:href="#m2b1439190a" x="382.254545" y="269.28951" style="fill: #d2980d; stroke: #d2980d; stroke-linejoin: miter"/>
    </g>
   </g>
   <g id="patch_3">
    <path d="M 57.6 307.584 
L 57.6 41.472 
" style="fill: none; stroke: #000000; stroke-width: 0.8; stroke-linejoin: miter; stroke-linecap: square"/>
   </g>
   <g id="patch_4">
    <path d="M 414.72 307.584 
L 414.72 41.472 
" style="fill: none; stroke: #000000; stroke-width: 0.8; stroke-linejoin: miter; stroke-linecap: square"/>
   </g>
   <g id="patch_5">
    <path d="M 57.6 307.584 
L 414.72 307.584 
" style="fill: none; stroke: #000000; stroke-width: 0.8; stroke-linejoin: miter; stroke-linecap: square"/>
   </g>
   <g id="patch_6">
    <path d="M 57.6 41.472 
L 414.72 41.472 
" style="fill: none; stroke: #000000; stroke-width: 0.8; stroke-linejoin: miter; stroke-linecap: square"/>
   </g>
   <g id="legend_1">
    <g id="patch_7">
     <path d="M 225.568082 150.232142 
L 404.92 150.232142 
Q 407.72 150.232142 407.72 147.432142 
L 407.72 51.272 
Q 407.72 48.472 404.92 48.472 
L 225.568082 48.472 
Q 222.768082 48.472 222.768082 51.272 
L 222.768082 147.432142 
Q 222.768082 150.232142 225.568082 150.232142 
z
" style="fill: #ffffff; opacity: 0.8; stroke: #cccccc; stroke-linejoin: miter"/>
    </g>
    <g id="line2d_21">
     <path d="M 228.368082 58.972 
L 242.368082 58.972 
L 256.368082 58.972 
" style="fill: none; stroke: #ffb400; stroke-width: 1.5; stroke-linecap: square"/>
    </g>
    <g id="text_15">
     <!-- Fit, 1st dataset, AC -->
     <g transform="translate(267.568082 63.872) scale(0.14 -0.14)">
      <defs>
       <path id="CMR17-2c" d="M 1011 102 
C 1024 44 1024 25 1024 -76 
C 1024 -451 896 -795 627 -1108 
C 595 -1140 595 -1152 595 -1165 
C 595 -1191 621 -1216 646 -1216 
C 685 -1216 1126 -776 1126 -82 
C 1126 128 1101 524 800 524 
C 659 524 538 428 538 262 
C 538 96 659 0 800 0 
C 877 0 960 32 1011 102 
z
" transform="scale(0.015625)"/>
       <path id="CMR17-64" d="M 1869 4345 
L 1869 4179 
C 2246 4179 2304 4141 2304 3843 
L 2304 2371 
C 2278 2403 2016 2816 1498 2816 
C 845 2816 211 2228 211 1376 
C 211 529 806 -64 1434 -64 
C 1978 -64 2259 361 2291 406 
L 2291 -64 
L 3066 -13 
L 3066 154 
C 2688 154 2630 193 2630 503 
L 2630 4416 
L 1869 4345 
z
M 2291 762 
C 2291 568 2176 393 2029 264 
C 1811 70 1594 38 1472 38 
C 1286 38 621 135 621 1369 
C 621 2636 1363 2713 1530 2713 
C 1824 2713 2061 2545 2208 2313 
C 2291 2177 2291 2157 2291 2041 
L 2291 762 
z
" transform="scale(0.015625)"/>
       <path id="CMR17-41" d="M 2323 4441 
C 2291 4524 2278 4544 2214 4544 
C 2150 4544 2138 4524 2106 4441 
L 749 580 
C 627 236 371 166 147 166 
L 147 0 
C 262 12 518 12 640 12 
C 800 12 1056 12 1210 0 
L 1210 166 
C 909 179 864 382 864 459 
C 864 516 877 548 890 586 
L 1229 1536 
L 2906 1536 
L 3290 453 
C 3322 376 3322 363 3322 338 
C 3322 166 3046 166 2925 166 
L 2925 0 
C 3110 12 3443 12 3642 12 
C 3808 12 4128 12 4282 0 
L 4282 166 
C 3942 166 3827 166 3744 402 
L 2323 4441 
z
M 2067 3924 
L 2848 1702 
L 1286 1702 
L 2067 3924 
z
" transform="scale(0.015625)"/>
       <path id="CMR17-43" d="M 3974 4351 
C 3974 4467 3968 4473 3930 4473 
C 3904 4473 3898 4467 3853 4390 
L 3571 3849 
C 3258 4249 2874 4480 2381 4480 
C 1286 4480 294 3507 294 2179 
C 294 837 1286 -128 2387 -128 
C 3366 -128 3974 741 3974 1482 
C 3974 1547 3974 1573 3917 1573 
C 3866 1573 3866 1553 3859 1495 
C 3808 592 3168 38 2477 38 
C 1824 38 781 502 781 2179 
C 781 3862 1843 4313 2464 4313 
C 3187 4313 3712 3681 3834 2785 
C 3846 2707 3846 2695 3904 2695 
C 3974 2695 3974 2707 3974 2824 
L 3974 4351 
z
" transform="scale(0.015625)"/>
      </defs>
      <use xlink:href="#CMR17-46" transform="scale(0.996264)"/>
      <use xlink:href="#CMR17-69" transform="translate(59.983847 0) scale(0.996264)"/>
      <use xlink:href="#CMR17-74" transform="translate(84.854905 0) scale(0.996264)"/>
      <use xlink:href="#CMR17-2c" transform="translate(120.135673 0) scale(0.996264)"/>
      <use xlink:href="#CMR17-31" transform="translate(175.082698 0) scale(0.996264)"/>
      <use xlink:href="#CMR17-73" transform="translate(220.773175 0) scale(0.996264)"/>
      <use xlink:href="#CMR17-74" transform="translate(256.574512 0) scale(0.996264)"/>
      <use xlink:href="#CMR17-64" transform="translate(321.931247 0) scale(0.996264)"/>
      <use xlink:href="#CMR17-61" transform="translate(372.826616 0) scale(0.996264)"/>
      <use xlink:href="#CMR17-74" transform="translate(418.517093 0) scale(0.996264)"/>
      <use xlink:href="#CMR17-61" transform="translate(453.797861 0) scale(0.996264)"/>
      <use xlink:href="#CMR17-73" transform="translate(499.488338 0) scale(0.996264)"/>
      <use xlink:href="#CMR17-65" transform="translate(535.289676 0) scale(0.996264)"/>
      <use xlink:href="#CMR17-74" transform="translate(575.775337 0) scale(0.996264)"/>
      <use xlink:href="#CMR17-2c" transform="translate(611.056104 0) scale(0.996264)"/>
      <use xlink:href="#CMR17-41" transform="translate(666.003129 0) scale(0.996264)"/>
      <use xlink:href="#CMR17-43" transform="translate(732.473105 0) scale(0.996264)"/>
     </g>
    </g>
    <g id="line2d_22">
     <path d="M 228.368082 78.484028 
L 242.368082 78.484028 
L 256.368082 78.484028 
" style="fill: none; stroke: #d2980d; stroke-width: 1.5; stroke-linecap: square"/>
    </g>
    <g id="text_16">
     <!-- Fit, 2nd dataset, AC -->
     <g transform="translate(267.568082 83.384028) scale(0.14 -0.14)">
      <use xlink:href="#CMR17-46" transform="scale(0.996264)"/>
      <use xlink:href="#CMR17-69" transform="translate(59.983847 0) scale(0.996264)"/>
      <use xlink:href="#CMR17-74" transform="translate(84.854905 0) scale(0.996264)"/>
      <use xlink:href="#CMR17-2c" transform="translate(120.135673 0) scale(0.996264)"/>
      <use xlink:href="#CMR17-32" transform="translate(175.082698 0) scale(0.996264)"/>
      <use xlink:href="#CMR17-6e" transform="translate(220.773175 0) scale(0.996264)"/>
      <use xlink:href="#CMR17-64" transform="translate(271.668545 0) scale(0.996264)"/>
      <use xlink:href="#CMR17-64" transform="translate(352.639881 0) scale(0.996264)"/>
      <use xlink:href="#CMR17-61" transform="translate(403.535251 0) scale(0.996264)"/>
      <use xlink:href="#CMR17-74" transform="translate(449.225728 0) scale(0.996264)"/>
      <use xlink:href="#CMR17-61" transform="translate(484.506495 0) scale(0.996264)"/>
      <use xlink:href="#CMR17-73" transform="translate(530.196973 0) scale(0.996264)"/>
      <use xlink:href="#CMR17-65" transform="translate(565.99831 0) scale(0.996264)"/>
      <use xlink:href="#CMR17-74" transform="translate(606.483971 0) scale(0.996264)"/>
      <use xlink:href="#CMR17-2c" transform="translate(641.764738 0) scale(0.996264)"/>
      <use xlink:href="#CMR17-41" transform="translate(696.711763 0) scale(0.996264)"/>
      <use xlink:href="#CMR17-43" transform="translate(763.181739 0) scale(0.996264)"/>
     </g>
    </g>
    <g id="line2d_23">
     <path d="M 228.368082 97.996057 
L 242.368082 97.996057 
L 256.368082 97.996057 
" style="fill: none; stroke: #a57c1b; stroke-width: 1.5; stroke-linecap: square"/>
    </g>
    <g id="text_17">
     <!-- Fit, both data set, AC -->
     <g transform="translate(267.568082 102.896057) scale(0.14 -0.14)">
      <defs>
       <path id="CMR17-62" d="M 960 4416 
L 198 4345 
L 198 4179 
C 576 4179 634 4141 634 3843 
L 634 -13 
L 749 -13 
L 934 445 
C 1120 141 1395 -64 1766 -64 
C 2406 -64 3053 503 3053 1382 
C 3053 2209 2477 2816 1830 2816 
C 1434 2816 1152 2603 960 2351 
L 960 4416 
z
M 973 2022 
C 973 2138 973 2157 1062 2293 
C 1312 2681 1670 2713 1792 2713 
C 1984 2713 2643 2610 2643 1388 
C 2643 109 1888 38 1734 38 
C 1536 38 1248 115 1043 490 
C 973 613 973 626 973 742 
L 973 2022 
z
" transform="scale(0.015625)"/>
       <path id="CMR17-68" d="M 2656 1954 
C 2656 2282 2592 2816 1837 2816 
C 1312 2816 1056 2392 979 2179 
L 973 2179 
L 973 4416 
L 211 4345 
L 211 4179 
C 589 4179 646 4141 646 3843 
L 646 443 
C 646 198 621 166 211 166 
L 211 0 
C 365 12 646 12 813 12 
C 979 12 1267 12 1421 0 
L 1421 166 
C 1011 166 986 192 986 443 
L 986 1678 
C 986 2269 1344 2713 1792 2713 
C 2266 2713 2317 2289 2317 1980 
L 2317 443 
C 2317 198 2291 166 1882 166 
L 1882 0 
C 2035 12 2317 12 2483 12 
C 2650 12 2938 12 3091 0 
L 3091 166 
C 2682 166 2656 192 2656 443 
L 2656 1954 
z
" transform="scale(0.015625)"/>
      </defs>
      <use xlink:href="#CMR17-46" transform="scale(0.996264)"/>
      <use xlink:href="#CMR17-69" transform="translate(59.983847 0) scale(0.996264)"/>
      <use xlink:href="#CMR17-74" transform="translate(84.854905 0) scale(0.996264)"/>
      <use xlink:href="#CMR17-2c" transform="translate(120.135673 0) scale(0.996264)"/>
      <use xlink:href="#CMR17-62" transform="translate(175.082698 0) scale(0.996264)"/>
      <use xlink:href="#CMR17-6f" transform="translate(228.580506 0) scale(0.996264)"/>
      <use xlink:href="#CMR17-74" transform="translate(274.270983 0) scale(0.996264)"/>
      <use xlink:href="#CMR17-68" transform="translate(309.551751 0) scale(0.996264)"/>
      <use xlink:href="#CMR17-64" transform="translate(390.523087 0) scale(0.996264)"/>
      <use xlink:href="#CMR17-61" transform="translate(441.418457 0) scale(0.996264)"/>
      <use xlink:href="#CMR17-74" transform="translate(487.108934 0) scale(0.996264)"/>
      <use xlink:href="#CMR17-61" transform="translate(522.389702 0) scale(0.996264)"/>
      <use xlink:href="#CMR17-73" transform="translate(598.156145 0) scale(0.996264)"/>
      <use xlink:href="#CMR17-65" transform="translate(633.957483 0) scale(0.996264)"/>
      <use xlink:href="#CMR17-74" transform="translate(674.443144 0) scale(0.996264)"/>
      <use xlink:href="#CMR17-2c" transform="translate(709.723911 0) scale(0.996264)"/>
      <use xlink:href="#CMR17-41" transform="translate(764.670936 0) scale(0.996264)"/>
      <use xlink:href="#CMR17-43" transform="translate(831.140912 0) scale(0.996264)"/>
     </g>
    </g>
    <g id="LineCollection_3">
     <path d="M 242.368082 124.508085 
L 242.368082 110.508085 
" style="fill: none; stroke: #ffb400; stroke-width: 1.5"/>
    </g>
    <g id="line2d_24">
     <g>
      <use xlink:href="#mc4884e8606" x="242.368082" y="124.508085" style="fill: #ffb400; stroke: #ffb400"/>
     </g>
    </g>
    <g id="line2d_25">
     <g>
      <use xlink:href="#mc4884e8606" x="242.368082" y="110.508085" style="fill: #ffb400; stroke: #ffb400"/>
     </g>
    </g>
    <g id="line2d_26"/>
    <g id="line2d_27">
     <g>
      <use xlink:href="#m13e9e02d87" x="242.368082" y="117.508085" style="fill: #ffb400; stroke: #ffb400; stroke-linejoin: miter"/>
     </g>
    </g>
    <g id="text_18">
     <!-- Dataset 1, AC -->
     <g transform="translate(267.568082 122.408085) scale(0.14 -0.14)">
      <defs>
       <path id="CMR17-44" d="M 333 4352 
L 333 4185 
C 774 4185 845 4185 845 3898 
L 845 453 
C 845 166 774 166 333 166 
L 333 0 
L 2368 0 
C 3398 0 4224 943 4224 2140 
C 4224 3344 3411 4352 2368 4352 
L 333 4352 
z
M 1523 166 
C 1267 166 1254 198 1254 414 
L 1254 3936 
C 1254 4153 1267 4185 1523 4185 
L 2240 4185 
C 2771 4185 3750 3873 3750 2140 
C 3750 1242 3488 879 3366 707 
C 3213 510 2848 166 2240 166 
L 1523 166 
z
" transform="scale(0.015625)"/>
      </defs>
      <use xlink:href="#CMR17-44" transform="scale(0.996264)"/>
      <use xlink:href="#CMR17-61" transform="translate(70.393556 0) scale(0.996264)"/>
      <use xlink:href="#CMR17-74" transform="translate(116.084033 0) scale(0.996264)"/>
      <use xlink:href="#CMR17-61" transform="translate(151.364801 0) scale(0.996264)"/>
      <use xlink:href="#CMR17-73" transform="translate(197.055278 0) scale(0.996264)"/>
      <use xlink:href="#CMR17-65" transform="translate(232.856616 0) scale(0.996264)"/>
      <use xlink:href="#CMR17-74" transform="translate(273.342276 0) scale(0.996264)"/>
      <use xlink:href="#CMR17-31" transform="translate(338.69901 0) scale(0.996264)"/>
      <use xlink:href="#CMR17-2c" transform="translate(384.389487 0) scale(0.996264)"/>
      <use xlink:href="#CMR17-41" transform="translate(439.336512 0) scale(0.996264)"/>
      <use xlink:href="#CMR17-43" transform="translate(505.806488 0) scale(0.996264)"/>
     </g>
    </g>
    <g id="LineCollection_4">
     <path d="M 242.368082 144.020114 
L 242.368082 130.020114 
" style="fill: none; stroke: #d2980d; stroke-width: 1.5"/>
    </g>
    <g id="line2d_28">
     <g>
      <use xlink:href="#meb780f6744" x="242.368082" y="144.020114" style="fill: #d2980d; stroke: #d2980d"/>
     </g>
    </g>
    <g id="line2d_29">
     <g>
      <use xlink:href="#meb780f6744" x="242.368082" y="130.020114" style="fill: #d2980d; stroke: #d2980d"/>
     </g>
    </g>
    <g id="line2d_30"/>
    <g id="line2d_31">
     <g>
      <use xlink:href="#m2b1439190a" x="242.368082" y="137.020114" style="fill: #d2980d; stroke: #d2980d; stroke-linejoin: miter"/>
     </g>
    </g>
    <g id="text_19">
     <!-- Dataset 2, AC -->
     <g transform="translate(267.568082 141.920114) scale(0.14 -0.14)">
      <use xlink:href="#CMR17-44" transform="scale(0.996264)"/>
      <use xlink:href="#CMR17-61" transform="translate(70.393556 0) scale(0.996264)"/>
      <use xlink:href="#CMR17-74" transform="translate(116.084033 0) scale(0.996264)"/>
      <use xlink:href="#CMR17-61" transform="translate(151.364801 0) scale(0.996264)"/>
      <use xlink:href="#CMR17-73" transform="translate(197.055278 0) scale(0.996264)"/>
      <use xlink:href="#CMR17-65" transform="translate(232.856616 0) scale(0.996264)"/>
      <use xlink:href="#CMR17-74" transform="translate(273.342276 0) scale(0.996264)"/>
      <use xlink:href="#CMR17-32" transform="translate(338.69901 0) scale(0.996264)"/>
      <use xlink:href="#CMR17-2c" transform="translate(384.389487 0) scale(0.996264)"/>
      <use xlink:href="#CMR17-41" transform="translate(439.336512 0) scale(0.996264)"/>
      <use xlink:href="#CMR17-43" transform="translate(505.806488 0) scale(0.996264)"/>
     </g>
    </g>
   </g>
  </g>
 </g>
 <defs>
  <clipPath id="p5fd5dd5504">
   <rect x="57.6" y="41.472" width="357.12" height="266.112"/>
  </clipPath>
 </defs>
</svg>
