<?xml version="1.0" encoding="utf-8" standalone="no"?>
<!DOCTYPE svg PUBLIC "-//W3C//DTD SVG 1.1//EN"
  "http://www.w3.org/Graphics/SVG/1.1/DTD/svg11.dtd">
<svg xmlns:xlink="http://www.w3.org/1999/xlink" width="460.8pt" height="345.6pt" viewBox="0 0 460.8 345.6" xmlns="http://www.w3.org/2000/svg" version="1.1">
 <metadata>
  <rdf:RDF xmlns:dc="http://purl.org/dc/elements/1.1/" xmlns:cc="http://creativecommons.org/ns#" xmlns:rdf="http://www.w3.org/1999/02/22-rdf-syntax-ns#">
   <cc:Work>
    <dc:type rdf:resource="http://purl.org/dc/dcmitype/StillImage"/>
    <dc:date>2024-11-24T11:18:20.539623</dc:date>
    <dc:format>image/svg+xml</dc:format>
    <dc:creator>
     <cc:Agent>
      <dc:title>Matplotlib v3.6.3, https://matplotlib.org/</dc:title>
     </cc:Agent>
    </dc:creator>
   </cc:Work>
  </rdf:RDF>
 </metadata>
 <defs>
  <style type="text/css">*{stroke-linejoin: round; stroke-linecap: butt}</style>
 </defs>
 <g id="figure_1">
  <g id="patch_1">
   <path d="M 0 345.6 
L 460.8 345.6 
L 460.8 0 
L 0 0 
z
" style="fill: #ffffff"/>
  </g>
  <g id="axes_1">
   <g id="patch_2">
    <path d="M 57.6 307.584 
L 414.72 307.584 
L 414.72 41.472 
L 57.6 41.472 
z
" style="fill: #ffffff"/>
   </g>
   <g id="matplotlib.axis_1">
    <g id="xtick_1">
     <g id="line2d_1">
      <defs>
       <path id="m279261e4e4" d="M 0 0 
L 0 3.5 
" style="stroke: #000000; stroke-width: 0.8"/>
      </defs>
      <g>
       <use xlink:href="#m279261e4e4" x="88.442182" y="307.584" style="stroke: #000000; stroke-width: 0.8"/>
      </g>
     </g>
     <g id="text_1">
      <!-- $\mathdefault{7.340}$ -->
      <g transform="translate(69.554864 327.0373) scale(0.18 -0.18)">
       <defs>
        <path id="CMR17-37" d="M 2886 3955 
L 2886 4096 
L 1382 4096 
C 634 4096 621 4166 595 4288 
L 480 4288 
L 294 3104 
L 410 3104 
C 429 3226 474 3552 550 3673 
C 589 3724 1062 3724 1171 3724 
L 2579 3724 
L 1869 2670 
C 1395 1961 1069 1003 1069 166 
C 1069 89 1069 -128 1299 -128 
C 1530 -128 1530 89 1530 172 
L 1530 466 
C 1530 1514 1709 2204 2003 2644 
L 2886 3955 
z
" transform="scale(0.015625)"/>
        <path id="CMMI12-3a" d="M 1178 307 
C 1178 492 1024 620 870 620 
C 685 620 557 467 557 313 
C 557 128 710 0 864 0 
C 1050 0 1178 153 1178 307 
z
" transform="scale(0.015625)"/>
        <path id="CMR17-33" d="M 1414 2176 
C 1984 2176 2234 1673 2234 1094 
C 2234 322 1824 25 1453 25 
C 1114 25 563 193 390 691 
C 422 678 454 678 486 678 
C 640 678 755 780 755 947 
C 755 1132 614 1216 486 1216 
C 378 1216 211 1164 211 927 
C 211 335 787 -128 1466 -128 
C 2176 -128 2720 432 2720 1087 
C 2720 1718 2208 2176 1600 2246 
C 2086 2347 2554 2776 2554 3353 
C 2554 3856 2048 4224 1472 4224 
C 890 4224 378 3862 378 3347 
C 378 3123 544 3084 627 3084 
C 762 3084 877 3167 877 3334 
C 877 3500 762 3584 627 3584 
C 602 3584 570 3584 544 3571 
C 730 3999 1235 4076 1459 4076 
C 1683 4076 2106 3966 2106 3347 
C 2106 3167 2080 2851 1862 2574 
C 1670 2329 1453 2316 1242 2297 
C 1210 2297 1062 2284 1037 2284 
C 992 2278 966 2272 966 2227 
C 966 2182 973 2176 1101 2176 
L 1414 2176 
z
" transform="scale(0.015625)"/>
        <path id="CMR17-34" d="M 2150 4147 
C 2150 4281 2144 4288 2029 4288 
L 128 1254 
L 128 1088 
L 1779 1088 
L 1779 460 
C 1779 230 1766 166 1318 166 
L 1197 166 
L 1197 0 
C 1402 12 1747 12 1965 12 
C 2182 12 2528 12 2733 0 
L 2733 166 
L 2611 166 
C 2163 166 2150 230 2150 460 
L 2150 1088 
L 2803 1088 
L 2803 1254 
L 2150 1254 
L 2150 4147 
z
M 1798 3723 
L 1798 1254 
L 256 1254 
L 1798 3723 
z
" transform="scale(0.015625)"/>
        <path id="CMR17-30" d="M 2688 2038 
C 2688 2430 2682 3099 2413 3613 
C 2176 4063 1798 4224 1466 4224 
C 1158 4224 768 4082 525 3620 
C 269 3137 243 2539 243 2038 
C 243 1671 250 1112 448 623 
C 723 -39 1216 -128 1466 -128 
C 1760 -128 2208 -7 2470 604 
C 2662 1048 2688 1568 2688 2038 
z
M 1466 -26 
C 1056 -26 813 328 723 816 
C 653 1196 653 1749 653 2109 
C 653 2604 653 3015 736 3407 
C 858 3954 1216 4121 1466 4121 
C 1728 4121 2067 3947 2189 3420 
C 2272 3054 2278 2623 2278 2109 
C 2278 1691 2278 1176 2202 797 
C 2067 96 1690 -26 1466 -26 
z
" transform="scale(0.015625)"/>
       </defs>
       <use xlink:href="#CMR17-37" transform="scale(0.996264)"/>
       <use xlink:href="#CMMI12-3a" transform="translate(45.690477 0) scale(0.996264)"/>
       <use xlink:href="#CMR17-33" transform="translate(72.787654 0) scale(0.996264)"/>
       <use xlink:href="#CMR17-34" transform="translate(118.478131 0) scale(0.996264)"/>
       <use xlink:href="#CMR17-30" transform="translate(164.168608 0) scale(0.996264)"/>
      </g>
     </g>
    </g>
    <g id="xtick_2">
     <g id="line2d_2">
      <g>
       <use xlink:href="#m279261e4e4" x="169.605818" y="307.584" style="stroke: #000000; stroke-width: 0.8"/>
      </g>
     </g>
     <g id="text_2">
      <!-- $\mathdefault{7.341}$ -->
      <g transform="translate(150.7185 327.0373) scale(0.18 -0.18)">
       <defs>
        <path id="CMR17-31" d="M 1702 4083 
C 1702 4217 1696 4224 1606 4224 
C 1357 3927 979 3833 621 3820 
C 602 3820 570 3820 563 3808 
C 557 3795 557 3782 557 3648 
C 755 3648 1088 3686 1344 3839 
L 1344 467 
C 1344 243 1331 166 781 166 
L 589 166 
L 589 0 
C 896 6 1216 12 1523 12 
C 1830 12 2150 6 2458 0 
L 2458 166 
L 2266 166 
C 1715 166 1702 236 1702 467 
L 1702 4083 
z
" transform="scale(0.015625)"/>
       </defs>
       <use xlink:href="#CMR17-37" transform="scale(0.996264)"/>
       <use xlink:href="#CMMI12-3a" transform="translate(45.690477 0) scale(0.996264)"/>
       <use xlink:href="#CMR17-33" transform="translate(72.787654 0) scale(0.996264)"/>
       <use xlink:href="#CMR17-34" transform="translate(118.478131 0) scale(0.996264)"/>
       <use xlink:href="#CMR17-31" transform="translate(164.168608 0) scale(0.996264)"/>
      </g>
     </g>
    </g>
    <g id="xtick_3">
     <g id="line2d_3">
      <g>
       <use xlink:href="#m279261e4e4" x="250.769455" y="307.584" style="stroke: #000000; stroke-width: 0.8"/>
      </g>
     </g>
     <g id="text_3">
      <!-- $\mathdefault{7.342}$ -->
      <g transform="translate(231.882137 327.0373) scale(0.18 -0.18)">
       <defs>
        <path id="CMR17-32" d="M 2669 990 
L 2554 990 
C 2490 537 2438 460 2413 422 
C 2381 371 1920 371 1830 371 
L 602 371 
C 832 620 1280 1073 1824 1596 
C 2214 1966 2669 2400 2669 3033 
C 2669 3788 2067 4224 1395 4224 
C 691 4224 262 3603 262 3027 
C 262 2777 448 2745 525 2745 
C 589 2745 781 2783 781 3007 
C 781 3206 614 3264 525 3264 
C 486 3264 448 3257 422 3244 
C 544 3788 915 4057 1306 4057 
C 1862 4057 2227 3616 2227 3033 
C 2227 2477 1901 1998 1536 1583 
L 262 147 
L 262 0 
L 2515 0 
L 2669 990 
z
" transform="scale(0.015625)"/>
       </defs>
       <use xlink:href="#CMR17-37" transform="scale(0.996264)"/>
       <use xlink:href="#CMMI12-3a" transform="translate(45.690477 0) scale(0.996264)"/>
       <use xlink:href="#CMR17-33" transform="translate(72.787654 0) scale(0.996264)"/>
       <use xlink:href="#CMR17-34" transform="translate(118.478131 0) scale(0.996264)"/>
       <use xlink:href="#CMR17-32" transform="translate(164.168608 0) scale(0.996264)"/>
      </g>
     </g>
    </g>
    <g id="xtick_4">
     <g id="line2d_4">
      <g>
       <use xlink:href="#m279261e4e4" x="331.933091" y="307.584" style="stroke: #000000; stroke-width: 0.8"/>
      </g>
     </g>
     <g id="text_4">
      <!-- $\mathdefault{7.343}$ -->
      <g transform="translate(313.045773 327.0373) scale(0.18 -0.18)">
       <use xlink:href="#CMR17-37" transform="scale(0.996264)"/>
       <use xlink:href="#CMMI12-3a" transform="translate(45.690477 0) scale(0.996264)"/>
       <use xlink:href="#CMR17-33" transform="translate(72.787654 0) scale(0.996264)"/>
       <use xlink:href="#CMR17-34" transform="translate(118.478131 0) scale(0.996264)"/>
       <use xlink:href="#CMR17-33" transform="translate(164.168608 0) scale(0.996264)"/>
      </g>
     </g>
    </g>
    <g id="xtick_5">
     <g id="line2d_5">
      <g>
       <use xlink:href="#m279261e4e4" x="413.096727" y="307.584" style="stroke: #000000; stroke-width: 0.8"/>
      </g>
     </g>
     <g id="text_5">
      <!-- $\mathdefault{7.344}$ -->
      <g transform="translate(394.20941 327.0373) scale(0.18 -0.18)">
       <use xlink:href="#CMR17-37" transform="scale(0.996264)"/>
       <use xlink:href="#CMMI12-3a" transform="translate(45.690477 0) scale(0.996264)"/>
       <use xlink:href="#CMR17-33" transform="translate(72.787654 0) scale(0.996264)"/>
       <use xlink:href="#CMR17-34" transform="translate(118.478131 0) scale(0.996264)"/>
       <use xlink:href="#CMR17-34" transform="translate(164.168608 0) scale(0.996264)"/>
      </g>
     </g>
    </g>
    <g id="text_6">
     <!-- Frequency [Hz] -->
     <g transform="translate(182.460008 347.958784) scale(0.18 -0.18)">
      <defs>
       <path id="CMR17-46" d="M 3482 4339 
L 326 4339 
L 326 4172 
C 768 4172 838 4172 838 3883 
L 838 450 
C 838 166 768 166 326 166 
L 326 0 
C 512 12 870 12 1069 12 
C 1331 12 1638 12 1901 0 
L 1901 166 
L 1760 166 
C 1274 166 1261 229 1261 456 
L 1261 2073 
L 1837 2073 
C 2432 2073 2490 1865 2490 1334 
L 2605 1334 
L 2605 2991 
L 2490 2991 
C 2490 2451 2432 2240 1837 2240 
L 1261 2240 
L 1261 3922 
C 1261 4140 1274 4172 1530 4172 
L 2355 4172 
C 3322 4172 3430 3774 3520 2920 
L 3635 2920 
L 3482 4339 
z
" transform="scale(0.015625)"/>
       <path id="CMR17-72" d="M 960 1517 
C 960 2134 1222 2713 1702 2713 
C 1747 2713 1792 2707 1837 2687 
C 1837 2687 1696 2642 1696 2475 
C 1696 2321 1818 2257 1914 2257 
C 1990 2257 2131 2302 2131 2482 
C 2131 2687 1926 2816 1709 2816 
C 1222 2816 1011 2340 947 2115 
L 941 2115 
L 941 2816 
L 198 2745 
L 198 2578 
C 576 2578 634 2540 634 2231 
L 634 443 
C 634 198 608 166 198 166 
L 198 0 
C 352 12 646 12 813 12 
C 998 12 1325 12 1498 0 
L 1498 166 
C 1037 166 960 166 960 455 
L 960 1517 
z
" transform="scale(0.015625)"/>
       <path id="CMR17-65" d="M 2438 1503 
C 2464 1529 2464 1542 2464 1606 
C 2464 2251 2118 2816 1389 2816 
C 710 2816 173 2175 173 1394 
C 173 554 781 -64 1459 -64 
C 2176 -64 2458 619 2458 755 
C 2458 800 2419 800 2406 800 
C 2362 800 2355 787 2330 709 
C 2189 270 1837 51 1504 51 
C 1229 51 954 206 781 490 
C 582 819 582 1200 582 1503 
L 2438 1503 
z
M 589 1600 
C 634 2511 1126 2713 1382 2713 
C 1818 2713 2112 2308 2118 1600 
L 589 1600 
z
" transform="scale(0.015625)"/>
       <path id="CMR17-71" d="M 2630 2816 
L 2528 2816 
L 2336 2177 
C 2189 2519 1920 2816 1491 2816 
C 838 2816 211 2228 211 1376 
C 211 529 800 -64 1440 -64 
C 1933 -64 2208 316 2291 458 
L 2291 -834 
C 2291 -1081 2266 -1114 1856 -1114 
L 1856 -1280 
C 2010 -1268 2291 -1268 2458 -1268 
C 2624 -1268 2912 -1268 3066 -1280 
L 3066 -1114 
C 2656 -1114 2630 -1088 2630 -834 
L 2630 2816 
z
M 2304 871 
C 2304 594 2074 335 2054 316 
C 1856 90 1626 38 1472 38 
C 992 38 621 652 621 1369 
C 621 2125 1043 2700 1536 2700 
C 2048 2700 2304 2112 2304 1776 
L 2304 871 
z
" transform="scale(0.015625)"/>
       <path id="CMR17-75" d="M 1882 2745 
L 1882 2579 
C 2259 2579 2317 2540 2317 2229 
L 2317 1053 
C 2317 510 2029 38 1555 38 
C 1030 38 986 355 986 691 
L 986 2816 
L 211 2745 
L 211 2579 
C 467 2579 640 2579 646 2320 
L 646 1079 
C 646 646 646 368 813 187 
C 896 103 1056 -64 1517 -64 
C 2061 -64 2272 400 2323 536 
L 2330 536 
L 2330 -64 
L 3091 -13 
L 3091 154 
C 2714 154 2656 193 2656 503 
L 2656 2816 
L 1882 2745 
z
" transform="scale(0.015625)"/>
       <path id="CMR17-6e" d="M 2656 1954 
C 2656 2282 2592 2816 1837 2816 
C 1331 2816 1069 2424 973 2166 
L 966 2166 
L 966 2816 
L 211 2745 
L 211 2578 
C 589 2578 646 2540 646 2231 
L 646 443 
C 646 198 621 166 211 166 
L 211 0 
C 365 12 646 12 813 12 
C 979 12 1267 12 1421 0 
L 1421 166 
C 1011 166 986 192 986 443 
L 986 1678 
C 986 2269 1344 2713 1792 2713 
C 2266 2713 2317 2289 2317 1980 
L 2317 443 
C 2317 198 2291 166 1882 166 
L 1882 0 
C 2035 12 2317 12 2483 12 
C 2650 12 2938 12 3091 0 
L 3091 166 
C 2682 166 2656 192 2656 443 
L 2656 1954 
z
" transform="scale(0.015625)"/>
       <path id="CMR17-63" d="M 2234 2240 
C 2112 2240 1933 2240 1933 2015 
C 1933 1836 2080 1785 2163 1785 
C 2208 1785 2394 1804 2394 2028 
C 2394 2476 1958 2816 1466 2816 
C 787 2816 211 2201 211 1379 
C 211 521 813 -64 1466 -64 
C 2259 -64 2458 676 2458 747 
C 2458 773 2451 792 2406 792 
C 2362 792 2355 786 2330 702 
C 2163 180 1798 51 1523 51 
C 1114 51 621 431 621 1385 
C 621 2358 1094 2700 1472 2700 
C 1722 2700 2093 2582 2234 2240 
z
" transform="scale(0.015625)"/>
       <path id="CMR17-79" d="M 2496 2183 
C 2656 2579 2944 2585 3034 2585 
L 3034 2752 
C 2912 2745 2752 2739 2630 2739 
C 2496 2739 2285 2739 2157 2752 
L 2157 2585 
C 2400 2566 2406 2384 2406 2332 
C 2406 2268 2394 2235 2362 2158 
L 1664 409 
L 902 2300 
C 870 2378 870 2423 870 2430 
C 870 2572 1018 2585 1171 2585 
L 1171 2752 
C 1018 2739 742 2739 582 2739 
C 410 2739 205 2739 64 2752 
L 64 2585 
C 410 2585 448 2553 531 2345 
L 1485 -31 
C 1197 -795 1030 -1242 627 -1242 
C 557 -1242 397 -1223 282 -1106 
C 429 -1093 493 -1002 493 -892 
C 493 -782 416 -685 288 -685 
C 147 -685 77 -782 77 -899 
C 77 -1158 339 -1344 627 -1344 
C 998 -1344 1229 -983 1357 -659 
L 2496 2183 
z
" transform="scale(0.015625)"/>
       <path id="CMR17-5b" d="M 1504 -1600 
L 1504 -1376 
L 902 -1376 
L 902 4575 
L 1504 4575 
L 1504 4800 
L 678 4800 
L 678 -1600 
L 1504 -1600 
z
" transform="scale(0.015625)"/>
       <path id="CMR17-48" d="M 3590 3898 
C 3590 4185 3661 4185 4102 4185 
L 4102 4352 
C 3917 4339 3578 4339 3379 4339 
C 3181 4339 2842 4339 2656 4352 
L 2656 4185 
C 3098 4185 3168 4185 3168 3898 
L 3168 2342 
L 1261 2342 
L 1261 3898 
C 1261 4185 1331 4185 1773 4185 
L 1773 4352 
C 1587 4339 1248 4339 1050 4339 
C 851 4339 512 4339 326 4352 
L 326 4185 
C 768 4185 838 4185 838 3898 
L 838 452 
C 838 166 768 166 326 166 
L 326 0 
C 512 12 851 12 1050 12 
C 1248 12 1587 12 1773 0 
L 1773 166 
C 1331 166 1261 166 1261 452 
L 1261 2176 
L 3168 2176 
L 3168 452 
C 3168 166 3098 166 2656 166 
L 2656 0 
C 2842 12 3181 12 3379 12 
C 3578 12 3917 12 4102 0 
L 4102 166 
C 3661 166 3590 166 3590 452 
L 3590 3898 
z
" transform="scale(0.015625)"/>
       <path id="CMR17-7a" d="M 2310 2604 
C 2362 2668 2362 2681 2362 2694 
C 2362 2752 2336 2752 2221 2752 
L 275 2752 
L 211 1760 
L 326 1760 
C 371 2380 442 2649 1178 2649 
L 1958 2649 
L 128 96 
C 128 6 134 0 269 0 
L 2291 0 
L 2381 1152 
L 2266 1152 
C 2214 441 2131 115 1350 115 
L 531 115 
L 2310 2604 
z
" transform="scale(0.015625)"/>
       <path id="CMR17-5d" d="M 915 4800 
L 90 4800 
L 90 4575 
L 691 4575 
L 691 -1376 
L 90 -1376 
L 90 -1600 
L 915 -1600 
L 915 4800 
z
" transform="scale(0.015625)"/>
      </defs>
      <use xlink:href="#CMR17-46" transform="scale(0.996264)"/>
      <use xlink:href="#CMR17-72" transform="translate(52.176591 0) scale(0.996264)"/>
      <use xlink:href="#CMR17-65" transform="translate(87.457359 0) scale(0.996264)"/>
      <use xlink:href="#CMR17-71" transform="translate(127.943019 0) scale(0.996264)"/>
      <use xlink:href="#CMR17-75" transform="translate(176.235935 0) scale(0.996264)"/>
      <use xlink:href="#CMR17-65" transform="translate(227.131305 0) scale(0.996264)"/>
      <use xlink:href="#CMR17-6e" transform="translate(267.616966 0) scale(0.996264)"/>
      <use xlink:href="#CMR17-63" transform="translate(318.512335 0) scale(0.996264)"/>
      <use xlink:href="#CMR17-79" transform="translate(358.997996 0) scale(0.996264)"/>
      <use xlink:href="#CMR17-5b" transform="translate(437.366878 0) scale(0.996264)"/>
      <use xlink:href="#CMR17-48" transform="translate(462.237936 0) scale(0.996264)"/>
      <use xlink:href="#CMR17-7a" transform="translate(531.310366 0) scale(0.996264)"/>
      <use xlink:href="#CMR17-5d" transform="translate(571.796027 0) scale(0.996264)"/>
     </g>
    </g>
    <g id="text_7">
     <!-- $\times\mathdefault{10^{7}}\mathdefault{}$ -->
     <g transform="translate(378.178077 346.12898) scale(0.18 -0.18)">
      <defs>
       <path id="CMSY10-2" d="M 2490 1775 
L 1210 3046 
C 1133 3123 1120 3136 1069 3136 
C 1005 3136 941 3078 941 3008 
C 941 2963 954 2950 1024 2880 
L 2304 1596 
L 1024 313 
C 954 243 941 230 941 185 
C 941 115 1005 57 1069 57 
C 1120 57 1133 70 1210 147 
L 2483 1418 
L 3808 95 
C 3821 89 3866 57 3904 57 
C 3981 57 4032 115 4032 185 
C 4032 198 4032 223 4013 255 
C 4006 268 2989 1271 2669 1596 
L 3840 2765 
C 3872 2803 3968 2886 4000 2925 
C 4006 2937 4032 2963 4032 3008 
C 4032 3078 3981 3136 3904 3136 
C 3853 3136 3827 3110 3757 3040 
L 2490 1775 
z
" transform="scale(0.015625)"/>
      </defs>
      <use xlink:href="#CMSY10-2" transform="scale(0.996264)"/>
      <use xlink:href="#CMR17-31" transform="translate(77.487468 0) scale(0.996264)"/>
      <use xlink:href="#CMR17-30" transform="translate(123.177945 0) scale(0.996264)"/>
      <use xlink:href="#CMR17-37" transform="translate(168.868422 36.153639) scale(0.697382)"/>
     </g>
    </g>
   </g>
   <g id="matplotlib.axis_2">
    <g id="ytick_1">
     <g id="line2d_6">
      <defs>
       <path id="m6eb8a59279" d="M 0 0 
L -3.5 0 
" style="stroke: #000000; stroke-width: 0.8"/>
      </defs>
      <g>
       <use xlink:href="#m6eb8a59279" x="57.6" y="295.488" style="stroke: #000000; stroke-width: 0.8"/>
      </g>
     </g>
     <g id="text_8">
      <!-- $\mathdefault{0.0}$ -->
      <g transform="translate(29.273936 301.71465) scale(0.18 -0.18)">
       <use xlink:href="#CMR17-30" transform="scale(0.996264)"/>
       <use xlink:href="#CMMI12-3a" transform="translate(45.690477 0) scale(0.996264)"/>
       <use xlink:href="#CMR17-30" transform="translate(72.787654 0) scale(0.996264)"/>
      </g>
     </g>
    </g>
    <g id="ytick_2">
     <g id="line2d_7">
      <g>
       <use xlink:href="#m6eb8a59279" x="57.6" y="243.946014" style="stroke: #000000; stroke-width: 0.8"/>
      </g>
     </g>
     <g id="text_9">
      <!-- $\mathdefault{0.2}$ -->
      <g transform="translate(29.273936 250.172664) scale(0.18 -0.18)">
       <use xlink:href="#CMR17-30" transform="scale(0.996264)"/>
       <use xlink:href="#CMMI12-3a" transform="translate(45.690477 0) scale(0.996264)"/>
       <use xlink:href="#CMR17-32" transform="translate(72.787654 0) scale(0.996264)"/>
      </g>
     </g>
    </g>
    <g id="ytick_3">
     <g id="line2d_8">
      <g>
       <use xlink:href="#m6eb8a59279" x="57.6" y="192.404028" style="stroke: #000000; stroke-width: 0.8"/>
      </g>
     </g>
     <g id="text_10">
      <!-- $\mathdefault{0.4}$ -->
      <g transform="translate(29.273936 198.630678) scale(0.18 -0.18)">
       <use xlink:href="#CMR17-30" transform="scale(0.996264)"/>
       <use xlink:href="#CMMI12-3a" transform="translate(45.690477 0) scale(0.996264)"/>
       <use xlink:href="#CMR17-34" transform="translate(72.787654 0) scale(0.996264)"/>
      </g>
     </g>
    </g>
    <g id="ytick_4">
     <g id="line2d_9">
      <g>
       <use xlink:href="#m6eb8a59279" x="57.6" y="140.862042" style="stroke: #000000; stroke-width: 0.8"/>
      </g>
     </g>
     <g id="text_11">
      <!-- $\mathdefault{0.6}$ -->
      <g transform="translate(29.273936 147.088692) scale(0.18 -0.18)">
       <defs>
        <path id="CMR17-36" d="M 678 2198 
C 678 3712 1395 4076 1811 4076 
C 1946 4076 2272 4049 2400 3782 
C 2298 3782 2106 3782 2106 3558 
C 2106 3385 2246 3328 2336 3328 
C 2394 3328 2566 3353 2566 3571 
C 2566 3987 2246 4224 1805 4224 
C 1043 4224 243 3411 243 2011 
C 243 257 966 -128 1478 -128 
C 2099 -128 2688 431 2688 1295 
C 2688 2101 2170 2688 1517 2688 
C 1126 2688 838 2430 678 1979 
L 678 2198 
z
M 1478 25 
C 691 25 691 1212 691 1450 
C 691 1914 909 2585 1504 2585 
C 1613 2585 1926 2585 2138 2140 
C 2253 1889 2253 1624 2253 1302 
C 2253 954 2253 696 2118 438 
C 1978 173 1773 25 1478 25 
z
" transform="scale(0.015625)"/>
       </defs>
       <use xlink:href="#CMR17-30" transform="scale(0.996264)"/>
       <use xlink:href="#CMMI12-3a" transform="translate(45.690477 0) scale(0.996264)"/>
       <use xlink:href="#CMR17-36" transform="translate(72.787654 0) scale(0.996264)"/>
      </g>
     </g>
    </g>
    <g id="ytick_5">
     <g id="line2d_10">
      <g>
       <use xlink:href="#m6eb8a59279" x="57.6" y="89.320056" style="stroke: #000000; stroke-width: 0.8"/>
      </g>
     </g>
     <g id="text_12">
      <!-- $\mathdefault{0.8}$ -->
      <g transform="translate(29.273936 95.546706) scale(0.18 -0.18)">
       <defs>
        <path id="CMR17-38" d="M 1741 2289 
C 2144 2494 2554 2803 2554 3298 
C 2554 3884 1990 4224 1472 4224 
C 890 4224 378 3800 378 3215 
C 378 3054 416 2777 666 2533 
C 730 2469 998 2276 1171 2154 
C 883 2006 211 1652 211 945 
C 211 282 838 -128 1459 -128 
C 2144 -128 2720 366 2720 1022 
C 2720 1607 2330 1877 2074 2051 
L 1741 2289 
z
M 902 2855 
C 851 2887 595 3086 595 3388 
C 595 3781 998 4076 1459 4076 
C 1965 4076 2336 3716 2336 3298 
C 2336 2700 1670 2359 1638 2359 
C 1632 2359 1626 2359 1574 2398 
L 902 2855 
z
M 2080 1536 
C 2176 1466 2483 1253 2483 861 
C 2483 385 2010 25 1472 25 
C 890 25 448 443 448 951 
C 448 1459 838 1884 1280 2083 
L 2080 1536 
z
" transform="scale(0.015625)"/>
       </defs>
       <use xlink:href="#CMR17-30" transform="scale(0.996264)"/>
       <use xlink:href="#CMMI12-3a" transform="translate(45.690477 0) scale(0.996264)"/>
       <use xlink:href="#CMR17-38" transform="translate(72.787654 0) scale(0.996264)"/>
      </g>
     </g>
    </g>
    <g id="text_13">
     <!-- P(D$_{5/2})$ -->
     <g transform="translate(18.897898 202.31419) rotate(-90) scale(0.18 -0.18)">
      <defs>
       <path id="CMR17-50" d="M 1267 2048 
L 2291 2048 
C 3117 2048 3718 2583 3718 3187 
C 3718 3791 3130 4352 2291 4352 
L 333 4352 
L 333 4185 
C 774 4185 845 4185 845 3899 
L 845 453 
C 845 166 774 166 333 166 
L 333 0 
C 518 12 858 12 1056 12 
C 1254 12 1594 12 1779 0 
L 1779 166 
C 1338 166 1267 166 1267 453 
L 1267 2048 
z
M 1254 2182 
L 1254 3937 
C 1254 4153 1267 4185 1523 4185 
L 2170 4185 
C 2995 4185 3232 3715 3232 3187 
C 3232 2608 2950 2182 2170 2182 
L 1254 2182 
z
" transform="scale(0.015625)"/>
       <path id="CMR17-28" d="M 1958 -1562 
C 1958 -1556 1958 -1543 1939 -1524 
C 1645 -1223 858 -403 858 1596 
C 858 3595 1632 4408 1946 4729 
C 1946 4735 1958 4748 1958 4767 
C 1958 4787 1939 4800 1914 4800 
C 1843 4800 1299 4325 986 3620 
C 666 2909 576 2218 576 1603 
C 576 1141 621 360 1005 -467 
C 1312 -1133 1837 -1600 1914 -1600 
C 1946 -1600 1958 -1588 1958 -1562 
z
" transform="scale(0.015625)"/>
       <path id="CMR17-44" d="M 333 4352 
L 333 4185 
C 774 4185 845 4185 845 3898 
L 845 453 
C 845 166 774 166 333 166 
L 333 0 
L 2368 0 
C 3398 0 4224 943 4224 2140 
C 4224 3344 3411 4352 2368 4352 
L 333 4352 
z
M 1523 166 
C 1267 166 1254 198 1254 414 
L 1254 3936 
C 1254 4153 1267 4185 1523 4185 
L 2240 4185 
C 2771 4185 3750 3873 3750 2140 
C 3750 1242 3488 879 3366 707 
C 3213 510 2848 166 2240 166 
L 1523 166 
z
" transform="scale(0.015625)"/>
       <path id="CMR17-35" d="M 730 3750 
C 794 3724 1056 3641 1325 3641 
C 1920 3641 2246 3961 2432 4140 
C 2432 4191 2432 4224 2394 4224 
C 2387 4224 2374 4224 2323 4198 
C 2099 4102 1837 4032 1517 4032 
C 1325 4032 1037 4055 723 4191 
C 653 4224 640 4224 634 4224 
C 602 4224 595 4217 595 4090 
L 595 2231 
C 595 2113 595 2080 659 2080 
C 691 2080 704 2093 736 2139 
C 941 2435 1222 2560 1542 2560 
C 1766 2560 2246 2415 2246 1293 
C 2246 1087 2246 716 2054 422 
C 1894 159 1645 25 1370 25 
C 947 25 518 319 403 812 
C 429 806 480 793 506 793 
C 589 793 749 838 749 1036 
C 749 1209 627 1280 506 1280 
C 358 1280 262 1190 262 1011 
C 262 454 704 -128 1382 -128 
C 2042 -128 2669 441 2669 1267 
C 2669 2054 2170 2662 1549 2662 
C 1222 2662 947 2540 730 2304 
L 730 3750 
z
" transform="scale(0.015625)"/>
       <path id="CMMI12-3d" d="M 2746 4563 
C 2746 4569 2784 4665 2784 4678 
C 2784 4755 2720 4800 2669 4800 
C 2637 4800 2579 4800 2528 4659 
L 384 -1364 
C 384 -1370 346 -1466 346 -1479 
C 346 -1556 410 -1600 461 -1600 
C 499 -1600 557 -1594 602 -1460 
L 2746 4563 
z
" transform="scale(0.015625)"/>
       <path id="CMR17-29" d="M 1683 1596 
C 1683 2057 1638 2839 1254 3665 
C 947 4332 422 4800 346 4800 
C 326 4800 301 4793 301 4761 
C 301 4748 307 4742 314 4729 
C 621 4408 1402 3595 1402 1603 
C 1402 -396 627 -1210 314 -1530 
C 307 -1543 301 -1549 301 -1562 
C 301 -1594 326 -1600 346 -1600 
C 416 -1600 960 -1127 1274 -422 
C 1594 289 1683 981 1683 1596 
z
" transform="scale(0.015625)"/>
      </defs>
      <use xlink:href="#CMR17-50" transform="scale(0.996264)"/>
      <use xlink:href="#CMR17-28" transform="translate(62.586301 0) scale(0.996264)"/>
      <use xlink:href="#CMR17-44" transform="translate(97.867068 0) scale(0.996264)"/>
      <use xlink:href="#CMR17-35" transform="translate(168.260624 -17.987904) scale(0.697382)"/>
      <use xlink:href="#CMMI12-3d" transform="translate(200.243806 -17.987904) scale(0.697382)"/>
      <use xlink:href="#CMR17-32" transform="translate(234.386097 -17.987904) scale(0.697382)"/>
      <use xlink:href="#CMR17-29" transform="translate(266.867411 0) scale(0.996264)"/>
     </g>
    </g>
   </g>
   <g id="LineCollection_1">
    <path d="M 73.832727 295.488 
L 73.832727 295.488 
" clip-path="url(#pe86b2b0c9c)" style="fill: none; stroke: #776bcd; stroke-width: 1.5"/>
    <path d="M 80.45833 295.488 
L 80.45833 295.488 
" clip-path="url(#pe86b2b0c9c)" style="fill: none; stroke: #776bcd; stroke-width: 1.5"/>
    <path d="M 87.083933 295.452057 
L 87.083933 286.933612 
" clip-path="url(#pe86b2b0c9c)" style="fill: none; stroke: #776bcd; stroke-width: 1.5"/>
    <path d="M 93.709536 295.488 
L 93.709536 295.488 
" clip-path="url(#pe86b2b0c9c)" style="fill: none; stroke: #776bcd; stroke-width: 1.5"/>
    <path d="M 100.335139 283.207572 
L 100.335139 264.816772 
" clip-path="url(#pe86b2b0c9c)" style="fill: none; stroke: #776bcd; stroke-width: 1.5"/>
    <path d="M 106.960742 292.869854 
L 106.960742 280.925484 
" clip-path="url(#pe86b2b0c9c)" style="fill: none; stroke: #776bcd; stroke-width: 1.5"/>
    <path d="M 113.586345 292.869854 
L 113.586345 280.925484 
" clip-path="url(#pe86b2b0c9c)" style="fill: none; stroke: #776bcd; stroke-width: 1.5"/>
    <path d="M 120.211948 295.452057 
L 120.211948 286.933612 
" clip-path="url(#pe86b2b0c9c)" style="fill: none; stroke: #776bcd; stroke-width: 1.5"/>
    <path d="M 126.837551 295.488 
L 126.837551 295.488 
" clip-path="url(#pe86b2b0c9c)" style="fill: none; stroke: #776bcd; stroke-width: 1.5"/>
    <path d="M 133.463154 295.488 
L 133.463154 295.488 
" clip-path="url(#pe86b2b0c9c)" style="fill: none; stroke: #776bcd; stroke-width: 1.5"/>
    <path d="M 140.088757 295.488 
L 140.088757 295.488 
" clip-path="url(#pe86b2b0c9c)" style="fill: none; stroke: #776bcd; stroke-width: 1.5"/>
    <path d="M 146.71436 295.488 
L 146.71436 295.488 
" clip-path="url(#pe86b2b0c9c)" style="fill: none; stroke: #776bcd; stroke-width: 1.5"/>
    <path d="M 153.339963 292.869854 
L 153.339963 280.925484 
" clip-path="url(#pe86b2b0c9c)" style="fill: none; stroke: #776bcd; stroke-width: 1.5"/>
    <path d="M 159.965566 286.606386 
L 159.965566 270.00829 
" clip-path="url(#pe86b2b0c9c)" style="fill: none; stroke: #776bcd; stroke-width: 1.5"/>
    <path d="M 166.591169 283.207572 
L 166.591169 264.816772 
" clip-path="url(#pe86b2b0c9c)" style="fill: none; stroke: #776bcd; stroke-width: 1.5"/>
    <path d="M 173.216772 289.853577 
L 173.216772 275.35143 
" clip-path="url(#pe86b2b0c9c)" style="fill: none; stroke: #776bcd; stroke-width: 1.5"/>
    <path d="M 179.842375 283.207572 
L 179.842375 264.816772 
" clip-path="url(#pe86b2b0c9c)" style="fill: none; stroke: #776bcd; stroke-width: 1.5"/>
    <path d="M 186.467978 283.207572 
L 186.467978 264.816772 
" clip-path="url(#pe86b2b0c9c)" style="fill: none; stroke: #776bcd; stroke-width: 1.5"/>
    <path d="M 193.093581 295.452057 
L 193.093581 286.933612 
" clip-path="url(#pe86b2b0c9c)" style="fill: none; stroke: #776bcd; stroke-width: 1.5"/>
    <path d="M 199.719184 295.452057 
L 199.719184 286.933612 
" clip-path="url(#pe86b2b0c9c)" style="fill: none; stroke: #776bcd; stroke-width: 1.5"/>
    <path d="M 206.344787 292.869854 
L 206.344787 280.925484 
" clip-path="url(#pe86b2b0c9c)" style="fill: none; stroke: #776bcd; stroke-width: 1.5"/>
    <path d="M 212.97039 268.711351 
L 212.97039 244.95167 
" clip-path="url(#pe86b2b0c9c)" style="fill: none; stroke: #776bcd; stroke-width: 1.5"/>
    <path d="M 219.595993 241.477992 
L 219.595993 212.052712 
" clip-path="url(#pe86b2b0c9c)" style="fill: none; stroke: #776bcd; stroke-width: 1.5"/>
    <path d="M 226.221596 196.070251 
L 226.221596 162.966811 
" clip-path="url(#pe86b2b0c9c)" style="fill: none; stroke: #776bcd; stroke-width: 1.5"/>
    <path d="M 232.847199 148.304438 
L 232.847199 116.238983 
" clip-path="url(#pe86b2b0c9c)" style="fill: none; stroke: #776bcd; stroke-width: 1.5"/>
    <path d="M 239.472801 78.52472 
L 239.472801 57.163737 
" clip-path="url(#pe86b2b0c9c)" style="fill: none; stroke: #776bcd; stroke-width: 1.5"/>
    <path d="M 246.098404 73.530125 
L 246.098404 53.568 
" clip-path="url(#pe86b2b0c9c)" style="fill: none; stroke: #776bcd; stroke-width: 1.5"/>
    <path d="M 252.724007 111.982108 
L 252.724007 83.838666 
" clip-path="url(#pe86b2b0c9c)" style="fill: none; stroke: #776bcd; stroke-width: 1.5"/>
    <path d="M 259.34961 121.213358 
L 259.34961 91.788078 
" clip-path="url(#pe86b2b0c9c)" style="fill: none; stroke: #776bcd; stroke-width: 1.5"/>
    <path d="M 265.975213 139.365107 
L 265.975213 107.997653 
" clip-path="url(#pe86b2b0c9c)" style="fill: none; stroke: #776bcd; stroke-width: 1.5"/>
    <path d="M 272.600816 204.511297 
L 272.600816 171.706428 
" clip-path="url(#pe86b2b0c9c)" style="fill: none; stroke: #776bcd; stroke-width: 1.5"/>
    <path d="M 279.226419 241.477992 
L 279.226419 212.052712 
" clip-path="url(#pe86b2b0c9c)" style="fill: none; stroke: #776bcd; stroke-width: 1.5"/>
    <path d="M 285.852022 289.853577 
L 285.852022 275.35143 
" clip-path="url(#pe86b2b0c9c)" style="fill: none; stroke: #776bcd; stroke-width: 1.5"/>
    <path d="M 292.477625 295.452057 
L 292.477625 286.933612 
" clip-path="url(#pe86b2b0c9c)" style="fill: none; stroke: #776bcd; stroke-width: 1.5"/>
    <path d="M 299.103228 295.488 
L 299.103228 295.488 
" clip-path="url(#pe86b2b0c9c)" style="fill: none; stroke: #776bcd; stroke-width: 1.5"/>
    <path d="M 305.728831 295.452057 
L 305.728831 286.933612 
" clip-path="url(#pe86b2b0c9c)" style="fill: none; stroke: #776bcd; stroke-width: 1.5"/>
    <path d="M 312.354434 286.606386 
L 312.354434 270.00829 
" clip-path="url(#pe86b2b0c9c)" style="fill: none; stroke: #776bcd; stroke-width: 1.5"/>
    <path d="M 318.980037 268.711351 
L 318.980037 244.95167 
" clip-path="url(#pe86b2b0c9c)" style="fill: none; stroke: #776bcd; stroke-width: 1.5"/>
    <path d="M 325.60564 283.207572 
L 325.60564 264.816772 
" clip-path="url(#pe86b2b0c9c)" style="fill: none; stroke: #776bcd; stroke-width: 1.5"/>
    <path d="M 332.231243 268.711351 
L 332.231243 244.95167 
" clip-path="url(#pe86b2b0c9c)" style="fill: none; stroke: #776bcd; stroke-width: 1.5"/>
    <path d="M 338.856846 286.606386 
L 338.856846 270.00829 
" clip-path="url(#pe86b2b0c9c)" style="fill: none; stroke: #776bcd; stroke-width: 1.5"/>
    <path d="M 345.482449 286.606386 
L 345.482449 270.00829 
" clip-path="url(#pe86b2b0c9c)" style="fill: none; stroke: #776bcd; stroke-width: 1.5"/>
    <path d="M 352.108052 292.869854 
L 352.108052 280.925484 
" clip-path="url(#pe86b2b0c9c)" style="fill: none; stroke: #776bcd; stroke-width: 1.5"/>
    <path d="M 358.733655 295.488 
L 358.733655 295.488 
" clip-path="url(#pe86b2b0c9c)" style="fill: none; stroke: #776bcd; stroke-width: 1.5"/>
    <path d="M 365.359258 295.488 
L 365.359258 295.488 
" clip-path="url(#pe86b2b0c9c)" style="fill: none; stroke: #776bcd; stroke-width: 1.5"/>
    <path d="M 371.984861 295.452057 
L 371.984861 286.933612 
" clip-path="url(#pe86b2b0c9c)" style="fill: none; stroke: #776bcd; stroke-width: 1.5"/>
    <path d="M 378.610464 289.853577 
L 378.610464 275.35143 
" clip-path="url(#pe86b2b0c9c)" style="fill: none; stroke: #776bcd; stroke-width: 1.5"/>
    <path d="M 385.236067 292.869854 
L 385.236067 280.925484 
" clip-path="url(#pe86b2b0c9c)" style="fill: none; stroke: #776bcd; stroke-width: 1.5"/>
    <path d="M 391.86167 292.869854 
L 391.86167 280.925484 
" clip-path="url(#pe86b2b0c9c)" style="fill: none; stroke: #776bcd; stroke-width: 1.5"/>
    <path d="M 398.487273 295.488 
L 398.487273 295.488 
" clip-path="url(#pe86b2b0c9c)" style="fill: none; stroke: #776bcd; stroke-width: 1.5"/>
   </g>
   <g id="line2d_11">
    <defs>
     <path id="mc2bfa2c09f" d="M 5 0 
L -5 -0 
" style="stroke: #776bcd"/>
    </defs>
    <g clip-path="url(#pe86b2b0c9c)">
     <use xlink:href="#mc2bfa2c09f" x="73.832727" y="295.488" style="fill: #776bcd; stroke: #776bcd"/>
     <use xlink:href="#mc2bfa2c09f" x="80.45833" y="295.488" style="fill: #776bcd; stroke: #776bcd"/>
     <use xlink:href="#mc2bfa2c09f" x="87.083933" y="295.452057" style="fill: #776bcd; stroke: #776bcd"/>
     <use xlink:href="#mc2bfa2c09f" x="93.709536" y="295.488" style="fill: #776bcd; stroke: #776bcd"/>
     <use xlink:href="#mc2bfa2c09f" x="100.335139" y="283.207572" style="fill: #776bcd; stroke: #776bcd"/>
     <use xlink:href="#mc2bfa2c09f" x="106.960742" y="292.869854" style="fill: #776bcd; stroke: #776bcd"/>
     <use xlink:href="#mc2bfa2c09f" x="113.586345" y="292.869854" style="fill: #776bcd; stroke: #776bcd"/>
     <use xlink:href="#mc2bfa2c09f" x="120.211948" y="295.452057" style="fill: #776bcd; stroke: #776bcd"/>
     <use xlink:href="#mc2bfa2c09f" x="126.837551" y="295.488" style="fill: #776bcd; stroke: #776bcd"/>
     <use xlink:href="#mc2bfa2c09f" x="133.463154" y="295.488" style="fill: #776bcd; stroke: #776bcd"/>
     <use xlink:href="#mc2bfa2c09f" x="140.088757" y="295.488" style="fill: #776bcd; stroke: #776bcd"/>
     <use xlink:href="#mc2bfa2c09f" x="146.71436" y="295.488" style="fill: #776bcd; stroke: #776bcd"/>
     <use xlink:href="#mc2bfa2c09f" x="153.339963" y="292.869854" style="fill: #776bcd; stroke: #776bcd"/>
     <use xlink:href="#mc2bfa2c09f" x="159.965566" y="286.606386" style="fill: #776bcd; stroke: #776bcd"/>
     <use xlink:href="#mc2bfa2c09f" x="166.591169" y="283.207572" style="fill: #776bcd; stroke: #776bcd"/>
     <use xlink:href="#mc2bfa2c09f" x="173.216772" y="289.853577" style="fill: #776bcd; stroke: #776bcd"/>
     <use xlink:href="#mc2bfa2c09f" x="179.842375" y="283.207572" style="fill: #776bcd; stroke: #776bcd"/>
     <use xlink:href="#mc2bfa2c09f" x="186.467978" y="283.207572" style="fill: #776bcd; stroke: #776bcd"/>
     <use xlink:href="#mc2bfa2c09f" x="193.093581" y="295.452057" style="fill: #776bcd; stroke: #776bcd"/>
     <use xlink:href="#mc2bfa2c09f" x="199.719184" y="295.452057" style="fill: #776bcd; stroke: #776bcd"/>
     <use xlink:href="#mc2bfa2c09f" x="206.344787" y="292.869854" style="fill: #776bcd; stroke: #776bcd"/>
     <use xlink:href="#mc2bfa2c09f" x="212.97039" y="268.711351" style="fill: #776bcd; stroke: #776bcd"/>
     <use xlink:href="#mc2bfa2c09f" x="219.595993" y="241.477992" style="fill: #776bcd; stroke: #776bcd"/>
     <use xlink:href="#mc2bfa2c09f" x="226.221596" y="196.070251" style="fill: #776bcd; stroke: #776bcd"/>
     <use xlink:href="#mc2bfa2c09f" x="232.847199" y="148.304438" style="fill: #776bcd; stroke: #776bcd"/>
     <use xlink:href="#mc2bfa2c09f" x="239.472801" y="78.52472" style="fill: #776bcd; stroke: #776bcd"/>
     <use xlink:href="#mc2bfa2c09f" x="246.098404" y="73.530125" style="fill: #776bcd; stroke: #776bcd"/>
     <use xlink:href="#mc2bfa2c09f" x="252.724007" y="111.982108" style="fill: #776bcd; stroke: #776bcd"/>
     <use xlink:href="#mc2bfa2c09f" x="259.34961" y="121.213358" style="fill: #776bcd; stroke: #776bcd"/>
     <use xlink:href="#mc2bfa2c09f" x="265.975213" y="139.365107" style="fill: #776bcd; stroke: #776bcd"/>
     <use xlink:href="#mc2bfa2c09f" x="272.600816" y="204.511297" style="fill: #776bcd; stroke: #776bcd"/>
     <use xlink:href="#mc2bfa2c09f" x="279.226419" y="241.477992" style="fill: #776bcd; stroke: #776bcd"/>
     <use xlink:href="#mc2bfa2c09f" x="285.852022" y="289.853577" style="fill: #776bcd; stroke: #776bcd"/>
     <use xlink:href="#mc2bfa2c09f" x="292.477625" y="295.452057" style="fill: #776bcd; stroke: #776bcd"/>
     <use xlink:href="#mc2bfa2c09f" x="299.103228" y="295.488" style="fill: #776bcd; stroke: #776bcd"/>
     <use xlink:href="#mc2bfa2c09f" x="305.728831" y="295.452057" style="fill: #776bcd; stroke: #776bcd"/>
     <use xlink:href="#mc2bfa2c09f" x="312.354434" y="286.606386" style="fill: #776bcd; stroke: #776bcd"/>
     <use xlink:href="#mc2bfa2c09f" x="318.980037" y="268.711351" style="fill: #776bcd; stroke: #776bcd"/>
     <use xlink:href="#mc2bfa2c09f" x="325.60564" y="283.207572" style="fill: #776bcd; stroke: #776bcd"/>
     <use xlink:href="#mc2bfa2c09f" x="332.231243" y="268.711351" style="fill: #776bcd; stroke: #776bcd"/>
     <use xlink:href="#mc2bfa2c09f" x="338.856846" y="286.606386" style="fill: #776bcd; stroke: #776bcd"/>
     <use xlink:href="#mc2bfa2c09f" x="345.482449" y="286.606386" style="fill: #776bcd; stroke: #776bcd"/>
     <use xlink:href="#mc2bfa2c09f" x="352.108052" y="292.869854" style="fill: #776bcd; stroke: #776bcd"/>
     <use xlink:href="#mc2bfa2c09f" x="358.733655" y="295.488" style="fill: #776bcd; stroke: #776bcd"/>
     <use xlink:href="#mc2bfa2c09f" x="365.359258" y="295.488" style="fill: #776bcd; stroke: #776bcd"/>
     <use xlink:href="#mc2bfa2c09f" x="371.984861" y="295.452057" style="fill: #776bcd; stroke: #776bcd"/>
     <use xlink:href="#mc2bfa2c09f" x="378.610464" y="289.853577" style="fill: #776bcd; stroke: #776bcd"/>
     <use xlink:href="#mc2bfa2c09f" x="385.236067" y="292.869854" style="fill: #776bcd; stroke: #776bcd"/>
     <use xlink:href="#mc2bfa2c09f" x="391.86167" y="292.869854" style="fill: #776bcd; stroke: #776bcd"/>
     <use xlink:href="#mc2bfa2c09f" x="398.487273" y="295.488" style="fill: #776bcd; stroke: #776bcd"/>
    </g>
   </g>
   <g id="line2d_12">
    <g clip-path="url(#pe86b2b0c9c)">
     <use xlink:href="#mc2bfa2c09f" x="73.832727" y="295.488" style="fill: #776bcd; stroke: #776bcd"/>
     <use xlink:href="#mc2bfa2c09f" x="80.45833" y="295.488" style="fill: #776bcd; stroke: #776bcd"/>
     <use xlink:href="#mc2bfa2c09f" x="87.083933" y="286.933612" style="fill: #776bcd; stroke: #776bcd"/>
     <use xlink:href="#mc2bfa2c09f" x="93.709536" y="295.488" style="fill: #776bcd; stroke: #776bcd"/>
     <use xlink:href="#mc2bfa2c09f" x="100.335139" y="264.816772" style="fill: #776bcd; stroke: #776bcd"/>
     <use xlink:href="#mc2bfa2c09f" x="106.960742" y="280.925484" style="fill: #776bcd; stroke: #776bcd"/>
     <use xlink:href="#mc2bfa2c09f" x="113.586345" y="280.925484" style="fill: #776bcd; stroke: #776bcd"/>
     <use xlink:href="#mc2bfa2c09f" x="120.211948" y="286.933612" style="fill: #776bcd; stroke: #776bcd"/>
     <use xlink:href="#mc2bfa2c09f" x="126.837551" y="295.488" style="fill: #776bcd; stroke: #776bcd"/>
     <use xlink:href="#mc2bfa2c09f" x="133.463154" y="295.488" style="fill: #776bcd; stroke: #776bcd"/>
     <use xlink:href="#mc2bfa2c09f" x="140.088757" y="295.488" style="fill: #776bcd; stroke: #776bcd"/>
     <use xlink:href="#mc2bfa2c09f" x="146.71436" y="295.488" style="fill: #776bcd; stroke: #776bcd"/>
     <use xlink:href="#mc2bfa2c09f" x="153.339963" y="280.925484" style="fill: #776bcd; stroke: #776bcd"/>
     <use xlink:href="#mc2bfa2c09f" x="159.965566" y="270.00829" style="fill: #776bcd; stroke: #776bcd"/>
     <use xlink:href="#mc2bfa2c09f" x="166.591169" y="264.816772" style="fill: #776bcd; stroke: #776bcd"/>
     <use xlink:href="#mc2bfa2c09f" x="173.216772" y="275.35143" style="fill: #776bcd; stroke: #776bcd"/>
     <use xlink:href="#mc2bfa2c09f" x="179.842375" y="264.816772" style="fill: #776bcd; stroke: #776bcd"/>
     <use xlink:href="#mc2bfa2c09f" x="186.467978" y="264.816772" style="fill: #776bcd; stroke: #776bcd"/>
     <use xlink:href="#mc2bfa2c09f" x="193.093581" y="286.933612" style="fill: #776bcd; stroke: #776bcd"/>
     <use xlink:href="#mc2bfa2c09f" x="199.719184" y="286.933612" style="fill: #776bcd; stroke: #776bcd"/>
     <use xlink:href="#mc2bfa2c09f" x="206.344787" y="280.925484" style="fill: #776bcd; stroke: #776bcd"/>
     <use xlink:href="#mc2bfa2c09f" x="212.97039" y="244.95167" style="fill: #776bcd; stroke: #776bcd"/>
     <use xlink:href="#mc2bfa2c09f" x="219.595993" y="212.052712" style="fill: #776bcd; stroke: #776bcd"/>
     <use xlink:href="#mc2bfa2c09f" x="226.221596" y="162.966811" style="fill: #776bcd; stroke: #776bcd"/>
     <use xlink:href="#mc2bfa2c09f" x="232.847199" y="116.238983" style="fill: #776bcd; stroke: #776bcd"/>
     <use xlink:href="#mc2bfa2c09f" x="239.472801" y="57.163737" style="fill: #776bcd; stroke: #776bcd"/>
     <use xlink:href="#mc2bfa2c09f" x="246.098404" y="53.568" style="fill: #776bcd; stroke: #776bcd"/>
     <use xlink:href="#mc2bfa2c09f" x="252.724007" y="83.838666" style="fill: #776bcd; stroke: #776bcd"/>
     <use xlink:href="#mc2bfa2c09f" x="259.34961" y="91.788078" style="fill: #776bcd; stroke: #776bcd"/>
     <use xlink:href="#mc2bfa2c09f" x="265.975213" y="107.997653" style="fill: #776bcd; stroke: #776bcd"/>
     <use xlink:href="#mc2bfa2c09f" x="272.600816" y="171.706428" style="fill: #776bcd; stroke: #776bcd"/>
     <use xlink:href="#mc2bfa2c09f" x="279.226419" y="212.052712" style="fill: #776bcd; stroke: #776bcd"/>
     <use xlink:href="#mc2bfa2c09f" x="285.852022" y="275.35143" style="fill: #776bcd; stroke: #776bcd"/>
     <use xlink:href="#mc2bfa2c09f" x="292.477625" y="286.933612" style="fill: #776bcd; stroke: #776bcd"/>
     <use xlink:href="#mc2bfa2c09f" x="299.103228" y="295.488" style="fill: #776bcd; stroke: #776bcd"/>
     <use xlink:href="#mc2bfa2c09f" x="305.728831" y="286.933612" style="fill: #776bcd; stroke: #776bcd"/>
     <use xlink:href="#mc2bfa2c09f" x="312.354434" y="270.00829" style="fill: #776bcd; stroke: #776bcd"/>
     <use xlink:href="#mc2bfa2c09f" x="318.980037" y="244.95167" style="fill: #776bcd; stroke: #776bcd"/>
     <use xlink:href="#mc2bfa2c09f" x="325.60564" y="264.816772" style="fill: #776bcd; stroke: #776bcd"/>
     <use xlink:href="#mc2bfa2c09f" x="332.231243" y="244.95167" style="fill: #776bcd; stroke: #776bcd"/>
     <use xlink:href="#mc2bfa2c09f" x="338.856846" y="270.00829" style="fill: #776bcd; stroke: #776bcd"/>
     <use xlink:href="#mc2bfa2c09f" x="345.482449" y="270.00829" style="fill: #776bcd; stroke: #776bcd"/>
     <use xlink:href="#mc2bfa2c09f" x="352.108052" y="280.925484" style="fill: #776bcd; stroke: #776bcd"/>
     <use xlink:href="#mc2bfa2c09f" x="358.733655" y="295.488" style="fill: #776bcd; stroke: #776bcd"/>
     <use xlink:href="#mc2bfa2c09f" x="365.359258" y="295.488" style="fill: #776bcd; stroke: #776bcd"/>
     <use xlink:href="#mc2bfa2c09f" x="371.984861" y="286.933612" style="fill: #776bcd; stroke: #776bcd"/>
     <use xlink:href="#mc2bfa2c09f" x="378.610464" y="275.35143" style="fill: #776bcd; stroke: #776bcd"/>
     <use xlink:href="#mc2bfa2c09f" x="385.236067" y="280.925484" style="fill: #776bcd; stroke: #776bcd"/>
     <use xlink:href="#mc2bfa2c09f" x="391.86167" y="280.925484" style="fill: #776bcd; stroke: #776bcd"/>
     <use xlink:href="#mc2bfa2c09f" x="398.487273" y="295.488" style="fill: #776bcd; stroke: #776bcd"/>
    </g>
   </g>
   <g id="line2d_13">
    <path d="M 73.832727 295.488 
L 174.2514 295.38288 
L 180.101032 295.15034 
L 184.000786 294.791041 
L 186.925602 294.320902 
L 189.525438 293.679202 
L 191.800295 292.874997 
L 193.750172 291.947571 
L 195.700049 290.741813 
L 197.324947 289.47786 
L 198.949844 287.933406 
L 200.574742 286.062063 
L 202.19964 283.813863 
L 203.824537 281.136017 
L 205.449435 277.973978 
L 207.074333 274.27282 
L 208.69923 269.978942 
L 210.324128 265.04209 
L 211.949025 259.41765 
L 213.573923 253.069177 
L 215.5238 244.460161 
L 217.473677 234.75443 
L 219.423554 223.968658 
L 221.698411 210.09884 
L 224.298247 192.765055 
L 227.548043 169.470446 
L 234.697592 117.467565 
L 236.972449 102.662656 
L 238.922326 91.366126 
L 240.547224 83.183297 
L 241.847142 77.565434 
L 243.14706 72.855592 
L 244.121998 69.958428 
L 245.096937 67.631261 
L 246.071876 65.892418 
L 246.721835 65.067031 
L 247.371794 64.51226 
L 248.021753 64.230071 
L 248.671712 64.221465 
L 249.321671 64.486472 
L 249.97163 65.024153 
L 250.621589 65.8326 
L 251.596527 67.54645 
L 252.571466 69.849294 
L 253.546405 72.722992 
L 254.846323 77.403177 
L 256.146241 82.993595 
L 257.771138 91.145717 
L 259.396036 100.43356 
L 261.345913 112.816158 
L 263.945749 130.863227 
L 268.820442 166.776097 
L 272.720197 194.726098 
L 275.320033 211.902158 
L 277.594889 225.60574 
L 279.869746 237.903791 
L 281.819623 247.266975 
L 283.7695 255.535631 
L 285.719378 262.737215 
L 287.344275 267.961358 
L 288.969173 272.522727 
L 290.59407 276.469474 
L 292.218968 279.854042 
L 293.843866 282.73102 
L 295.468763 285.155303 
L 297.093661 287.180576 
L 298.718559 288.858117 
L 300.343456 290.235909 
L 301.968354 291.358044 
L 303.918231 292.422933 
L 305.868108 293.237352 
L 308.142965 293.939284 
L 310.742801 294.495493 
L 313.992596 294.933861 
L 317.892351 295.223202 
L 323.741982 295.407247 
L 334.791286 295.481403 
L 398.487273 295.488 
L 398.487273 295.488 
" clip-path="url(#pe86b2b0c9c)" style="fill: none; stroke: #ffb400; stroke-width: 1.5; stroke-linecap: square"/>
   </g>
   <g id="line2d_14">
    <path d="M 73.832727 294.024058 
L 81.307256 294.876495 
L 86.506929 295.357921 
L 90.406683 295.487999 
L 93.981458 295.368572 
L 97.556233 295.00864 
L 101.455987 294.379846 
L 109.255495 292.804467 
L 113.480229 292.109332 
L 116.730025 291.801672 
L 119.65484 291.746399 
L 122.579656 291.918653 
L 125.504472 292.307527 
L 129.079247 293.017274 
L 139.153612 295.197269 
L 141.753448 295.451981 
L 144.028305 295.469953 
L 146.303161 295.266746 
L 148.578018 294.827224 
L 150.852875 294.151511 
L 153.127731 293.256322 
L 156.052547 291.838841 
L 160.277281 289.482529 
L 164.502015 287.17741 
L 167.101851 286.01063 
L 169.051728 285.349146 
L 171.001605 284.918913 
L 172.626503 284.761914 
L 174.2514 284.803059 
L 175.876298 285.049538 
L 177.501196 285.501152 
L 179.451073 286.301576 
L 181.40095 287.354182 
L 183.675807 288.834031 
L 191.475315 294.21813 
L 193.100213 294.959441 
L 194.400131 295.340089 
L 195.700049 295.487474 
L 196.999967 295.360439 
L 197.974906 295.060607 
L 198.949844 294.566828 
L 199.924783 293.862919 
L 200.899722 292.933391 
L 202.19964 291.317897 
L 203.499558 289.243542 
L 204.799476 286.682273 
L 206.099394 283.610441 
L 207.399312 280.009351 
L 209.02421 274.74412 
L 210.649107 268.618919 
L 212.274005 261.636494 
L 214.223882 252.154064 
L 216.173759 241.530443 
L 218.448616 227.828991 
L 221.048452 210.717255 
L 224.298247 187.770606 
L 232.747715 127.271153 
L 235.347551 110.765359 
L 237.297428 99.695774 
L 238.922326 91.513779 
L 240.547224 84.406508 
L 241.847142 79.564847 
L 243.14706 75.523506 
L 244.446978 72.320845 
L 245.421916 70.487908 
L 246.396855 69.153941 
L 247.046814 68.545498 
L 247.696773 68.163534 
L 248.346732 68.008965 
L 248.996691 68.082163 
L 249.64665 68.382952 
L 250.296609 68.91061 
L 250.946568 69.663868 
L 251.921507 71.21266 
L 252.896446 73.256517 
L 253.871384 75.784449 
L 255.171302 79.884246 
L 256.47122 84.78134 
L 258.096118 91.952891 
L 259.721016 100.192782 
L 261.670893 111.322359 
L 263.945749 125.728548 
L 266.870565 145.892017 
L 272.720197 188.441541 
L 276.294971 213.555976 
L 278.894808 230.44201 
L 281.169664 243.897891 
L 283.119541 254.284256 
L 285.069419 263.512579 
L 286.694316 270.275791 
L 288.319214 276.179542 
L 289.944111 281.225163 
L 291.244029 284.654465 
L 292.543948 287.559946 
L 293.843866 289.961947 
L 295.143784 291.885598 
L 296.443702 293.360237 
L 297.74362 294.418807 
L 298.718559 294.961197 
L 299.693497 295.30573 
L 300.668436 295.469012 
L 301.968354 295.434236 
L 303.268272 295.148529 
L 304.56819 294.653079 
L 306.193088 293.800825 
L 308.467944 292.310329 
L 315.942473 287.109649 
L 317.892351 286.107549 
L 319.842228 285.365779 
L 321.467125 284.966442 
L 323.092023 284.773039 
L 324.716921 284.783796 
L 326.341818 284.989755 
L 328.291695 285.472734 
L 330.241572 286.178437 
L 332.841409 287.388372 
L 336.416183 289.349833 
L 341.940835 292.385657 
L 344.540672 293.570992 
L 346.815528 294.397407 
L 349.090385 294.997022 
L 351.365242 295.358628 
L 353.640098 295.487273 
L 355.914955 295.402637 
L 358.514791 295.086067 
L 361.764586 294.452706 
L 372.488911 292.142349 
L 375.413726 291.829478 
L 378.338542 291.74051 
L 381.263358 291.876114 
L 384.513153 292.258668 
L 388.737887 293.014402 
L 398.487273 294.885515 
L 398.487273 294.885515 
" clip-path="url(#pe86b2b0c9c)" style="fill: none; stroke: #d2980d; stroke-width: 1.5; stroke-linecap: square"/>
   </g>
   <g id="line2d_15">
    <defs>
     <path id="m1327e048d0" d="M -2.5 2.5 
L 2.5 2.5 
L 2.5 -2.5 
L -2.5 -2.5 
z
" style="stroke: #776bcd; stroke-linejoin: miter"/>
    </defs>
    <g clip-path="url(#pe86b2b0c9c)">
     <use xlink:href="#m1327e048d0" x="73.832727" y="295.488" style="fill: #776bcd; stroke: #776bcd; stroke-linejoin: miter"/>
     <use xlink:href="#m1327e048d0" x="80.45833" y="295.488" style="fill: #776bcd; stroke: #776bcd; stroke-linejoin: miter"/>
     <use xlink:href="#m1327e048d0" x="87.083933" y="291.192834" style="fill: #776bcd; stroke: #776bcd; stroke-linejoin: miter"/>
     <use xlink:href="#m1327e048d0" x="93.709536" y="295.488" style="fill: #776bcd; stroke: #776bcd; stroke-linejoin: miter"/>
     <use xlink:href="#m1327e048d0" x="100.335139" y="274.012172" style="fill: #776bcd; stroke: #776bcd; stroke-linejoin: miter"/>
     <use xlink:href="#m1327e048d0" x="106.960742" y="286.897669" style="fill: #776bcd; stroke: #776bcd; stroke-linejoin: miter"/>
     <use xlink:href="#m1327e048d0" x="113.586345" y="286.897669" style="fill: #776bcd; stroke: #776bcd; stroke-linejoin: miter"/>
     <use xlink:href="#m1327e048d0" x="120.211948" y="291.192834" style="fill: #776bcd; stroke: #776bcd; stroke-linejoin: miter"/>
     <use xlink:href="#m1327e048d0" x="126.837551" y="295.488" style="fill: #776bcd; stroke: #776bcd; stroke-linejoin: miter"/>
     <use xlink:href="#m1327e048d0" x="133.463154" y="295.488" style="fill: #776bcd; stroke: #776bcd; stroke-linejoin: miter"/>
     <use xlink:href="#m1327e048d0" x="140.088757" y="295.488" style="fill: #776bcd; stroke: #776bcd; stroke-linejoin: miter"/>
     <use xlink:href="#m1327e048d0" x="146.71436" y="295.488" style="fill: #776bcd; stroke: #776bcd; stroke-linejoin: miter"/>
     <use xlink:href="#m1327e048d0" x="153.339963" y="286.897669" style="fill: #776bcd; stroke: #776bcd; stroke-linejoin: miter"/>
     <use xlink:href="#m1327e048d0" x="159.965566" y="278.307338" style="fill: #776bcd; stroke: #776bcd; stroke-linejoin: miter"/>
     <use xlink:href="#m1327e048d0" x="166.591169" y="274.012172" style="fill: #776bcd; stroke: #776bcd; stroke-linejoin: miter"/>
     <use xlink:href="#m1327e048d0" x="173.216772" y="282.602503" style="fill: #776bcd; stroke: #776bcd; stroke-linejoin: miter"/>
     <use xlink:href="#m1327e048d0" x="179.842375" y="274.012172" style="fill: #776bcd; stroke: #776bcd; stroke-linejoin: miter"/>
     <use xlink:href="#m1327e048d0" x="186.467978" y="274.012172" style="fill: #776bcd; stroke: #776bcd; stroke-linejoin: miter"/>
     <use xlink:href="#m1327e048d0" x="193.093581" y="291.192834" style="fill: #776bcd; stroke: #776bcd; stroke-linejoin: miter"/>
     <use xlink:href="#m1327e048d0" x="199.719184" y="291.192834" style="fill: #776bcd; stroke: #776bcd; stroke-linejoin: miter"/>
     <use xlink:href="#m1327e048d0" x="206.344787" y="286.897669" style="fill: #776bcd; stroke: #776bcd; stroke-linejoin: miter"/>
     <use xlink:href="#m1327e048d0" x="212.97039" y="256.83151" style="fill: #776bcd; stroke: #776bcd; stroke-linejoin: miter"/>
     <use xlink:href="#m1327e048d0" x="219.595993" y="226.765352" style="fill: #776bcd; stroke: #776bcd; stroke-linejoin: miter"/>
     <use xlink:href="#m1327e048d0" x="226.221596" y="179.518531" style="fill: #776bcd; stroke: #776bcd; stroke-linejoin: miter"/>
     <use xlink:href="#m1327e048d0" x="232.847199" y="132.271711" style="fill: #776bcd; stroke: #776bcd; stroke-linejoin: miter"/>
     <use xlink:href="#m1327e048d0" x="239.472801" y="67.844228" style="fill: #776bcd; stroke: #776bcd; stroke-linejoin: miter"/>
     <use xlink:href="#m1327e048d0" x="246.098404" y="63.549063" style="fill: #776bcd; stroke: #776bcd; stroke-linejoin: miter"/>
     <use xlink:href="#m1327e048d0" x="252.724007" y="97.910387" style="fill: #776bcd; stroke: #776bcd; stroke-linejoin: miter"/>
     <use xlink:href="#m1327e048d0" x="259.34961" y="106.500718" style="fill: #776bcd; stroke: #776bcd; stroke-linejoin: miter"/>
     <use xlink:href="#m1327e048d0" x="265.975213" y="123.68138" style="fill: #776bcd; stroke: #776bcd; stroke-linejoin: miter"/>
     <use xlink:href="#m1327e048d0" x="272.600816" y="188.108862" style="fill: #776bcd; stroke: #776bcd; stroke-linejoin: miter"/>
     <use xlink:href="#m1327e048d0" x="279.226419" y="226.765352" style="fill: #776bcd; stroke: #776bcd; stroke-linejoin: miter"/>
     <use xlink:href="#m1327e048d0" x="285.852022" y="282.602503" style="fill: #776bcd; stroke: #776bcd; stroke-linejoin: miter"/>
     <use xlink:href="#m1327e048d0" x="292.477625" y="291.192834" style="fill: #776bcd; stroke: #776bcd; stroke-linejoin: miter"/>
     <use xlink:href="#m1327e048d0" x="299.103228" y="295.488" style="fill: #776bcd; stroke: #776bcd; stroke-linejoin: miter"/>
     <use xlink:href="#m1327e048d0" x="305.728831" y="291.192834" style="fill: #776bcd; stroke: #776bcd; stroke-linejoin: miter"/>
     <use xlink:href="#m1327e048d0" x="312.354434" y="278.307338" style="fill: #776bcd; stroke: #776bcd; stroke-linejoin: miter"/>
     <use xlink:href="#m1327e048d0" x="318.980037" y="256.83151" style="fill: #776bcd; stroke: #776bcd; stroke-linejoin: miter"/>
     <use xlink:href="#m1327e048d0" x="325.60564" y="274.012172" style="fill: #776bcd; stroke: #776bcd; stroke-linejoin: miter"/>
     <use xlink:href="#m1327e048d0" x="332.231243" y="256.83151" style="fill: #776bcd; stroke: #776bcd; stroke-linejoin: miter"/>
     <use xlink:href="#m1327e048d0" x="338.856846" y="278.307338" style="fill: #776bcd; stroke: #776bcd; stroke-linejoin: miter"/>
     <use xlink:href="#m1327e048d0" x="345.482449" y="278.307338" style="fill: #776bcd; stroke: #776bcd; stroke-linejoin: miter"/>
     <use xlink:href="#m1327e048d0" x="352.108052" y="286.897669" style="fill: #776bcd; stroke: #776bcd; stroke-linejoin: miter"/>
     <use xlink:href="#m1327e048d0" x="358.733655" y="295.488" style="fill: #776bcd; stroke: #776bcd; stroke-linejoin: miter"/>
     <use xlink:href="#m1327e048d0" x="365.359258" y="295.488" style="fill: #776bcd; stroke: #776bcd; stroke-linejoin: miter"/>
     <use xlink:href="#m1327e048d0" x="371.984861" y="291.192834" style="fill: #776bcd; stroke: #776bcd; stroke-linejoin: miter"/>
     <use xlink:href="#m1327e048d0" x="378.610464" y="282.602503" style="fill: #776bcd; stroke: #776bcd; stroke-linejoin: miter"/>
     <use xlink:href="#m1327e048d0" x="385.236067" y="286.897669" style="fill: #776bcd; stroke: #776bcd; stroke-linejoin: miter"/>
     <use xlink:href="#m1327e048d0" x="391.86167" y="286.897669" style="fill: #776bcd; stroke: #776bcd; stroke-linejoin: miter"/>
     <use xlink:href="#m1327e048d0" x="398.487273" y="295.488" style="fill: #776bcd; stroke: #776bcd; stroke-linejoin: miter"/>
    </g>
   </g>
   <g id="patch_3">
    <path d="M 57.6 307.584 
L 57.6 41.472 
" style="fill: none; stroke: #000000; stroke-width: 0.8; stroke-linejoin: miter; stroke-linecap: square"/>
   </g>
   <g id="patch_4">
    <path d="M 414.72 307.584 
L 414.72 41.472 
" style="fill: none; stroke: #000000; stroke-width: 0.8; stroke-linejoin: miter; stroke-linecap: square"/>
   </g>
   <g id="patch_5">
    <path d="M 57.6 307.584 
L 414.72 307.584 
" style="fill: none; stroke: #000000; stroke-width: 0.8; stroke-linejoin: miter; stroke-linecap: square"/>
   </g>
   <g id="patch_6">
    <path d="M 57.6 41.472 
L 414.72 41.472 
" style="fill: none; stroke: #000000; stroke-width: 0.8; stroke-linejoin: miter; stroke-linecap: square"/>
   </g>
   <g id="legend_1">
    <g id="patch_7">
     <path d="M 67.4 111.208085 
L 232.983542 111.208085 
Q 235.783542 111.208085 235.783542 108.408085 
L 235.783542 51.272 
Q 235.783542 48.472 232.983542 48.472 
L 67.4 48.472 
Q 64.6 48.472 64.6 51.272 
L 64.6 108.408085 
Q 64.6 111.208085 67.4 111.208085 
z
" style="fill: #ffffff; opacity: 0.8; stroke: #cccccc; stroke-linejoin: miter"/>
    </g>
    <g id="line2d_16">
     <path d="M 70.2 58.972 
L 84.2 58.972 
L 98.2 58.972 
" style="fill: none; stroke: #ffb400; stroke-width: 1.5; stroke-linecap: square"/>
    </g>
    <g id="text_14">
     <!-- exponential fit -->
     <g transform="translate(109.4 63.872) scale(0.14 -0.14)">
      <defs>
       <path id="CMR17-78" d="M 1664 1491 
C 1856 1740 2074 2022 2253 2233 
C 2464 2476 2707 2579 2989 2585 
L 2989 2752 
C 2880 2745 2656 2739 2541 2739 
C 2368 2739 2170 2739 2022 2752 
L 2022 2585 
C 2112 2572 2163 2508 2163 2419 
C 2163 2304 2099 2233 2067 2188 
L 1594 1587 
L 1030 2323 
C 973 2393 973 2406 973 2438 
C 973 2515 1037 2579 1146 2585 
L 1146 2752 
C 992 2739 717 2739 557 2739 
C 384 2739 179 2739 38 2752 
L 38 2585 
C 384 2585 461 2560 614 2368 
L 1350 1414 
C 1363 1401 1395 1363 1395 1344 
C 1395 1318 838 633 768 544 
C 480 198 179 172 6 166 
L 6 0 
C 115 6 339 12 454 12 
C 582 12 864 12 979 0 
L 979 166 
C 941 172 838 185 838 332 
C 838 448 890 518 947 595 
L 1478 1248 
L 2035 524 
C 2086 454 2163 358 2163 313 
C 2163 224 2086 172 1984 166 
L 1984 0 
C 2138 12 2413 12 2573 12 
C 2746 12 2950 12 3091 0 
L 3091 166 
C 2771 166 2675 179 2522 377 
L 1664 1491 
z
" transform="scale(0.015625)"/>
       <path id="CMR17-70" d="M 1408 -1114 
C 998 -1114 973 -1088 973 -834 
L 973 380 
C 1158 109 1427 -64 1766 -64 
C 2406 -64 3053 503 3053 1382 
C 3053 2196 2496 2816 1837 2816 
C 1453 2816 1139 2603 960 2345 
L 960 2816 
L 198 2745 
L 198 2577 
C 576 2577 634 2539 634 2228 
L 634 -834 
C 634 -1081 608 -1114 198 -1114 
L 198 -1280 
C 352 -1268 634 -1268 800 -1268 
C 966 -1268 1254 -1268 1408 -1280 
L 1408 -1114 
z
M 973 2015 
C 973 2106 973 2241 1222 2481 
C 1254 2506 1472 2700 1792 2700 
C 2259 2700 2643 2112 2643 1376 
C 2643 639 2234 38 1728 38 
C 1498 38 1248 148 1056 451 
C 973 594 973 632 973 736 
L 973 2015 
z
" transform="scale(0.015625)"/>
       <path id="CMR17-6f" d="M 2758 1356 
C 2758 2176 2163 2816 1466 2816 
C 768 2816 173 2176 173 1356 
C 173 550 768 -64 1466 -64 
C 2163 -64 2758 550 2758 1356 
z
M 1466 51 
C 1165 51 909 230 762 480 
C 602 768 582 1126 582 1408 
C 582 1676 595 2009 762 2297 
C 890 2508 1139 2713 1466 2713 
C 1754 2713 1997 2553 2150 2329 
C 2349 2028 2349 1606 2349 1408 
C 2349 1158 2336 774 2163 467 
C 1984 172 1709 51 1466 51 
z
" transform="scale(0.015625)"/>
       <path id="CMR17-74" d="M 966 2585 
L 1862 2585 
L 1862 2752 
L 966 2752 
L 966 3968 
L 851 3968 
C 838 3292 614 2700 70 2687 
L 70 2585 
L 627 2585 
L 627 778 
C 627 655 627 -64 1370 -64 
C 1747 -64 1965 308 1965 784 
L 1965 1151 
L 1850 1151 
L 1850 790 
C 1850 347 1677 51 1408 51 
C 1222 51 966 179 966 765 
L 966 2585 
z
" transform="scale(0.015625)"/>
       <path id="CMR17-69" d="M 992 3961 
C 992 4102 877 4224 730 4224 
C 589 4224 467 4108 467 3961 
C 467 3820 582 3699 730 3699 
C 870 3699 992 3814 992 3961 
z
M 243 2745 
L 243 2579 
C 602 2579 653 2540 653 2231 
L 653 443 
C 653 198 627 166 218 166 
L 218 0 
C 371 12 646 12 806 12 
C 960 12 1222 12 1370 0 
L 1370 166 
C 992 166 979 205 979 436 
L 979 2816 
L 243 2745 
z
" transform="scale(0.015625)"/>
       <path id="CMR17-61" d="M 2304 1656 
C 2304 2048 2304 2275 2035 2534 
C 1798 2751 1523 2816 1306 2816 
C 800 2816 435 2408 435 1977 
C 435 1740 627 1728 666 1728 
C 749 1728 896 1779 896 1958 
C 896 2118 774 2188 666 2188 
C 640 2188 608 2182 589 2176 
C 723 2594 1069 2713 1293 2713 
C 1613 2713 1965 2421 1965 1875 
L 1965 1632 
C 1587 1619 1133 1568 774 1373 
C 371 1147 256 822 256 576 
C 256 77 832 -64 1171 -64 
C 1523 -64 1850 135 1990 505 
C 2003 219 2182 -39 2464 -39 
C 2598 -39 2938 51 2938 563 
L 2938 926 
L 2822 926 
L 2822 557 
C 2822 161 2650 109 2566 109 
C 2304 109 2304 446 2304 732 
L 2304 1656 
z
M 1965 887 
C 1965 323 1568 38 1216 38 
C 896 38 646 278 646 576 
C 646 771 730 1114 1101 1322 
C 1408 1497 1760 1523 1965 1536 
L 1965 887 
z
" transform="scale(0.015625)"/>
       <path id="CMR17-6c" d="M 979 4416 
L 218 4345 
L 218 4179 
C 595 4179 653 4141 653 3835 
L 653 439 
C 653 198 627 166 218 166 
L 218 0 
C 371 12 653 12 813 12 
C 979 12 1261 12 1414 0 
L 1414 166 
C 1005 166 979 191 979 439 
L 979 4416 
z
" transform="scale(0.015625)"/>
       <path id="CMR17-c" d="M 2554 2816 
C 2400 2809 1926 2777 1805 2764 
C 1766 2758 1754 2758 1677 2758 
L 947 2758 
L 947 3517 
C 947 4127 1434 4416 1818 4416 
C 1939 4416 2214 4383 2355 4160 
C 2291 4160 2086 4160 2086 3935 
C 2086 3782 2189 3705 2317 3705 
C 2432 3705 2547 3769 2547 3942 
C 2547 4265 2240 4518 1843 4518 
C 1338 4518 634 4225 634 3517 
L 634 2758 
L 122 2758 
L 122 2591 
L 634 2591 
L 634 442 
C 634 198 608 166 198 166 
L 198 0 
C 352 12 634 12 794 12 
C 960 12 1242 12 1395 0 
L 1395 166 
C 986 166 960 192 960 442 
L 960 2591 
L 1901 2591 
C 2176 2591 2227 2534 2227 2251 
L 2227 442 
C 2227 198 2202 166 1792 166 
L 1792 0 
C 1946 12 2227 12 2387 12 
C 2554 12 2835 12 2989 0 
L 2989 166 
C 2579 166 2554 192 2554 442 
L 2554 2816 
z
" transform="scale(0.015625)"/>
      </defs>
      <use xlink:href="#CMR17-65" transform="scale(0.996264)"/>
      <use xlink:href="#CMR17-78" transform="translate(40.48566 0) scale(0.996264)"/>
      <use xlink:href="#CMR17-70" transform="translate(88.778576 0) scale(0.996264)"/>
      <use xlink:href="#CMR17-6f" transform="translate(142.276385 0) scale(0.996264)"/>
      <use xlink:href="#CMR17-6e" transform="translate(187.966862 0) scale(0.996264)"/>
      <use xlink:href="#CMR17-65" transform="translate(238.862232 0) scale(0.996264)"/>
      <use xlink:href="#CMR17-6e" transform="translate(279.347892 0) scale(0.996264)"/>
      <use xlink:href="#CMR17-74" transform="translate(327.640808 0) scale(0.996264)"/>
      <use xlink:href="#CMR17-69" transform="translate(362.921576 0) scale(0.996264)"/>
      <use xlink:href="#CMR17-61" transform="translate(387.792634 0) scale(0.996264)"/>
      <use xlink:href="#CMR17-6c" transform="translate(433.483111 0) scale(0.996264)"/>
      <use xlink:href="#CMR17-c" transform="translate(488.430136 0) scale(0.996264)"/>
      <use xlink:href="#CMR17-74" transform="translate(538.17236 0) scale(0.996264)"/>
     </g>
    </g>
    <g id="line2d_17">
     <path d="M 70.2 78.484028 
L 84.2 78.484028 
L 98.2 78.484028 
" style="fill: none; stroke: #d2980d; stroke-width: 1.5; stroke-linecap: square"/>
    </g>
    <g id="text_15">
     <!-- sinc$^2$ fit -->
     <g transform="translate(109.4 83.384028) scale(0.14 -0.14)">
      <defs>
       <path id="CMR17-73" d="M 1978 2688 
C 1978 2803 1971 2809 1933 2809 
C 1907 2809 1901 2803 1824 2707 
C 1805 2681 1747 2617 1728 2592 
C 1523 2809 1235 2816 1126 2816 
C 416 2816 160 2444 160 2073 
C 160 1497 813 1363 998 1324 
C 1402 1241 1542 1216 1677 1100 
C 1760 1024 1901 883 1901 652 
C 1901 384 1747 38 1158 38 
C 602 38 403 460 288 1024 
C 269 1113 269 1120 218 1120 
C 166 1120 160 1113 160 985 
L 160 64 
C 160 -52 166 -58 205 -58 
C 237 -58 243 -52 275 0 
C 314 57 410 211 448 275 
C 576 102 800 -64 1158 -64 
C 1792 -64 2131 281 2131 780 
C 2131 1107 1958 1280 1875 1356 
C 1683 1555 1459 1600 1190 1651 
C 838 1728 390 1817 390 2208 
C 390 2374 480 2726 1126 2726 
C 1811 2726 1850 2086 1862 1881 
C 1869 1849 1901 1843 1920 1843 
C 1978 1843 1978 1862 1978 1971 
L 1978 2688 
z
" transform="scale(0.015625)"/>
      </defs>
      <use xlink:href="#CMR17-73" transform="scale(0.996264)"/>
      <use xlink:href="#CMR17-69" transform="translate(35.801338 0) scale(0.996264)"/>
      <use xlink:href="#CMR17-6e" transform="translate(60.672396 0) scale(0.996264)"/>
      <use xlink:href="#CMR17-63" transform="translate(111.567766 0) scale(0.996264)"/>
      <use xlink:href="#CMR17-32" transform="translate(152.053426 36.153639) scale(0.697382)"/>
      <use xlink:href="#CMR17-c" transform="translate(214.610707 0) scale(0.996264)"/>
      <use xlink:href="#CMR17-74" transform="translate(264.35293 0) scale(0.996264)"/>
     </g>
    </g>
    <g id="LineCollection_2">
     <path d="M 84.2 104.996057 
L 84.2 90.996057 
" style="fill: none; stroke: #776bcd; stroke-width: 1.5"/>
    </g>
    <g id="line2d_18">
     <g>
      <use xlink:href="#mc2bfa2c09f" x="84.2" y="104.996057" style="fill: #776bcd; stroke: #776bcd"/>
     </g>
    </g>
    <g id="line2d_19">
     <g>
      <use xlink:href="#mc2bfa2c09f" x="84.2" y="90.996057" style="fill: #776bcd; stroke: #776bcd"/>
     </g>
    </g>
    <g id="line2d_20"/>
    <g id="line2d_21">
     <g>
      <use xlink:href="#m1327e048d0" x="84.2" y="97.996057" style="fill: #776bcd; stroke: #776bcd; stroke-linejoin: miter"/>
     </g>
    </g>
    <g id="text_16">
     <!-- Measurement points -->
     <g transform="translate(109.4 102.896057) scale(0.14 -0.14)">
      <defs>
       <path id="CMR17-4d" d="M 1338 4249 
C 1299 4345 1293 4352 1158 4352 
L 339 4352 
L 339 4185 
C 781 4185 851 4185 851 3898 
L 851 624 
C 851 465 851 166 339 166 
L 339 0 
C 486 12 755 12 915 12 
C 1075 12 1344 12 1491 0 
L 1491 166 
C 979 166 979 465 979 624 
L 979 4159 
L 986 4159 
L 2490 102 
C 2515 38 2528 0 2579 0 
C 2630 0 2643 38 2669 102 
L 4186 4191 
L 4192 4191 
L 4192 453 
C 4192 166 4122 166 3680 166 
L 3680 0 
C 3853 12 4198 12 4384 12 
C 4570 12 4922 12 5094 0 
L 5094 166 
C 4653 166 4582 166 4582 453 
L 4582 3898 
C 4582 4185 4653 4185 5094 4185 
L 5094 4352 
L 4282 4352 
C 4147 4352 4141 4345 4102 4249 
L 2720 516 
L 1338 4249 
z
" transform="scale(0.015625)"/>
       <path id="CMR17-6d" d="M 4326 1954 
C 4326 2276 4269 2816 3507 2816 
C 3072 2816 2771 2520 2656 2173 
L 2650 2173 
C 2573 2700 2195 2816 1837 2816 
C 1331 2816 1069 2424 973 2166 
L 966 2166 
L 966 2816 
L 211 2745 
L 211 2578 
C 589 2578 646 2540 646 2231 
L 646 443 
C 646 198 621 166 211 166 
L 211 0 
C 365 12 646 12 813 12 
C 979 12 1267 12 1421 0 
L 1421 166 
C 1011 166 986 192 986 443 
L 986 1678 
C 986 2269 1344 2713 1792 2713 
C 2266 2713 2317 2289 2317 1980 
L 2317 443 
C 2317 198 2291 166 1882 166 
L 1882 0 
C 2035 12 2317 12 2483 12 
C 2650 12 2938 12 3091 0 
L 3091 166 
C 2682 166 2656 192 2656 443 
L 2656 1678 
C 2656 2269 3014 2713 3462 2713 
C 3936 2713 3987 2289 3987 1980 
L 3987 443 
C 3987 198 3962 166 3552 166 
L 3552 0 
C 3706 12 3987 12 4154 12 
C 4320 12 4608 12 4762 0 
L 4762 166 
C 4352 166 4326 192 4326 443 
L 4326 1954 
z
" transform="scale(0.015625)"/>
      </defs>
      <use xlink:href="#CMR17-4d" transform="scale(0.996264)"/>
      <use xlink:href="#CMR17-65" transform="translate(84.686941 0) scale(0.996264)"/>
      <use xlink:href="#CMR17-61" transform="translate(125.172601 0) scale(0.996264)"/>
      <use xlink:href="#CMR17-73" transform="translate(170.863078 0) scale(0.996264)"/>
      <use xlink:href="#CMR17-75" transform="translate(206.664416 0) scale(0.996264)"/>
      <use xlink:href="#CMR17-72" transform="translate(257.559786 0) scale(0.996264)"/>
      <use xlink:href="#CMR17-65" transform="translate(292.840553 0) scale(0.996264)"/>
      <use xlink:href="#CMR17-6d" transform="translate(333.326214 0) scale(0.996264)"/>
      <use xlink:href="#CMR17-65" transform="translate(410.245804 0) scale(0.996264)"/>
      <use xlink:href="#CMR17-6e" transform="translate(450.731464 0) scale(0.996264)"/>
      <use xlink:href="#CMR17-74" transform="translate(499.02438 0) scale(0.996264)"/>
      <use xlink:href="#CMR17-70" transform="translate(564.381114 0) scale(0.996264)"/>
      <use xlink:href="#CMR17-6f" transform="translate(617.878923 0) scale(0.996264)"/>
      <use xlink:href="#CMR17-69" transform="translate(663.5694 0) scale(0.996264)"/>
      <use xlink:href="#CMR17-6e" transform="translate(688.440458 0) scale(0.996264)"/>
      <use xlink:href="#CMR17-74" transform="translate(736.733374 0) scale(0.996264)"/>
      <use xlink:href="#CMR17-73" transform="translate(772.014142 0) scale(0.996264)"/>
     </g>
    </g>
   </g>
  </g>
 </g>
 <defs>
  <clipPath id="pe86b2b0c9c">
   <rect x="57.6" y="41.472" width="357.12" height="266.112"/>
  </clipPath>
 </defs>
</svg>
