<?xml version="1.0" encoding="utf-8" standalone="no"?>
<!DOCTYPE svg PUBLIC "-//W3C//DTD SVG 1.1//EN"
  "http://www.w3.org/Graphics/SVG/1.1/DTD/svg11.dtd">
<svg xmlns:xlink="http://www.w3.org/1999/xlink" width="460.8pt" height="345.6pt" viewBox="0 0 460.8 345.6" xmlns="http://www.w3.org/2000/svg" version="1.1">
 <metadata>
  <rdf:RDF xmlns:dc="http://purl.org/dc/elements/1.1/" xmlns:cc="http://creativecommons.org/ns#" xmlns:rdf="http://www.w3.org/1999/02/22-rdf-syntax-ns#">
   <cc:Work>
    <dc:type rdf:resource="http://purl.org/dc/dcmitype/StillImage"/>
    <dc:date>2024-11-24T11:18:22.321286</dc:date>
    <dc:format>image/svg+xml</dc:format>
    <dc:creator>
     <cc:Agent>
      <dc:title>Matplotlib v3.6.3, https://matplotlib.org/</dc:title>
     </cc:Agent>
    </dc:creator>
   </cc:Work>
  </rdf:RDF>
 </metadata>
 <defs>
  <style type="text/css">*{stroke-linejoin: round; stroke-linecap: butt}</style>
 </defs>
 <g id="figure_1">
  <g id="patch_1">
   <path d="M 0 345.6 
L 460.8 345.6 
L 460.8 0 
L 0 0 
z
" style="fill: #ffffff"/>
  </g>
  <g id="axes_1">
   <g id="patch_2">
    <path d="M 85.700525 289.957032 
L 377.600305 289.957032 
L 377.600305 10.8 
L 85.700525 10.8 
z
" style="fill: #ffffff"/>
   </g>
   <g id="matplotlib.axis_1">
    <g id="xtick_1">
     <g id="line2d_1">
      <defs>
       <path id="mebdbd67318" d="M 0 0 
L 0 3.5 
" style="stroke: #000000; stroke-width: 0.8"/>
      </defs>
      <g>
       <use xlink:href="#mebdbd67318" x="98.968697" y="289.957032" style="stroke: #000000; stroke-width: 0.8"/>
      </g>
     </g>
     <g id="text_1">
      <!-- $\mathdefault{0}$ -->
      <g transform="translate(94.856554 309.410332) scale(0.18 -0.18)">
       <defs>
        <path id="CMR17-30" d="M 2688 2038 
C 2688 2430 2682 3099 2413 3613 
C 2176 4063 1798 4224 1466 4224 
C 1158 4224 768 4082 525 3620 
C 269 3137 243 2539 243 2038 
C 243 1671 250 1112 448 623 
C 723 -39 1216 -128 1466 -128 
C 1760 -128 2208 -7 2470 604 
C 2662 1048 2688 1568 2688 2038 
z
M 1466 -26 
C 1056 -26 813 328 723 816 
C 653 1196 653 1749 653 2109 
C 653 2604 653 3015 736 3407 
C 858 3954 1216 4121 1466 4121 
C 1728 4121 2067 3947 2189 3420 
C 2272 3054 2278 2623 2278 2109 
C 2278 1691 2278 1176 2202 797 
C 2067 96 1690 -26 1466 -26 
z
" transform="scale(0.015625)"/>
       </defs>
       <use xlink:href="#CMR17-30" transform="scale(0.996264)"/>
      </g>
     </g>
    </g>
    <g id="xtick_2">
     <g id="line2d_2">
      <g>
       <use xlink:href="#mebdbd67318" x="165.642927" y="289.957032" style="stroke: #000000; stroke-width: 0.8"/>
      </g>
     </g>
     <g id="text_2">
      <!-- $\mathdefault{5}$ -->
      <g transform="translate(161.530784 309.410332) scale(0.18 -0.18)">
       <defs>
        <path id="CMR17-35" d="M 730 3750 
C 794 3724 1056 3641 1325 3641 
C 1920 3641 2246 3961 2432 4140 
C 2432 4191 2432 4224 2394 4224 
C 2387 4224 2374 4224 2323 4198 
C 2099 4102 1837 4032 1517 4032 
C 1325 4032 1037 4055 723 4191 
C 653 4224 640 4224 634 4224 
C 602 4224 595 4217 595 4090 
L 595 2231 
C 595 2113 595 2080 659 2080 
C 691 2080 704 2093 736 2139 
C 941 2435 1222 2560 1542 2560 
C 1766 2560 2246 2415 2246 1293 
C 2246 1087 2246 716 2054 422 
C 1894 159 1645 25 1370 25 
C 947 25 518 319 403 812 
C 429 806 480 793 506 793 
C 589 793 749 838 749 1036 
C 749 1209 627 1280 506 1280 
C 358 1280 262 1190 262 1011 
C 262 454 704 -128 1382 -128 
C 2042 -128 2669 441 2669 1267 
C 2669 2054 2170 2662 1549 2662 
C 1222 2662 947 2540 730 2304 
L 730 3750 
z
" transform="scale(0.015625)"/>
       </defs>
       <use xlink:href="#CMR17-35" transform="scale(0.996264)"/>
      </g>
     </g>
    </g>
    <g id="xtick_3">
     <g id="line2d_3">
      <g>
       <use xlink:href="#mebdbd67318" x="232.317157" y="289.957032" style="stroke: #000000; stroke-width: 0.8"/>
      </g>
     </g>
     <g id="text_3">
      <!-- $\mathdefault{10}$ -->
      <g transform="translate(224.092871 309.410332) scale(0.18 -0.18)">
       <defs>
        <path id="CMR17-31" d="M 1702 4083 
C 1702 4217 1696 4224 1606 4224 
C 1357 3927 979 3833 621 3820 
C 602 3820 570 3820 563 3808 
C 557 3795 557 3782 557 3648 
C 755 3648 1088 3686 1344 3839 
L 1344 467 
C 1344 243 1331 166 781 166 
L 589 166 
L 589 0 
C 896 6 1216 12 1523 12 
C 1830 12 2150 6 2458 0 
L 2458 166 
L 2266 166 
C 1715 166 1702 236 1702 467 
L 1702 4083 
z
" transform="scale(0.015625)"/>
       </defs>
       <use xlink:href="#CMR17-31" transform="scale(0.996264)"/>
       <use xlink:href="#CMR17-30" transform="translate(45.690477 0) scale(0.996264)"/>
      </g>
     </g>
    </g>
    <g id="xtick_4">
     <g id="line2d_4">
      <g>
       <use xlink:href="#mebdbd67318" x="298.991388" y="289.957032" style="stroke: #000000; stroke-width: 0.8"/>
      </g>
     </g>
     <g id="text_4">
      <!-- $\mathdefault{15}$ -->
      <g transform="translate(290.767102 309.410332) scale(0.18 -0.18)">
       <use xlink:href="#CMR17-31" transform="scale(0.996264)"/>
       <use xlink:href="#CMR17-35" transform="translate(45.690477 0) scale(0.996264)"/>
      </g>
     </g>
    </g>
    <g id="xtick_5">
     <g id="line2d_5">
      <g>
       <use xlink:href="#mebdbd67318" x="365.665618" y="289.957032" style="stroke: #000000; stroke-width: 0.8"/>
      </g>
     </g>
     <g id="text_5">
      <!-- $\mathdefault{20}$ -->
      <g transform="translate(357.441332 309.410332) scale(0.18 -0.18)">
       <defs>
        <path id="CMR17-32" d="M 2669 990 
L 2554 990 
C 2490 537 2438 460 2413 422 
C 2381 371 1920 371 1830 371 
L 602 371 
C 832 620 1280 1073 1824 1596 
C 2214 1966 2669 2400 2669 3033 
C 2669 3788 2067 4224 1395 4224 
C 691 4224 262 3603 262 3027 
C 262 2777 448 2745 525 2745 
C 589 2745 781 2783 781 3007 
C 781 3206 614 3264 525 3264 
C 486 3264 448 3257 422 3244 
C 544 3788 915 4057 1306 4057 
C 1862 4057 2227 3616 2227 3033 
C 2227 2477 1901 1998 1536 1583 
L 262 147 
L 262 0 
L 2515 0 
L 2669 990 
z
" transform="scale(0.015625)"/>
       </defs>
       <use xlink:href="#CMR17-32" transform="scale(0.996264)"/>
       <use xlink:href="#CMR17-30" transform="translate(45.690477 0) scale(0.996264)"/>
      </g>
     </g>
    </g>
    <g id="text_6">
     <!-- Time [ms] -->
     <g transform="translate(195.531162 330.331816) scale(0.18 -0.18)">
      <defs>
       <path id="CMR17-54" d="M 3981 4332 
L 288 4332 
L 179 2924 
L 294 2924 
C 378 3981 467 4166 1453 4166 
C 1568 4166 1754 4166 1805 4159 
C 1926 4140 1926 4064 1926 3917 
L 1926 465 
C 1926 236 1907 166 1376 166 
L 1197 166 
L 1197 0 
C 1504 6 1824 12 2138 12 
C 2451 12 2771 6 3078 0 
L 3078 166 
L 2899 166 
C 2368 166 2349 236 2349 465 
L 2349 3917 
C 2349 4057 2349 4134 2464 4159 
C 2515 4166 2701 4166 2816 4166 
C 3795 4166 3891 3981 3974 2924 
L 4090 2924 
L 3981 4332 
z
" transform="scale(0.015625)"/>
       <path id="CMR17-69" d="M 992 3961 
C 992 4102 877 4224 730 4224 
C 589 4224 467 4108 467 3961 
C 467 3820 582 3699 730 3699 
C 870 3699 992 3814 992 3961 
z
M 243 2745 
L 243 2579 
C 602 2579 653 2540 653 2231 
L 653 443 
C 653 198 627 166 218 166 
L 218 0 
C 371 12 646 12 806 12 
C 960 12 1222 12 1370 0 
L 1370 166 
C 992 166 979 205 979 436 
L 979 2816 
L 243 2745 
z
" transform="scale(0.015625)"/>
       <path id="CMR17-6d" d="M 4326 1954 
C 4326 2276 4269 2816 3507 2816 
C 3072 2816 2771 2520 2656 2173 
L 2650 2173 
C 2573 2700 2195 2816 1837 2816 
C 1331 2816 1069 2424 973 2166 
L 966 2166 
L 966 2816 
L 211 2745 
L 211 2578 
C 589 2578 646 2540 646 2231 
L 646 443 
C 646 198 621 166 211 166 
L 211 0 
C 365 12 646 12 813 12 
C 979 12 1267 12 1421 0 
L 1421 166 
C 1011 166 986 192 986 443 
L 986 1678 
C 986 2269 1344 2713 1792 2713 
C 2266 2713 2317 2289 2317 1980 
L 2317 443 
C 2317 198 2291 166 1882 166 
L 1882 0 
C 2035 12 2317 12 2483 12 
C 2650 12 2938 12 3091 0 
L 3091 166 
C 2682 166 2656 192 2656 443 
L 2656 1678 
C 2656 2269 3014 2713 3462 2713 
C 3936 2713 3987 2289 3987 1980 
L 3987 443 
C 3987 198 3962 166 3552 166 
L 3552 0 
C 3706 12 3987 12 4154 12 
C 4320 12 4608 12 4762 0 
L 4762 166 
C 4352 166 4326 192 4326 443 
L 4326 1954 
z
" transform="scale(0.015625)"/>
       <path id="CMR17-65" d="M 2438 1503 
C 2464 1529 2464 1542 2464 1606 
C 2464 2251 2118 2816 1389 2816 
C 710 2816 173 2175 173 1394 
C 173 554 781 -64 1459 -64 
C 2176 -64 2458 619 2458 755 
C 2458 800 2419 800 2406 800 
C 2362 800 2355 787 2330 709 
C 2189 270 1837 51 1504 51 
C 1229 51 954 206 781 490 
C 582 819 582 1200 582 1503 
L 2438 1503 
z
M 589 1600 
C 634 2511 1126 2713 1382 2713 
C 1818 2713 2112 2308 2118 1600 
L 589 1600 
z
" transform="scale(0.015625)"/>
       <path id="CMR17-5b" d="M 1504 -1600 
L 1504 -1376 
L 902 -1376 
L 902 4575 
L 1504 4575 
L 1504 4800 
L 678 4800 
L 678 -1600 
L 1504 -1600 
z
" transform="scale(0.015625)"/>
       <path id="CMR17-73" d="M 1978 2688 
C 1978 2803 1971 2809 1933 2809 
C 1907 2809 1901 2803 1824 2707 
C 1805 2681 1747 2617 1728 2592 
C 1523 2809 1235 2816 1126 2816 
C 416 2816 160 2444 160 2073 
C 160 1497 813 1363 998 1324 
C 1402 1241 1542 1216 1677 1100 
C 1760 1024 1901 883 1901 652 
C 1901 384 1747 38 1158 38 
C 602 38 403 460 288 1024 
C 269 1113 269 1120 218 1120 
C 166 1120 160 1113 160 985 
L 160 64 
C 160 -52 166 -58 205 -58 
C 237 -58 243 -52 275 0 
C 314 57 410 211 448 275 
C 576 102 800 -64 1158 -64 
C 1792 -64 2131 281 2131 780 
C 2131 1107 1958 1280 1875 1356 
C 1683 1555 1459 1600 1190 1651 
C 838 1728 390 1817 390 2208 
C 390 2374 480 2726 1126 2726 
C 1811 2726 1850 2086 1862 1881 
C 1869 1849 1901 1843 1920 1843 
C 1978 1843 1978 1862 1978 1971 
L 1978 2688 
z
" transform="scale(0.015625)"/>
       <path id="CMR17-5d" d="M 915 4800 
L 90 4800 
L 90 4575 
L 691 4575 
L 691 -1376 
L 90 -1376 
L 90 -1600 
L 915 -1600 
L 915 4800 
z
" transform="scale(0.015625)"/>
      </defs>
      <use xlink:href="#CMR17-54" transform="scale(0.996264)"/>
      <use xlink:href="#CMR17-69" transform="translate(66.509881 0) scale(0.996264)"/>
      <use xlink:href="#CMR17-6d" transform="translate(91.380939 0) scale(0.996264)"/>
      <use xlink:href="#CMR17-65" transform="translate(168.300529 0) scale(0.996264)"/>
      <use xlink:href="#CMR17-5b" transform="translate(238.862156 0) scale(0.996264)"/>
      <use xlink:href="#CMR17-6d" transform="translate(263.733214 0) scale(0.996264)"/>
      <use xlink:href="#CMR17-73" transform="translate(340.652804 0) scale(0.996264)"/>
      <use xlink:href="#CMR17-5d" transform="translate(376.454142 0) scale(0.996264)"/>
     </g>
    </g>
   </g>
   <g id="matplotlib.axis_2">
    <g id="ytick_1">
     <g id="line2d_6">
      <defs>
       <path id="mca94cd6c2b" d="M 0 0 
L -3.5 0 
" style="stroke: #000000; stroke-width: 0.8"/>
      </defs>
      <g>
       <use xlink:href="#mca94cd6c2b" x="85.700525" y="227.344315" style="stroke: #000000; stroke-width: 0.8"/>
      </g>
     </g>
     <g id="text_7">
      <!-- $\mathdefault{4.8670}$ -->
      <g transform="translate(32.701604 233.570965) scale(0.18 -0.18)">
       <defs>
        <path id="CMR17-34" d="M 2150 4147 
C 2150 4281 2144 4288 2029 4288 
L 128 1254 
L 128 1088 
L 1779 1088 
L 1779 460 
C 1779 230 1766 166 1318 166 
L 1197 166 
L 1197 0 
C 1402 12 1747 12 1965 12 
C 2182 12 2528 12 2733 0 
L 2733 166 
L 2611 166 
C 2163 166 2150 230 2150 460 
L 2150 1088 
L 2803 1088 
L 2803 1254 
L 2150 1254 
L 2150 4147 
z
M 1798 3723 
L 1798 1254 
L 256 1254 
L 1798 3723 
z
" transform="scale(0.015625)"/>
        <path id="CMMI12-3a" d="M 1178 307 
C 1178 492 1024 620 870 620 
C 685 620 557 467 557 313 
C 557 128 710 0 864 0 
C 1050 0 1178 153 1178 307 
z
" transform="scale(0.015625)"/>
        <path id="CMR17-38" d="M 1741 2289 
C 2144 2494 2554 2803 2554 3298 
C 2554 3884 1990 4224 1472 4224 
C 890 4224 378 3800 378 3215 
C 378 3054 416 2777 666 2533 
C 730 2469 998 2276 1171 2154 
C 883 2006 211 1652 211 945 
C 211 282 838 -128 1459 -128 
C 2144 -128 2720 366 2720 1022 
C 2720 1607 2330 1877 2074 2051 
L 1741 2289 
z
M 902 2855 
C 851 2887 595 3086 595 3388 
C 595 3781 998 4076 1459 4076 
C 1965 4076 2336 3716 2336 3298 
C 2336 2700 1670 2359 1638 2359 
C 1632 2359 1626 2359 1574 2398 
L 902 2855 
z
M 2080 1536 
C 2176 1466 2483 1253 2483 861 
C 2483 385 2010 25 1472 25 
C 890 25 448 443 448 951 
C 448 1459 838 1884 1280 2083 
L 2080 1536 
z
" transform="scale(0.015625)"/>
        <path id="CMR17-36" d="M 678 2198 
C 678 3712 1395 4076 1811 4076 
C 1946 4076 2272 4049 2400 3782 
C 2298 3782 2106 3782 2106 3558 
C 2106 3385 2246 3328 2336 3328 
C 2394 3328 2566 3353 2566 3571 
C 2566 3987 2246 4224 1805 4224 
C 1043 4224 243 3411 243 2011 
C 243 257 966 -128 1478 -128 
C 2099 -128 2688 431 2688 1295 
C 2688 2101 2170 2688 1517 2688 
C 1126 2688 838 2430 678 1979 
L 678 2198 
z
M 1478 25 
C 691 25 691 1212 691 1450 
C 691 1914 909 2585 1504 2585 
C 1613 2585 1926 2585 2138 2140 
C 2253 1889 2253 1624 2253 1302 
C 2253 954 2253 696 2118 438 
C 1978 173 1773 25 1478 25 
z
" transform="scale(0.015625)"/>
        <path id="CMR17-37" d="M 2886 3955 
L 2886 4096 
L 1382 4096 
C 634 4096 621 4166 595 4288 
L 480 4288 
L 294 3104 
L 410 3104 
C 429 3226 474 3552 550 3673 
C 589 3724 1062 3724 1171 3724 
L 2579 3724 
L 1869 2670 
C 1395 1961 1069 1003 1069 166 
C 1069 89 1069 -128 1299 -128 
C 1530 -128 1530 89 1530 172 
L 1530 466 
C 1530 1514 1709 2204 2003 2644 
L 2886 3955 
z
" transform="scale(0.015625)"/>
       </defs>
       <use xlink:href="#CMR17-34" transform="scale(0.996264)"/>
       <use xlink:href="#CMMI12-3a" transform="translate(45.690477 0) scale(0.996264)"/>
       <use xlink:href="#CMR17-38" transform="translate(72.787654 0) scale(0.996264)"/>
       <use xlink:href="#CMR17-36" transform="translate(118.478131 0) scale(0.996264)"/>
       <use xlink:href="#CMR17-37" transform="translate(164.168608 0) scale(0.996264)"/>
       <use xlink:href="#CMR17-30" transform="translate(209.859086 0) scale(0.996264)"/>
      </g>
     </g>
    </g>
    <g id="ytick_2">
     <g id="line2d_7">
      <g>
       <use xlink:href="#mca94cd6c2b" x="85.700525" y="158.005757" style="stroke: #000000; stroke-width: 0.8"/>
      </g>
     </g>
     <g id="text_8">
      <!-- $\mathdefault{4.8675}$ -->
      <g transform="translate(32.701604 164.232407) scale(0.18 -0.18)">
       <use xlink:href="#CMR17-34" transform="scale(0.996264)"/>
       <use xlink:href="#CMMI12-3a" transform="translate(45.690477 0) scale(0.996264)"/>
       <use xlink:href="#CMR17-38" transform="translate(72.787654 0) scale(0.996264)"/>
       <use xlink:href="#CMR17-36" transform="translate(118.478131 0) scale(0.996264)"/>
       <use xlink:href="#CMR17-37" transform="translate(164.168608 0) scale(0.996264)"/>
       <use xlink:href="#CMR17-35" transform="translate(209.859086 0) scale(0.996264)"/>
      </g>
     </g>
    </g>
    <g id="ytick_3">
     <g id="line2d_8">
      <g>
       <use xlink:href="#mca94cd6c2b" x="85.700525" y="88.6672" style="stroke: #000000; stroke-width: 0.8"/>
      </g>
     </g>
     <g id="text_9">
      <!-- $\mathdefault{4.8680}$ -->
      <g transform="translate(32.701604 94.89385) scale(0.18 -0.18)">
       <use xlink:href="#CMR17-34" transform="scale(0.996264)"/>
       <use xlink:href="#CMMI12-3a" transform="translate(45.690477 0) scale(0.996264)"/>
       <use xlink:href="#CMR17-38" transform="translate(72.787654 0) scale(0.996264)"/>
       <use xlink:href="#CMR17-36" transform="translate(118.478131 0) scale(0.996264)"/>
       <use xlink:href="#CMR17-38" transform="translate(164.168608 0) scale(0.996264)"/>
       <use xlink:href="#CMR17-30" transform="translate(209.859086 0) scale(0.996264)"/>
      </g>
     </g>
    </g>
    <g id="ytick_4">
     <g id="line2d_9">
      <g>
       <use xlink:href="#mca94cd6c2b" x="85.700525" y="19.328643" style="stroke: #000000; stroke-width: 0.8"/>
      </g>
     </g>
     <g id="text_10">
      <!-- $\mathdefault{4.8685}$ -->
      <g transform="translate(32.701604 25.555293) scale(0.18 -0.18)">
       <use xlink:href="#CMR17-34" transform="scale(0.996264)"/>
       <use xlink:href="#CMMI12-3a" transform="translate(45.690477 0) scale(0.996264)"/>
       <use xlink:href="#CMR17-38" transform="translate(72.787654 0) scale(0.996264)"/>
       <use xlink:href="#CMR17-36" transform="translate(118.478131 0) scale(0.996264)"/>
       <use xlink:href="#CMR17-38" transform="translate(164.168608 0) scale(0.996264)"/>
       <use xlink:href="#CMR17-35" transform="translate(209.859086 0) scale(0.996264)"/>
      </g>
     </g>
    </g>
    <g id="text_11">
     <!-- Analog input [V] -->
     <g transform="translate(24.23342 211.012809) rotate(-90) scale(0.18 -0.18)">
      <defs>
       <path id="CMR17-41" d="M 2323 4441 
C 2291 4524 2278 4544 2214 4544 
C 2150 4544 2138 4524 2106 4441 
L 749 580 
C 627 236 371 166 147 166 
L 147 0 
C 262 12 518 12 640 12 
C 800 12 1056 12 1210 0 
L 1210 166 
C 909 179 864 382 864 459 
C 864 516 877 548 890 586 
L 1229 1536 
L 2906 1536 
L 3290 453 
C 3322 376 3322 363 3322 338 
C 3322 166 3046 166 2925 166 
L 2925 0 
C 3110 12 3443 12 3642 12 
C 3808 12 4128 12 4282 0 
L 4282 166 
C 3942 166 3827 166 3744 402 
L 2323 4441 
z
M 2067 3924 
L 2848 1702 
L 1286 1702 
L 2067 3924 
z
" transform="scale(0.015625)"/>
       <path id="CMR17-6e" d="M 2656 1954 
C 2656 2282 2592 2816 1837 2816 
C 1331 2816 1069 2424 973 2166 
L 966 2166 
L 966 2816 
L 211 2745 
L 211 2578 
C 589 2578 646 2540 646 2231 
L 646 443 
C 646 198 621 166 211 166 
L 211 0 
C 365 12 646 12 813 12 
C 979 12 1267 12 1421 0 
L 1421 166 
C 1011 166 986 192 986 443 
L 986 1678 
C 986 2269 1344 2713 1792 2713 
C 2266 2713 2317 2289 2317 1980 
L 2317 443 
C 2317 198 2291 166 1882 166 
L 1882 0 
C 2035 12 2317 12 2483 12 
C 2650 12 2938 12 3091 0 
L 3091 166 
C 2682 166 2656 192 2656 443 
L 2656 1954 
z
" transform="scale(0.015625)"/>
       <path id="CMR17-61" d="M 2304 1656 
C 2304 2048 2304 2275 2035 2534 
C 1798 2751 1523 2816 1306 2816 
C 800 2816 435 2408 435 1977 
C 435 1740 627 1728 666 1728 
C 749 1728 896 1779 896 1958 
C 896 2118 774 2188 666 2188 
C 640 2188 608 2182 589 2176 
C 723 2594 1069 2713 1293 2713 
C 1613 2713 1965 2421 1965 1875 
L 1965 1632 
C 1587 1619 1133 1568 774 1373 
C 371 1147 256 822 256 576 
C 256 77 832 -64 1171 -64 
C 1523 -64 1850 135 1990 505 
C 2003 219 2182 -39 2464 -39 
C 2598 -39 2938 51 2938 563 
L 2938 926 
L 2822 926 
L 2822 557 
C 2822 161 2650 109 2566 109 
C 2304 109 2304 446 2304 732 
L 2304 1656 
z
M 1965 887 
C 1965 323 1568 38 1216 38 
C 896 38 646 278 646 576 
C 646 771 730 1114 1101 1322 
C 1408 1497 1760 1523 1965 1536 
L 1965 887 
z
" transform="scale(0.015625)"/>
       <path id="CMR17-6c" d="M 979 4416 
L 218 4345 
L 218 4179 
C 595 4179 653 4141 653 3835 
L 653 439 
C 653 198 627 166 218 166 
L 218 0 
C 371 12 653 12 813 12 
C 979 12 1261 12 1414 0 
L 1414 166 
C 1005 166 979 191 979 439 
L 979 4416 
z
" transform="scale(0.015625)"/>
       <path id="CMR17-6f" d="M 2758 1356 
C 2758 2176 2163 2816 1466 2816 
C 768 2816 173 2176 173 1356 
C 173 550 768 -64 1466 -64 
C 2163 -64 2758 550 2758 1356 
z
M 1466 51 
C 1165 51 909 230 762 480 
C 602 768 582 1126 582 1408 
C 582 1676 595 2009 762 2297 
C 890 2508 1139 2713 1466 2713 
C 1754 2713 1997 2553 2150 2329 
C 2349 2028 2349 1606 2349 1408 
C 2349 1158 2336 774 2163 467 
C 1984 172 1709 51 1466 51 
z
" transform="scale(0.015625)"/>
       <path id="CMR17-67" d="M 710 1165 
C 832 1068 1043 960 1299 960 
C 1805 960 2240 1359 2240 1895 
C 2240 2063 2189 2321 1997 2521 
C 2176 2713 2438 2777 2586 2777 
C 2611 2777 2650 2777 2682 2758 
C 2656 2751 2598 2726 2598 2623 
C 2598 2540 2656 2483 2739 2483 
C 2835 2483 2886 2547 2886 2630 
C 2886 2751 2790 2880 2586 2880 
C 2330 2880 2106 2758 1926 2591 
C 1734 2764 1504 2828 1299 2828 
C 794 2828 358 2431 358 1895 
C 358 1527 570 1294 634 1230 
C 442 1004 442 742 442 710 
C 442 544 506 300 723 166 
C 390 82 128 -184 128 -517 
C 128 -996 736 -1344 1466 -1344 
C 2170 -1344 2803 -1009 2803 -510 
C 2803 384 1856 384 1363 384 
C 1216 384 954 384 922 390 
C 723 422 589 601 589 825 
C 589 883 589 1024 710 1165 
z
M 1299 1068 
C 736 1068 736 1766 736 1895 
C 736 2024 736 2719 1299 2719 
C 1862 2719 1862 2024 1862 1895 
C 1862 1766 1862 1068 1299 1068 
z
M 1466 -1236 
C 826 -1236 384 -883 384 -517 
C 384 -311 493 -118 634 -11 
C 794 102 858 102 1293 102 
C 1818 102 2547 102 2547 -517 
C 2547 -883 2106 -1236 1466 -1236 
z
" transform="scale(0.015625)"/>
       <path id="CMR17-70" d="M 1408 -1114 
C 998 -1114 973 -1088 973 -834 
L 973 380 
C 1158 109 1427 -64 1766 -64 
C 2406 -64 3053 503 3053 1382 
C 3053 2196 2496 2816 1837 2816 
C 1453 2816 1139 2603 960 2345 
L 960 2816 
L 198 2745 
L 198 2577 
C 576 2577 634 2539 634 2228 
L 634 -834 
C 634 -1081 608 -1114 198 -1114 
L 198 -1280 
C 352 -1268 634 -1268 800 -1268 
C 966 -1268 1254 -1268 1408 -1280 
L 1408 -1114 
z
M 973 2015 
C 973 2106 973 2241 1222 2481 
C 1254 2506 1472 2700 1792 2700 
C 2259 2700 2643 2112 2643 1376 
C 2643 639 2234 38 1728 38 
C 1498 38 1248 148 1056 451 
C 973 594 973 632 973 736 
L 973 2015 
z
" transform="scale(0.015625)"/>
       <path id="CMR17-75" d="M 1882 2745 
L 1882 2579 
C 2259 2579 2317 2540 2317 2229 
L 2317 1053 
C 2317 510 2029 38 1555 38 
C 1030 38 986 355 986 691 
L 986 2816 
L 211 2745 
L 211 2579 
C 467 2579 640 2579 646 2320 
L 646 1079 
C 646 646 646 368 813 187 
C 896 103 1056 -64 1517 -64 
C 2061 -64 2272 400 2323 536 
L 2330 536 
L 2330 -64 
L 3091 -13 
L 3091 154 
C 2714 154 2656 193 2656 503 
L 2656 2816 
L 1882 2745 
z
" transform="scale(0.015625)"/>
       <path id="CMR17-74" d="M 966 2585 
L 1862 2585 
L 1862 2752 
L 966 2752 
L 966 3968 
L 851 3968 
C 838 3292 614 2700 70 2687 
L 70 2585 
L 627 2585 
L 627 778 
C 627 655 627 -64 1370 -64 
C 1747 -64 1965 308 1965 784 
L 1965 1151 
L 1850 1151 
L 1850 790 
C 1850 347 1677 51 1408 51 
C 1222 51 966 179 966 765 
L 966 2585 
z
" transform="scale(0.015625)"/>
       <path id="CMR17-56" d="M 3776 3762 
C 3834 3903 3936 4179 4365 4185 
L 4365 4352 
C 4218 4339 4051 4339 3891 4339 
C 3738 4339 3475 4339 3328 4352 
L 3328 4185 
C 3648 4166 3661 3942 3661 3903 
C 3661 3833 3642 3788 3622 3737 
L 2362 448 
L 1043 3903 
C 1024 3948 1011 3980 1011 4012 
C 1011 4185 1267 4185 1402 4185 
L 1402 4352 
C 1197 4339 896 4339 685 4339 
C 518 4339 218 4339 64 4352 
L 64 4185 
C 435 4185 506 4160 582 3955 
L 2106 -26 
C 2138 -116 2144 -128 2214 -128 
C 2285 -128 2291 -116 2323 -26 
L 3776 3762 
z
" transform="scale(0.015625)"/>
      </defs>
      <use xlink:href="#CMR17-41" transform="scale(0.996264)"/>
      <use xlink:href="#CMR17-6e" transform="translate(69.07243 0) scale(0.996264)"/>
      <use xlink:href="#CMR17-61" transform="translate(119.9678 0) scale(0.996264)"/>
      <use xlink:href="#CMR17-6c" transform="translate(165.658277 0) scale(0.996264)"/>
      <use xlink:href="#CMR17-6f" transform="translate(190.529335 0) scale(0.996264)"/>
      <use xlink:href="#CMR17-67" transform="translate(236.219812 0) scale(0.996264)"/>
      <use xlink:href="#CMR17-69" transform="translate(311.986256 0) scale(0.996264)"/>
      <use xlink:href="#CMR17-6e" transform="translate(336.857314 0) scale(0.996264)"/>
      <use xlink:href="#CMR17-70" transform="translate(387.752684 0) scale(0.996264)"/>
      <use xlink:href="#CMR17-75" transform="translate(438.648054 0) scale(0.996264)"/>
      <use xlink:href="#CMR17-74" transform="translate(489.543424 0) scale(0.996264)"/>
      <use xlink:href="#CMR17-5b" transform="translate(554.900158 0) scale(0.996264)"/>
      <use xlink:href="#CMR17-56" transform="translate(579.771216 0) scale(0.996264)"/>
      <use xlink:href="#CMR17-5d" transform="translate(648.843646 0) scale(0.996264)"/>
     </g>
    </g>
   </g>
   <g id="line2d_10">
    <path d="M 98.968697 151.071902 
L 105.63612 151.071902 
L 106.969604 192.675036 
L 108.303089 151.071902 
L 109.636574 192.675036 
L 110.970058 192.675036 
L 112.303543 151.071902 
L 113.637027 192.675036 
L 114.970512 151.071902 
L 120.304451 151.071902 
L 121.637935 108.081996 
L 126.971874 108.081996 
L 128.305358 66.478862 
L 129.638843 108.081996 
L 130.972327 108.081996 
L 132.305812 66.478862 
L 133.639297 108.081996 
L 134.972781 108.081996 
L 136.306266 66.478862 
L 145.640658 66.478862 
L 146.974143 108.081996 
L 148.307627 108.081996 
L 149.641112 66.478862 
L 150.974596 108.081996 
L 160.308989 108.081996 
L 161.642473 151.071902 
L 172.31035 151.071902 
L 173.643835 192.675036 
L 190.979135 192.675036 
L 193.646104 277.268076 
L 194.979588 277.268076 
L 196.313073 235.664942 
L 198.980042 235.664942 
L 200.313527 192.675036 
L 201.647011 235.664942 
L 202.980496 235.664942 
L 204.313981 192.675036 
L 205.647465 192.675036 
L 206.98095 151.071902 
L 209.647919 151.071902 
L 210.981404 192.675036 
L 212.314888 151.071902 
L 222.982765 151.071902 
L 224.31625 108.081996 
L 225.649734 151.071902 
L 229.650188 151.071902 
L 230.983673 192.675036 
L 232.317157 192.675036 
L 233.650642 151.071902 
L 249.652457 151.071902 
L 250.985942 192.675036 
L 252.319426 151.071902 
L 253.652911 151.071902 
L 254.986396 192.675036 
L 261.653819 192.675036 
L 262.987303 235.664942 
L 264.320788 192.675036 
L 269.654726 192.675036 
L 270.988211 235.664942 
L 272.321695 192.675036 
L 273.65518 192.675036 
L 274.988665 235.664942 
L 278.989118 235.664942 
L 280.322603 192.675036 
L 281.656088 235.664942 
L 282.989572 192.675036 
L 292.323965 192.675036 
L 293.657449 151.071902 
L 294.990934 192.675036 
L 296.324418 192.675036 
L 297.657903 151.071902 
L 300.324872 151.071902 
L 301.658357 108.081996 
L 302.991841 151.071902 
L 304.325326 151.071902 
L 305.658811 108.081996 
L 306.992295 151.071902 
L 308.32578 108.081996 
L 316.326687 108.081996 
L 317.660172 66.478862 
L 318.993657 66.478862 
L 320.327141 108.081996 
L 321.660626 66.478862 
L 322.99411 108.081996 
L 324.327595 108.081996 
L 325.66108 23.488956 
L 326.994564 66.478862 
L 328.328049 23.488956 
L 329.661533 23.488956 
L 332.328503 108.081996 
L 333.661987 66.478862 
L 334.995472 108.081996 
L 340.32941 108.081996 
L 341.662895 151.071902 
L 342.99638 151.071902 
L 344.329864 108.081996 
L 345.663349 151.071902 
L 362.998649 151.071902 
L 364.332133 108.081996 
L 364.332133 108.081996 
" clip-path="url(#p2c8ced76fd)" style="fill: none; stroke: #ffb400; stroke-width: 1.5; stroke-linecap: square"/>
    <defs>
     <path id="m2c527da41a" d="M -2.5 2.5 
L 2.5 2.5 
L 2.5 -2.5 
L -2.5 -2.5 
z
" style="stroke: #ffb400; stroke-linejoin: miter"/>
    </defs>
    <g clip-path="url(#p2c8ced76fd)">
     <use xlink:href="#m2c527da41a" x="98.968697" y="151.071902" style="fill: #ffb400; stroke: #ffb400; stroke-linejoin: miter"/>
     <use xlink:href="#m2c527da41a" x="100.302181" y="151.071902" style="fill: #ffb400; stroke: #ffb400; stroke-linejoin: miter"/>
     <use xlink:href="#m2c527da41a" x="101.635666" y="151.071902" style="fill: #ffb400; stroke: #ffb400; stroke-linejoin: miter"/>
     <use xlink:href="#m2c527da41a" x="102.969151" y="151.071902" style="fill: #ffb400; stroke: #ffb400; stroke-linejoin: miter"/>
     <use xlink:href="#m2c527da41a" x="104.302635" y="151.071902" style="fill: #ffb400; stroke: #ffb400; stroke-linejoin: miter"/>
     <use xlink:href="#m2c527da41a" x="105.63612" y="151.071902" style="fill: #ffb400; stroke: #ffb400; stroke-linejoin: miter"/>
     <use xlink:href="#m2c527da41a" x="106.969604" y="192.675036" style="fill: #ffb400; stroke: #ffb400; stroke-linejoin: miter"/>
     <use xlink:href="#m2c527da41a" x="108.303089" y="151.071902" style="fill: #ffb400; stroke: #ffb400; stroke-linejoin: miter"/>
     <use xlink:href="#m2c527da41a" x="109.636574" y="192.675036" style="fill: #ffb400; stroke: #ffb400; stroke-linejoin: miter"/>
     <use xlink:href="#m2c527da41a" x="110.970058" y="192.675036" style="fill: #ffb400; stroke: #ffb400; stroke-linejoin: miter"/>
     <use xlink:href="#m2c527da41a" x="112.303543" y="151.071902" style="fill: #ffb400; stroke: #ffb400; stroke-linejoin: miter"/>
     <use xlink:href="#m2c527da41a" x="113.637027" y="192.675036" style="fill: #ffb400; stroke: #ffb400; stroke-linejoin: miter"/>
     <use xlink:href="#m2c527da41a" x="114.970512" y="151.071902" style="fill: #ffb400; stroke: #ffb400; stroke-linejoin: miter"/>
     <use xlink:href="#m2c527da41a" x="116.303997" y="151.071902" style="fill: #ffb400; stroke: #ffb400; stroke-linejoin: miter"/>
     <use xlink:href="#m2c527da41a" x="117.637481" y="151.071902" style="fill: #ffb400; stroke: #ffb400; stroke-linejoin: miter"/>
     <use xlink:href="#m2c527da41a" x="118.970966" y="151.071902" style="fill: #ffb400; stroke: #ffb400; stroke-linejoin: miter"/>
     <use xlink:href="#m2c527da41a" x="120.304451" y="151.071902" style="fill: #ffb400; stroke: #ffb400; stroke-linejoin: miter"/>
     <use xlink:href="#m2c527da41a" x="121.637935" y="108.081996" style="fill: #ffb400; stroke: #ffb400; stroke-linejoin: miter"/>
     <use xlink:href="#m2c527da41a" x="122.97142" y="108.081996" style="fill: #ffb400; stroke: #ffb400; stroke-linejoin: miter"/>
     <use xlink:href="#m2c527da41a" x="124.304904" y="108.081996" style="fill: #ffb400; stroke: #ffb400; stroke-linejoin: miter"/>
     <use xlink:href="#m2c527da41a" x="125.638389" y="108.081996" style="fill: #ffb400; stroke: #ffb400; stroke-linejoin: miter"/>
     <use xlink:href="#m2c527da41a" x="126.971874" y="108.081996" style="fill: #ffb400; stroke: #ffb400; stroke-linejoin: miter"/>
     <use xlink:href="#m2c527da41a" x="128.305358" y="66.478862" style="fill: #ffb400; stroke: #ffb400; stroke-linejoin: miter"/>
     <use xlink:href="#m2c527da41a" x="129.638843" y="108.081996" style="fill: #ffb400; stroke: #ffb400; stroke-linejoin: miter"/>
     <use xlink:href="#m2c527da41a" x="130.972327" y="108.081996" style="fill: #ffb400; stroke: #ffb400; stroke-linejoin: miter"/>
     <use xlink:href="#m2c527da41a" x="132.305812" y="66.478862" style="fill: #ffb400; stroke: #ffb400; stroke-linejoin: miter"/>
     <use xlink:href="#m2c527da41a" x="133.639297" y="108.081996" style="fill: #ffb400; stroke: #ffb400; stroke-linejoin: miter"/>
     <use xlink:href="#m2c527da41a" x="134.972781" y="108.081996" style="fill: #ffb400; stroke: #ffb400; stroke-linejoin: miter"/>
     <use xlink:href="#m2c527da41a" x="136.306266" y="66.478862" style="fill: #ffb400; stroke: #ffb400; stroke-linejoin: miter"/>
     <use xlink:href="#m2c527da41a" x="137.63975" y="66.478862" style="fill: #ffb400; stroke: #ffb400; stroke-linejoin: miter"/>
     <use xlink:href="#m2c527da41a" x="138.973235" y="66.478862" style="fill: #ffb400; stroke: #ffb400; stroke-linejoin: miter"/>
     <use xlink:href="#m2c527da41a" x="140.30672" y="66.478862" style="fill: #ffb400; stroke: #ffb400; stroke-linejoin: miter"/>
     <use xlink:href="#m2c527da41a" x="141.640204" y="66.478862" style="fill: #ffb400; stroke: #ffb400; stroke-linejoin: miter"/>
     <use xlink:href="#m2c527da41a" x="142.973689" y="66.478862" style="fill: #ffb400; stroke: #ffb400; stroke-linejoin: miter"/>
     <use xlink:href="#m2c527da41a" x="144.307173" y="66.478862" style="fill: #ffb400; stroke: #ffb400; stroke-linejoin: miter"/>
     <use xlink:href="#m2c527da41a" x="145.640658" y="66.478862" style="fill: #ffb400; stroke: #ffb400; stroke-linejoin: miter"/>
     <use xlink:href="#m2c527da41a" x="146.974143" y="108.081996" style="fill: #ffb400; stroke: #ffb400; stroke-linejoin: miter"/>
     <use xlink:href="#m2c527da41a" x="148.307627" y="108.081996" style="fill: #ffb400; stroke: #ffb400; stroke-linejoin: miter"/>
     <use xlink:href="#m2c527da41a" x="149.641112" y="66.478862" style="fill: #ffb400; stroke: #ffb400; stroke-linejoin: miter"/>
     <use xlink:href="#m2c527da41a" x="150.974596" y="108.081996" style="fill: #ffb400; stroke: #ffb400; stroke-linejoin: miter"/>
     <use xlink:href="#m2c527da41a" x="152.308081" y="108.081996" style="fill: #ffb400; stroke: #ffb400; stroke-linejoin: miter"/>
     <use xlink:href="#m2c527da41a" x="153.641566" y="108.081996" style="fill: #ffb400; stroke: #ffb400; stroke-linejoin: miter"/>
     <use xlink:href="#m2c527da41a" x="154.97505" y="108.081996" style="fill: #ffb400; stroke: #ffb400; stroke-linejoin: miter"/>
     <use xlink:href="#m2c527da41a" x="156.308535" y="108.081996" style="fill: #ffb400; stroke: #ffb400; stroke-linejoin: miter"/>
     <use xlink:href="#m2c527da41a" x="157.642019" y="108.081996" style="fill: #ffb400; stroke: #ffb400; stroke-linejoin: miter"/>
     <use xlink:href="#m2c527da41a" x="158.975504" y="108.081996" style="fill: #ffb400; stroke: #ffb400; stroke-linejoin: miter"/>
     <use xlink:href="#m2c527da41a" x="160.308989" y="108.081996" style="fill: #ffb400; stroke: #ffb400; stroke-linejoin: miter"/>
     <use xlink:href="#m2c527da41a" x="161.642473" y="151.071902" style="fill: #ffb400; stroke: #ffb400; stroke-linejoin: miter"/>
     <use xlink:href="#m2c527da41a" x="162.975958" y="151.071902" style="fill: #ffb400; stroke: #ffb400; stroke-linejoin: miter"/>
     <use xlink:href="#m2c527da41a" x="164.309442" y="151.071902" style="fill: #ffb400; stroke: #ffb400; stroke-linejoin: miter"/>
     <use xlink:href="#m2c527da41a" x="165.642927" y="151.071902" style="fill: #ffb400; stroke: #ffb400; stroke-linejoin: miter"/>
     <use xlink:href="#m2c527da41a" x="166.976412" y="151.071902" style="fill: #ffb400; stroke: #ffb400; stroke-linejoin: miter"/>
     <use xlink:href="#m2c527da41a" x="168.309896" y="151.071902" style="fill: #ffb400; stroke: #ffb400; stroke-linejoin: miter"/>
     <use xlink:href="#m2c527da41a" x="169.643381" y="151.071902" style="fill: #ffb400; stroke: #ffb400; stroke-linejoin: miter"/>
     <use xlink:href="#m2c527da41a" x="170.976865" y="151.071902" style="fill: #ffb400; stroke: #ffb400; stroke-linejoin: miter"/>
     <use xlink:href="#m2c527da41a" x="172.31035" y="151.071902" style="fill: #ffb400; stroke: #ffb400; stroke-linejoin: miter"/>
     <use xlink:href="#m2c527da41a" x="173.643835" y="192.675036" style="fill: #ffb400; stroke: #ffb400; stroke-linejoin: miter"/>
     <use xlink:href="#m2c527da41a" x="174.977319" y="192.675036" style="fill: #ffb400; stroke: #ffb400; stroke-linejoin: miter"/>
     <use xlink:href="#m2c527da41a" x="176.310804" y="192.675036" style="fill: #ffb400; stroke: #ffb400; stroke-linejoin: miter"/>
     <use xlink:href="#m2c527da41a" x="177.644289" y="192.675036" style="fill: #ffb400; stroke: #ffb400; stroke-linejoin: miter"/>
     <use xlink:href="#m2c527da41a" x="178.977773" y="192.675036" style="fill: #ffb400; stroke: #ffb400; stroke-linejoin: miter"/>
     <use xlink:href="#m2c527da41a" x="180.311258" y="192.675036" style="fill: #ffb400; stroke: #ffb400; stroke-linejoin: miter"/>
     <use xlink:href="#m2c527da41a" x="181.644742" y="192.675036" style="fill: #ffb400; stroke: #ffb400; stroke-linejoin: miter"/>
     <use xlink:href="#m2c527da41a" x="182.978227" y="192.675036" style="fill: #ffb400; stroke: #ffb400; stroke-linejoin: miter"/>
     <use xlink:href="#m2c527da41a" x="184.311712" y="192.675036" style="fill: #ffb400; stroke: #ffb400; stroke-linejoin: miter"/>
     <use xlink:href="#m2c527da41a" x="185.645196" y="192.675036" style="fill: #ffb400; stroke: #ffb400; stroke-linejoin: miter"/>
     <use xlink:href="#m2c527da41a" x="186.978681" y="192.675036" style="fill: #ffb400; stroke: #ffb400; stroke-linejoin: miter"/>
     <use xlink:href="#m2c527da41a" x="188.312165" y="192.675036" style="fill: #ffb400; stroke: #ffb400; stroke-linejoin: miter"/>
     <use xlink:href="#m2c527da41a" x="189.64565" y="192.675036" style="fill: #ffb400; stroke: #ffb400; stroke-linejoin: miter"/>
     <use xlink:href="#m2c527da41a" x="190.979135" y="192.675036" style="fill: #ffb400; stroke: #ffb400; stroke-linejoin: miter"/>
     <use xlink:href="#m2c527da41a" x="192.312619" y="235.664942" style="fill: #ffb400; stroke: #ffb400; stroke-linejoin: miter"/>
     <use xlink:href="#m2c527da41a" x="193.646104" y="277.268076" style="fill: #ffb400; stroke: #ffb400; stroke-linejoin: miter"/>
     <use xlink:href="#m2c527da41a" x="194.979588" y="277.268076" style="fill: #ffb400; stroke: #ffb400; stroke-linejoin: miter"/>
     <use xlink:href="#m2c527da41a" x="196.313073" y="235.664942" style="fill: #ffb400; stroke: #ffb400; stroke-linejoin: miter"/>
     <use xlink:href="#m2c527da41a" x="197.646558" y="235.664942" style="fill: #ffb400; stroke: #ffb400; stroke-linejoin: miter"/>
     <use xlink:href="#m2c527da41a" x="198.980042" y="235.664942" style="fill: #ffb400; stroke: #ffb400; stroke-linejoin: miter"/>
     <use xlink:href="#m2c527da41a" x="200.313527" y="192.675036" style="fill: #ffb400; stroke: #ffb400; stroke-linejoin: miter"/>
     <use xlink:href="#m2c527da41a" x="201.647011" y="235.664942" style="fill: #ffb400; stroke: #ffb400; stroke-linejoin: miter"/>
     <use xlink:href="#m2c527da41a" x="202.980496" y="235.664942" style="fill: #ffb400; stroke: #ffb400; stroke-linejoin: miter"/>
     <use xlink:href="#m2c527da41a" x="204.313981" y="192.675036" style="fill: #ffb400; stroke: #ffb400; stroke-linejoin: miter"/>
     <use xlink:href="#m2c527da41a" x="205.647465" y="192.675036" style="fill: #ffb400; stroke: #ffb400; stroke-linejoin: miter"/>
     <use xlink:href="#m2c527da41a" x="206.98095" y="151.071902" style="fill: #ffb400; stroke: #ffb400; stroke-linejoin: miter"/>
     <use xlink:href="#m2c527da41a" x="208.314434" y="151.071902" style="fill: #ffb400; stroke: #ffb400; stroke-linejoin: miter"/>
     <use xlink:href="#m2c527da41a" x="209.647919" y="151.071902" style="fill: #ffb400; stroke: #ffb400; stroke-linejoin: miter"/>
     <use xlink:href="#m2c527da41a" x="210.981404" y="192.675036" style="fill: #ffb400; stroke: #ffb400; stroke-linejoin: miter"/>
     <use xlink:href="#m2c527da41a" x="212.314888" y="151.071902" style="fill: #ffb400; stroke: #ffb400; stroke-linejoin: miter"/>
     <use xlink:href="#m2c527da41a" x="213.648373" y="151.071902" style="fill: #ffb400; stroke: #ffb400; stroke-linejoin: miter"/>
     <use xlink:href="#m2c527da41a" x="214.981857" y="151.071902" style="fill: #ffb400; stroke: #ffb400; stroke-linejoin: miter"/>
     <use xlink:href="#m2c527da41a" x="216.315342" y="151.071902" style="fill: #ffb400; stroke: #ffb400; stroke-linejoin: miter"/>
     <use xlink:href="#m2c527da41a" x="217.648827" y="151.071902" style="fill: #ffb400; stroke: #ffb400; stroke-linejoin: miter"/>
     <use xlink:href="#m2c527da41a" x="218.982311" y="151.071902" style="fill: #ffb400; stroke: #ffb400; stroke-linejoin: miter"/>
     <use xlink:href="#m2c527da41a" x="220.315796" y="151.071902" style="fill: #ffb400; stroke: #ffb400; stroke-linejoin: miter"/>
     <use xlink:href="#m2c527da41a" x="221.64928" y="151.071902" style="fill: #ffb400; stroke: #ffb400; stroke-linejoin: miter"/>
     <use xlink:href="#m2c527da41a" x="222.982765" y="151.071902" style="fill: #ffb400; stroke: #ffb400; stroke-linejoin: miter"/>
     <use xlink:href="#m2c527da41a" x="224.31625" y="108.081996" style="fill: #ffb400; stroke: #ffb400; stroke-linejoin: miter"/>
     <use xlink:href="#m2c527da41a" x="225.649734" y="151.071902" style="fill: #ffb400; stroke: #ffb400; stroke-linejoin: miter"/>
     <use xlink:href="#m2c527da41a" x="226.983219" y="151.071902" style="fill: #ffb400; stroke: #ffb400; stroke-linejoin: miter"/>
     <use xlink:href="#m2c527da41a" x="228.316703" y="151.071902" style="fill: #ffb400; stroke: #ffb400; stroke-linejoin: miter"/>
     <use xlink:href="#m2c527da41a" x="229.650188" y="151.071902" style="fill: #ffb400; stroke: #ffb400; stroke-linejoin: miter"/>
     <use xlink:href="#m2c527da41a" x="230.983673" y="192.675036" style="fill: #ffb400; stroke: #ffb400; stroke-linejoin: miter"/>
     <use xlink:href="#m2c527da41a" x="232.317157" y="192.675036" style="fill: #ffb400; stroke: #ffb400; stroke-linejoin: miter"/>
     <use xlink:href="#m2c527da41a" x="233.650642" y="151.071902" style="fill: #ffb400; stroke: #ffb400; stroke-linejoin: miter"/>
     <use xlink:href="#m2c527da41a" x="234.984127" y="151.071902" style="fill: #ffb400; stroke: #ffb400; stroke-linejoin: miter"/>
     <use xlink:href="#m2c527da41a" x="236.317611" y="151.071902" style="fill: #ffb400; stroke: #ffb400; stroke-linejoin: miter"/>
     <use xlink:href="#m2c527da41a" x="237.651096" y="151.071902" style="fill: #ffb400; stroke: #ffb400; stroke-linejoin: miter"/>
     <use xlink:href="#m2c527da41a" x="238.98458" y="151.071902" style="fill: #ffb400; stroke: #ffb400; stroke-linejoin: miter"/>
     <use xlink:href="#m2c527da41a" x="240.318065" y="151.071902" style="fill: #ffb400; stroke: #ffb400; stroke-linejoin: miter"/>
     <use xlink:href="#m2c527da41a" x="241.65155" y="151.071902" style="fill: #ffb400; stroke: #ffb400; stroke-linejoin: miter"/>
     <use xlink:href="#m2c527da41a" x="242.985034" y="151.071902" style="fill: #ffb400; stroke: #ffb400; stroke-linejoin: miter"/>
     <use xlink:href="#m2c527da41a" x="244.318519" y="151.071902" style="fill: #ffb400; stroke: #ffb400; stroke-linejoin: miter"/>
     <use xlink:href="#m2c527da41a" x="245.652003" y="151.071902" style="fill: #ffb400; stroke: #ffb400; stroke-linejoin: miter"/>
     <use xlink:href="#m2c527da41a" x="246.985488" y="151.071902" style="fill: #ffb400; stroke: #ffb400; stroke-linejoin: miter"/>
     <use xlink:href="#m2c527da41a" x="248.318973" y="151.071902" style="fill: #ffb400; stroke: #ffb400; stroke-linejoin: miter"/>
     <use xlink:href="#m2c527da41a" x="249.652457" y="151.071902" style="fill: #ffb400; stroke: #ffb400; stroke-linejoin: miter"/>
     <use xlink:href="#m2c527da41a" x="250.985942" y="192.675036" style="fill: #ffb400; stroke: #ffb400; stroke-linejoin: miter"/>
     <use xlink:href="#m2c527da41a" x="252.319426" y="151.071902" style="fill: #ffb400; stroke: #ffb400; stroke-linejoin: miter"/>
     <use xlink:href="#m2c527da41a" x="253.652911" y="151.071902" style="fill: #ffb400; stroke: #ffb400; stroke-linejoin: miter"/>
     <use xlink:href="#m2c527da41a" x="254.986396" y="192.675036" style="fill: #ffb400; stroke: #ffb400; stroke-linejoin: miter"/>
     <use xlink:href="#m2c527da41a" x="256.31988" y="192.675036" style="fill: #ffb400; stroke: #ffb400; stroke-linejoin: miter"/>
     <use xlink:href="#m2c527da41a" x="257.653365" y="192.675036" style="fill: #ffb400; stroke: #ffb400; stroke-linejoin: miter"/>
     <use xlink:href="#m2c527da41a" x="258.986849" y="192.675036" style="fill: #ffb400; stroke: #ffb400; stroke-linejoin: miter"/>
     <use xlink:href="#m2c527da41a" x="260.320334" y="192.675036" style="fill: #ffb400; stroke: #ffb400; stroke-linejoin: miter"/>
     <use xlink:href="#m2c527da41a" x="261.653819" y="192.675036" style="fill: #ffb400; stroke: #ffb400; stroke-linejoin: miter"/>
     <use xlink:href="#m2c527da41a" x="262.987303" y="235.664942" style="fill: #ffb400; stroke: #ffb400; stroke-linejoin: miter"/>
     <use xlink:href="#m2c527da41a" x="264.320788" y="192.675036" style="fill: #ffb400; stroke: #ffb400; stroke-linejoin: miter"/>
     <use xlink:href="#m2c527da41a" x="265.654272" y="192.675036" style="fill: #ffb400; stroke: #ffb400; stroke-linejoin: miter"/>
     <use xlink:href="#m2c527da41a" x="266.987757" y="192.675036" style="fill: #ffb400; stroke: #ffb400; stroke-linejoin: miter"/>
     <use xlink:href="#m2c527da41a" x="268.321242" y="192.675036" style="fill: #ffb400; stroke: #ffb400; stroke-linejoin: miter"/>
     <use xlink:href="#m2c527da41a" x="269.654726" y="192.675036" style="fill: #ffb400; stroke: #ffb400; stroke-linejoin: miter"/>
     <use xlink:href="#m2c527da41a" x="270.988211" y="235.664942" style="fill: #ffb400; stroke: #ffb400; stroke-linejoin: miter"/>
     <use xlink:href="#m2c527da41a" x="272.321695" y="192.675036" style="fill: #ffb400; stroke: #ffb400; stroke-linejoin: miter"/>
     <use xlink:href="#m2c527da41a" x="273.65518" y="192.675036" style="fill: #ffb400; stroke: #ffb400; stroke-linejoin: miter"/>
     <use xlink:href="#m2c527da41a" x="274.988665" y="235.664942" style="fill: #ffb400; stroke: #ffb400; stroke-linejoin: miter"/>
     <use xlink:href="#m2c527da41a" x="276.322149" y="235.664942" style="fill: #ffb400; stroke: #ffb400; stroke-linejoin: miter"/>
     <use xlink:href="#m2c527da41a" x="277.655634" y="235.664942" style="fill: #ffb400; stroke: #ffb400; stroke-linejoin: miter"/>
     <use xlink:href="#m2c527da41a" x="278.989118" y="235.664942" style="fill: #ffb400; stroke: #ffb400; stroke-linejoin: miter"/>
     <use xlink:href="#m2c527da41a" x="280.322603" y="192.675036" style="fill: #ffb400; stroke: #ffb400; stroke-linejoin: miter"/>
     <use xlink:href="#m2c527da41a" x="281.656088" y="235.664942" style="fill: #ffb400; stroke: #ffb400; stroke-linejoin: miter"/>
     <use xlink:href="#m2c527da41a" x="282.989572" y="192.675036" style="fill: #ffb400; stroke: #ffb400; stroke-linejoin: miter"/>
     <use xlink:href="#m2c527da41a" x="284.323057" y="192.675036" style="fill: #ffb400; stroke: #ffb400; stroke-linejoin: miter"/>
     <use xlink:href="#m2c527da41a" x="285.656542" y="192.675036" style="fill: #ffb400; stroke: #ffb400; stroke-linejoin: miter"/>
     <use xlink:href="#m2c527da41a" x="286.990026" y="192.675036" style="fill: #ffb400; stroke: #ffb400; stroke-linejoin: miter"/>
     <use xlink:href="#m2c527da41a" x="288.323511" y="192.675036" style="fill: #ffb400; stroke: #ffb400; stroke-linejoin: miter"/>
     <use xlink:href="#m2c527da41a" x="289.656995" y="192.675036" style="fill: #ffb400; stroke: #ffb400; stroke-linejoin: miter"/>
     <use xlink:href="#m2c527da41a" x="290.99048" y="192.675036" style="fill: #ffb400; stroke: #ffb400; stroke-linejoin: miter"/>
     <use xlink:href="#m2c527da41a" x="292.323965" y="192.675036" style="fill: #ffb400; stroke: #ffb400; stroke-linejoin: miter"/>
     <use xlink:href="#m2c527da41a" x="293.657449" y="151.071902" style="fill: #ffb400; stroke: #ffb400; stroke-linejoin: miter"/>
     <use xlink:href="#m2c527da41a" x="294.990934" y="192.675036" style="fill: #ffb400; stroke: #ffb400; stroke-linejoin: miter"/>
     <use xlink:href="#m2c527da41a" x="296.324418" y="192.675036" style="fill: #ffb400; stroke: #ffb400; stroke-linejoin: miter"/>
     <use xlink:href="#m2c527da41a" x="297.657903" y="151.071902" style="fill: #ffb400; stroke: #ffb400; stroke-linejoin: miter"/>
     <use xlink:href="#m2c527da41a" x="298.991388" y="151.071902" style="fill: #ffb400; stroke: #ffb400; stroke-linejoin: miter"/>
     <use xlink:href="#m2c527da41a" x="300.324872" y="151.071902" style="fill: #ffb400; stroke: #ffb400; stroke-linejoin: miter"/>
     <use xlink:href="#m2c527da41a" x="301.658357" y="108.081996" style="fill: #ffb400; stroke: #ffb400; stroke-linejoin: miter"/>
     <use xlink:href="#m2c527da41a" x="302.991841" y="151.071902" style="fill: #ffb400; stroke: #ffb400; stroke-linejoin: miter"/>
     <use xlink:href="#m2c527da41a" x="304.325326" y="151.071902" style="fill: #ffb400; stroke: #ffb400; stroke-linejoin: miter"/>
     <use xlink:href="#m2c527da41a" x="305.658811" y="108.081996" style="fill: #ffb400; stroke: #ffb400; stroke-linejoin: miter"/>
     <use xlink:href="#m2c527da41a" x="306.992295" y="151.071902" style="fill: #ffb400; stroke: #ffb400; stroke-linejoin: miter"/>
     <use xlink:href="#m2c527da41a" x="308.32578" y="108.081996" style="fill: #ffb400; stroke: #ffb400; stroke-linejoin: miter"/>
     <use xlink:href="#m2c527da41a" x="309.659264" y="108.081996" style="fill: #ffb400; stroke: #ffb400; stroke-linejoin: miter"/>
     <use xlink:href="#m2c527da41a" x="310.992749" y="108.081996" style="fill: #ffb400; stroke: #ffb400; stroke-linejoin: miter"/>
     <use xlink:href="#m2c527da41a" x="312.326234" y="108.081996" style="fill: #ffb400; stroke: #ffb400; stroke-linejoin: miter"/>
     <use xlink:href="#m2c527da41a" x="313.659718" y="108.081996" style="fill: #ffb400; stroke: #ffb400; stroke-linejoin: miter"/>
     <use xlink:href="#m2c527da41a" x="314.993203" y="108.081996" style="fill: #ffb400; stroke: #ffb400; stroke-linejoin: miter"/>
     <use xlink:href="#m2c527da41a" x="316.326687" y="108.081996" style="fill: #ffb400; stroke: #ffb400; stroke-linejoin: miter"/>
     <use xlink:href="#m2c527da41a" x="317.660172" y="66.478862" style="fill: #ffb400; stroke: #ffb400; stroke-linejoin: miter"/>
     <use xlink:href="#m2c527da41a" x="318.993657" y="66.478862" style="fill: #ffb400; stroke: #ffb400; stroke-linejoin: miter"/>
     <use xlink:href="#m2c527da41a" x="320.327141" y="108.081996" style="fill: #ffb400; stroke: #ffb400; stroke-linejoin: miter"/>
     <use xlink:href="#m2c527da41a" x="321.660626" y="66.478862" style="fill: #ffb400; stroke: #ffb400; stroke-linejoin: miter"/>
     <use xlink:href="#m2c527da41a" x="322.99411" y="108.081996" style="fill: #ffb400; stroke: #ffb400; stroke-linejoin: miter"/>
     <use xlink:href="#m2c527da41a" x="324.327595" y="108.081996" style="fill: #ffb400; stroke: #ffb400; stroke-linejoin: miter"/>
     <use xlink:href="#m2c527da41a" x="325.66108" y="23.488956" style="fill: #ffb400; stroke: #ffb400; stroke-linejoin: miter"/>
     <use xlink:href="#m2c527da41a" x="326.994564" y="66.478862" style="fill: #ffb400; stroke: #ffb400; stroke-linejoin: miter"/>
     <use xlink:href="#m2c527da41a" x="328.328049" y="23.488956" style="fill: #ffb400; stroke: #ffb400; stroke-linejoin: miter"/>
     <use xlink:href="#m2c527da41a" x="329.661533" y="23.488956" style="fill: #ffb400; stroke: #ffb400; stroke-linejoin: miter"/>
     <use xlink:href="#m2c527da41a" x="330.995018" y="66.478862" style="fill: #ffb400; stroke: #ffb400; stroke-linejoin: miter"/>
     <use xlink:href="#m2c527da41a" x="332.328503" y="108.081996" style="fill: #ffb400; stroke: #ffb400; stroke-linejoin: miter"/>
     <use xlink:href="#m2c527da41a" x="333.661987" y="66.478862" style="fill: #ffb400; stroke: #ffb400; stroke-linejoin: miter"/>
     <use xlink:href="#m2c527da41a" x="334.995472" y="108.081996" style="fill: #ffb400; stroke: #ffb400; stroke-linejoin: miter"/>
     <use xlink:href="#m2c527da41a" x="336.328956" y="108.081996" style="fill: #ffb400; stroke: #ffb400; stroke-linejoin: miter"/>
     <use xlink:href="#m2c527da41a" x="337.662441" y="108.081996" style="fill: #ffb400; stroke: #ffb400; stroke-linejoin: miter"/>
     <use xlink:href="#m2c527da41a" x="338.995926" y="108.081996" style="fill: #ffb400; stroke: #ffb400; stroke-linejoin: miter"/>
     <use xlink:href="#m2c527da41a" x="340.32941" y="108.081996" style="fill: #ffb400; stroke: #ffb400; stroke-linejoin: miter"/>
     <use xlink:href="#m2c527da41a" x="341.662895" y="151.071902" style="fill: #ffb400; stroke: #ffb400; stroke-linejoin: miter"/>
     <use xlink:href="#m2c527da41a" x="342.99638" y="151.071902" style="fill: #ffb400; stroke: #ffb400; stroke-linejoin: miter"/>
     <use xlink:href="#m2c527da41a" x="344.329864" y="108.081996" style="fill: #ffb400; stroke: #ffb400; stroke-linejoin: miter"/>
     <use xlink:href="#m2c527da41a" x="345.663349" y="151.071902" style="fill: #ffb400; stroke: #ffb400; stroke-linejoin: miter"/>
     <use xlink:href="#m2c527da41a" x="346.996833" y="151.071902" style="fill: #ffb400; stroke: #ffb400; stroke-linejoin: miter"/>
     <use xlink:href="#m2c527da41a" x="348.330318" y="151.071902" style="fill: #ffb400; stroke: #ffb400; stroke-linejoin: miter"/>
     <use xlink:href="#m2c527da41a" x="349.663803" y="151.071902" style="fill: #ffb400; stroke: #ffb400; stroke-linejoin: miter"/>
     <use xlink:href="#m2c527da41a" x="350.997287" y="151.071902" style="fill: #ffb400; stroke: #ffb400; stroke-linejoin: miter"/>
     <use xlink:href="#m2c527da41a" x="352.330772" y="151.071902" style="fill: #ffb400; stroke: #ffb400; stroke-linejoin: miter"/>
     <use xlink:href="#m2c527da41a" x="353.664256" y="151.071902" style="fill: #ffb400; stroke: #ffb400; stroke-linejoin: miter"/>
     <use xlink:href="#m2c527da41a" x="354.997741" y="151.071902" style="fill: #ffb400; stroke: #ffb400; stroke-linejoin: miter"/>
     <use xlink:href="#m2c527da41a" x="356.331226" y="151.071902" style="fill: #ffb400; stroke: #ffb400; stroke-linejoin: miter"/>
     <use xlink:href="#m2c527da41a" x="357.66471" y="151.071902" style="fill: #ffb400; stroke: #ffb400; stroke-linejoin: miter"/>
     <use xlink:href="#m2c527da41a" x="358.998195" y="151.071902" style="fill: #ffb400; stroke: #ffb400; stroke-linejoin: miter"/>
     <use xlink:href="#m2c527da41a" x="360.331679" y="151.071902" style="fill: #ffb400; stroke: #ffb400; stroke-linejoin: miter"/>
     <use xlink:href="#m2c527da41a" x="361.665164" y="151.071902" style="fill: #ffb400; stroke: #ffb400; stroke-linejoin: miter"/>
     <use xlink:href="#m2c527da41a" x="362.998649" y="151.071902" style="fill: #ffb400; stroke: #ffb400; stroke-linejoin: miter"/>
     <use xlink:href="#m2c527da41a" x="364.332133" y="108.081996" style="fill: #ffb400; stroke: #ffb400; stroke-linejoin: miter"/>
    </g>
   </g>
   <g id="patch_3">
    <path d="M 85.700525 289.957032 
L 85.700525 10.8 
" style="fill: none; stroke: #000000; stroke-width: 0.8; stroke-linejoin: miter; stroke-linecap: square"/>
   </g>
   <g id="patch_4">
    <path d="M 377.600305 289.957032 
L 377.600305 10.8 
" style="fill: none; stroke: #000000; stroke-width: 0.8; stroke-linejoin: miter; stroke-linecap: square"/>
   </g>
   <g id="patch_5">
    <path d="M 85.700525 289.957032 
L 377.600305 289.957032 
" style="fill: none; stroke: #000000; stroke-width: 0.8; stroke-linejoin: miter; stroke-linecap: square"/>
   </g>
   <g id="patch_6">
    <path d="M 85.700525 10.8 
L 377.600305 10.8 
" style="fill: none; stroke: #000000; stroke-width: 0.8; stroke-linejoin: miter; stroke-linecap: square"/>
   </g>
  </g>
  <g id="axes_2">
   <g id="matplotlib.axis_3">
    <g id="ytick_5">
     <g id="line2d_11">
      <defs>
       <path id="mbb26735942" d="M 0 0 
L 3.5 0 
" style="stroke: #000000; stroke-width: 0.8"/>
      </defs>
      <g>
       <use xlink:href="#mbb26735942" x="377.600305" y="238.883788" style="stroke: #000000; stroke-width: 0.8"/>
      </g>
     </g>
     <g id="text_12">
      <!-- $\mathdefault{0.20}$ -->
      <g transform="translate(384.600305 245.110438) scale(0.18 -0.18)">
       <defs>
        <path id="CMSY10-0" d="M 4218 1472 
C 4326 1472 4442 1472 4442 1600 
C 4442 1728 4326 1728 4218 1728 
L 755 1728 
C 646 1728 531 1728 531 1600 
C 531 1472 646 1472 755 1472 
L 4218 1472 
z
" transform="scale(0.015625)"/>
       </defs>
       <use xlink:href="#CMSY10-0" transform="scale(0.996264)"/>
       <use xlink:href="#CMR17-30" transform="translate(77.487468 0) scale(0.996264)"/>
       <use xlink:href="#CMMI12-3a" transform="translate(123.177945 0) scale(0.996264)"/>
       <use xlink:href="#CMR17-32" transform="translate(150.275122 0) scale(0.996264)"/>
       <use xlink:href="#CMR17-30" transform="translate(195.965599 0) scale(0.996264)"/>
      </g>
     </g>
    </g>
    <g id="ytick_6">
     <g id="line2d_12">
      <g>
       <use xlink:href="#mbb26735942" x="377.600305" y="186.318414" style="stroke: #000000; stroke-width: 0.8"/>
      </g>
     </g>
     <g id="text_13">
      <!-- $\mathdefault{0.15}$ -->
      <g transform="translate(384.600305 192.545064) scale(0.18 -0.18)">
       <use xlink:href="#CMSY10-0" transform="scale(0.996264)"/>
       <use xlink:href="#CMR17-30" transform="translate(77.487468 0) scale(0.996264)"/>
       <use xlink:href="#CMMI12-3a" transform="translate(123.177945 0) scale(0.996264)"/>
       <use xlink:href="#CMR17-31" transform="translate(150.275122 0) scale(0.996264)"/>
       <use xlink:href="#CMR17-35" transform="translate(195.965599 0) scale(0.996264)"/>
      </g>
     </g>
    </g>
    <g id="ytick_7">
     <g id="line2d_13">
      <g>
       <use xlink:href="#mbb26735942" x="377.600305" y="133.75304" style="stroke: #000000; stroke-width: 0.8"/>
      </g>
     </g>
     <g id="text_14">
      <!-- $\mathdefault{0.10}$ -->
      <g transform="translate(384.600305 139.97969) scale(0.18 -0.18)">
       <use xlink:href="#CMSY10-0" transform="scale(0.996264)"/>
       <use xlink:href="#CMR17-30" transform="translate(77.487468 0) scale(0.996264)"/>
       <use xlink:href="#CMMI12-3a" transform="translate(123.177945 0) scale(0.996264)"/>
       <use xlink:href="#CMR17-31" transform="translate(150.275122 0) scale(0.996264)"/>
       <use xlink:href="#CMR17-30" transform="translate(195.965599 0) scale(0.996264)"/>
      </g>
     </g>
    </g>
    <g id="ytick_8">
     <g id="line2d_14">
      <g>
       <use xlink:href="#mbb26735942" x="377.600305" y="81.187665" style="stroke: #000000; stroke-width: 0.8"/>
      </g>
     </g>
     <g id="text_15">
      <!-- $\mathdefault{0.05}$ -->
      <g transform="translate(384.600305 87.414315) scale(0.18 -0.18)">
       <use xlink:href="#CMSY10-0" transform="scale(0.996264)"/>
       <use xlink:href="#CMR17-30" transform="translate(77.487468 0) scale(0.996264)"/>
       <use xlink:href="#CMMI12-3a" transform="translate(123.177945 0) scale(0.996264)"/>
       <use xlink:href="#CMR17-30" transform="translate(150.275122 0) scale(0.996264)"/>
       <use xlink:href="#CMR17-35" transform="translate(195.965599 0) scale(0.996264)"/>
      </g>
     </g>
    </g>
    <g id="ytick_9">
     <g id="line2d_15">
      <g>
       <use xlink:href="#mbb26735942" x="377.600305" y="28.622291" style="stroke: #000000; stroke-width: 0.8"/>
      </g>
     </g>
     <g id="text_16">
      <!-- $\mathdefault{0.00}$ -->
      <g transform="translate(384.600305 34.848941) scale(0.18 -0.18)">
       <use xlink:href="#CMR17-30" transform="scale(0.996264)"/>
       <use xlink:href="#CMMI12-3a" transform="translate(45.690477 0) scale(0.996264)"/>
       <use xlink:href="#CMR17-30" transform="translate(72.787654 0) scale(0.996264)"/>
       <use xlink:href="#CMR17-30" transform="translate(118.478131 0) scale(0.996264)"/>
      </g>
     </g>
    </g>
    <g id="text_17">
     <!-- Analog output [V] -->
     <g transform="translate(445.531816 216.061822) rotate(-90) scale(0.18 -0.18)">
      <use xlink:href="#CMR17-41" transform="scale(0.996264)"/>
      <use xlink:href="#CMR17-6e" transform="translate(69.07243 0) scale(0.996264)"/>
      <use xlink:href="#CMR17-61" transform="translate(119.9678 0) scale(0.996264)"/>
      <use xlink:href="#CMR17-6c" transform="translate(165.658277 0) scale(0.996264)"/>
      <use xlink:href="#CMR17-6f" transform="translate(190.529335 0) scale(0.996264)"/>
      <use xlink:href="#CMR17-67" transform="translate(236.219812 0) scale(0.996264)"/>
      <use xlink:href="#CMR17-6f" transform="translate(311.986256 0) scale(0.996264)"/>
      <use xlink:href="#CMR17-75" transform="translate(357.676733 0) scale(0.996264)"/>
      <use xlink:href="#CMR17-74" transform="translate(408.572103 0) scale(0.996264)"/>
      <use xlink:href="#CMR17-70" transform="translate(443.85287 0) scale(0.996264)"/>
      <use xlink:href="#CMR17-75" transform="translate(494.74824 0) scale(0.996264)"/>
      <use xlink:href="#CMR17-74" transform="translate(545.64361 0) scale(0.996264)"/>
      <use xlink:href="#CMR17-5b" transform="translate(611.000344 0) scale(0.996264)"/>
      <use xlink:href="#CMR17-56" transform="translate(635.871403 0) scale(0.996264)"/>
      <use xlink:href="#CMR17-5d" transform="translate(704.943832 0) scale(0.996264)"/>
     </g>
    </g>
   </g>
   <g id="line2d_16">
    <path d="M 98.968697 142.197141 
L 100.302181 137.705956 
L 101.635666 142.197141 
L 102.969151 143.801436 
L 104.302635 141.235195 
L 105.63612 147.010027 
L 106.969604 152.143561 
L 108.303089 149.25562 
L 109.636574 154.068505 
L 110.970058 157.276045 
L 112.303543 152.784859 
L 113.637027 157.597745 
L 114.970512 155.993449 
L 116.303997 155.993449 
L 117.637481 151.821861 
L 118.970966 155.672801 
L 120.304451 147.330676 
L 121.637935 142.51779 
L 122.97142 141.876492 
L 124.304904 132.251562 
L 125.638389 126.47652 
L 126.971874 125.834907 
L 128.305358 115.247399 
L 129.638843 114.92654 
L 130.972327 114.284822 
L 132.305812 104.659892 
L 134.972781 99.526463 
L 136.306266 86.693152 
L 137.63975 83.164018 
L 138.973235 76.747363 
L 140.30672 64.876524 
L 141.640204 65.838996 
L 142.973689 55.893102 
L 144.307173 49.155588 
L 145.640658 49.155588 
L 146.974143 51.722355 
L 148.307627 47.551503 
L 149.641112 40.17227 
L 150.974596 44.98484 
L 152.308081 36.322298 
L 153.641566 34.718129 
L 154.97505 34.076463 
L 156.308535 25.734791 
L 157.642019 28.301457 
L 158.975504 28.943125 
L 160.308989 23.488956 
L 161.642473 26.376456 
L 162.975958 33.11396 
L 164.309442 26.055618 
L 165.642927 32.793132 
L 166.976412 35.038967 
L 168.309896 30.547287 
L 169.643381 37.284802 
L 170.976865 37.926467 
L 172.31035 35.038967 
L 173.643835 45.947312 
L 174.977319 45.947312 
L 176.310804 48.834834 
L 177.644289 51.080637 
L 178.977773 61.668144 
L 180.311258 65.838996 
L 181.644742 67.443186 
L 182.978227 74.822314 
L 184.311712 75.784786 
L 185.645196 79.955638 
L 186.978681 86.693152 
L 188.312165 85.409821 
L 189.64565 87.655624 
L 190.979135 97.601519 
L 192.312619 113.643209 
L 194.979588 133.856068 
L 196.313073 133.214034 
L 197.646558 141.235195 
L 198.980042 145.085083 
L 200.313527 140.272197 
L 201.647011 151.821861 
L 202.980496 151.821861 
L 204.313981 144.122085 
L 205.647465 147.971973 
L 206.98095 144.764434 
L 208.314434 147.010027 
L 209.647919 142.83949 
L 210.981404 150.539266 
L 212.314888 150.218617 
L 213.648373 152.143561 
L 214.981857 153.426157 
L 216.315342 147.971973 
L 217.648827 148.934971 
L 218.982311 153.105508 
L 220.315796 150.859915 
L 221.64928 149.896917 
L 222.982765 147.971973 
L 224.31625 142.197141 
L 225.649734 148.293673 
L 226.983219 151.501213 
L 228.316703 148.934971 
L 229.650188 154.709803 
L 230.983673 159.843337 
L 232.317157 159.843337 
L 233.650642 155.030452 
L 234.984127 159.522689 
L 236.317611 156.314098 
L 237.651096 151.501213 
L 238.98458 158.239042 
L 240.318065 152.143561 
L 241.65155 149.576269 
L 242.985034 152.784859 
L 244.318519 148.934971 
L 245.652003 146.689378 
L 246.985488 151.501213 
L 248.318973 146.368729 
L 249.652457 149.25562 
L 250.985942 157.276045 
L 252.319426 150.539266 
L 253.652911 156.634747 
L 254.986396 164.656223 
L 256.31988 166.581167 
L 257.653365 172.676648 
L 258.986849 180.055775 
L 260.320334 179.735126 
L 261.653819 179.735126 
L 262.987303 189.680495 
L 264.320788 193.852083 
L 265.654272 194.172732 
L 266.987757 200.588862 
L 268.321242 203.476803 
L 269.654726 207.326691 
L 270.988211 215.989465 
L 272.321695 219.197004 
L 273.65518 220.801299 
L 274.988665 233.955259 
L 276.322149 237.806198 
L 277.655634 244.222328 
L 278.989118 253.526399 
L 280.322603 251.922104 
L 281.656088 258.018636 
L 282.989572 261.868524 
L 284.323057 258.659933 
L 285.656542 261.226175 
L 286.990026 266.039061 
L 288.323511 263.472819 
L 289.656995 263.472819 
L 290.99048 268.605302 
L 292.323965 271.813893 
L 293.657449 268.605302 
L 294.990934 275.022483 
L 296.324418 277.268076 
L 297.657903 270.531298 
L 298.991388 273.738837 
L 300.324872 268.927002 
L 301.658357 263.151119 
L 302.991841 267.643356 
L 304.325326 262.189173 
L 305.658811 259.301231 
L 306.992295 260.905526 
L 308.32578 255.130694 
L 309.659264 251.280806 
L 310.992749 250.317809 
L 313.659718 237.163849 
L 314.993203 235.559554 
L 316.326687 227.539129 
L 317.660172 220.801299 
L 318.993657 220.801299 
L 320.327141 218.555707 
L 321.660626 208.930987 
L 322.99411 210.213582 
L 324.327595 209.251635 
L 325.66108 185.18931 
L 326.994564 179.092778 
L 328.328049 166.901816 
L 329.661533 159.843337 
L 330.995018 155.993449 
L 332.328503 161.768281 
L 333.661987 146.368729 
L 334.995472 155.351101 
L 336.328956 146.368729 
L 337.662441 149.896917 
L 338.995926 149.896917 
L 340.32941 146.368729 
L 341.662895 147.971973 
L 342.99638 149.896917 
L 344.329864 143.160139 
L 345.663349 144.122085 
L 346.996833 144.442734 
L 348.330318 144.442734 
L 349.663803 141.555844 
L 350.997287 145.085083 
L 352.330772 143.480788 
L 353.664256 138.988551 
L 354.997741 144.442734 
L 356.331226 148.293673 
L 357.66471 144.122085 
L 358.998195 147.971973 
L 360.331679 147.971973 
L 361.665164 143.480788 
L 362.998649 145.405732 
L 364.332133 138.667902 
L 364.332133 138.667902 
" clip-path="url(#p2c8ced76fd)" style="fill: none; stroke: #776bcd; stroke-width: 1.5; stroke-linecap: square"/>
   </g>
   <g id="patch_7">
    <path d="M 85.700525 289.957032 
L 85.700525 10.8 
" style="fill: none; stroke: #000000; stroke-width: 0.8; stroke-linejoin: miter; stroke-linecap: square"/>
   </g>
   <g id="patch_8">
    <path d="M 377.600305 289.957032 
L 377.600305 10.8 
" style="fill: none; stroke: #000000; stroke-width: 0.8; stroke-linejoin: miter; stroke-linecap: square"/>
   </g>
   <g id="patch_9">
    <path d="M 85.700525 289.957032 
L 377.600305 289.957032 
" style="fill: none; stroke: #000000; stroke-width: 0.8; stroke-linejoin: miter; stroke-linecap: square"/>
   </g>
   <g id="patch_10">
    <path d="M 85.700525 10.8 
L 377.600305 10.8 
" style="fill: none; stroke: #000000; stroke-width: 0.8; stroke-linejoin: miter; stroke-linecap: square"/>
   </g>
   <g id="legend_1">
    <g id="patch_11">
     <path d="M 98.300525 280.957032 
L 334.277844 280.957032 
Q 337.877844 280.957032 337.877844 277.357032 
L 337.877844 228.980904 
Q 337.877844 225.380904 334.277844 225.380904 
L 98.300525 225.380904 
Q 94.700525 225.380904 94.700525 228.980904 
L 94.700525 277.357032 
Q 94.700525 280.957032 98.300525 280.957032 
z
" style="fill: #ffffff; opacity: 0.8; stroke: #cccccc; stroke-linejoin: miter"/>
    </g>
    <g id="line2d_17">
     <path d="M 101.900525 238.880904 
L 119.900525 238.880904 
L 137.900525 238.880904 
" style="fill: none; stroke: #ffb400; stroke-width: 1.5; stroke-linecap: square"/>
     <g>
      <use xlink:href="#m2c527da41a" x="119.900525" y="238.880904" style="fill: #ffb400; stroke: #ffb400; stroke-linejoin: miter"/>
     </g>
    </g>
    <g id="text_18">
     <!-- Analog input, Oct 15th -->
     <g transform="translate(152.300525 245.180904) scale(0.18 -0.18)">
      <defs>
       <path id="CMR17-2c" d="M 1011 102 
C 1024 44 1024 25 1024 -76 
C 1024 -451 896 -795 627 -1108 
C 595 -1140 595 -1152 595 -1165 
C 595 -1191 621 -1216 646 -1216 
C 685 -1216 1126 -776 1126 -82 
C 1126 128 1101 524 800 524 
C 659 524 538 428 538 262 
C 538 96 659 0 800 0 
C 877 0 960 32 1011 102 
z
" transform="scale(0.015625)"/>
       <path id="CMR17-4f" d="M 4307 2166 
C 4307 3488 3366 4480 2304 4480 
C 1216 4480 294 3475 294 2166 
C 294 857 1229 -128 2298 -128 
C 3392 -128 4307 876 4307 2166 
z
M 2304 -13 
C 1574 -13 781 722 781 2250 
C 781 3771 1651 4364 2298 4364 
C 2976 4364 3821 3752 3821 2250 
C 3821 696 3008 -13 2304 -13 
z
" transform="scale(0.015625)"/>
       <path id="CMR17-63" d="M 2234 2240 
C 2112 2240 1933 2240 1933 2015 
C 1933 1836 2080 1785 2163 1785 
C 2208 1785 2394 1804 2394 2028 
C 2394 2476 1958 2816 1466 2816 
C 787 2816 211 2201 211 1379 
C 211 521 813 -64 1466 -64 
C 2259 -64 2458 676 2458 747 
C 2458 773 2451 792 2406 792 
C 2362 792 2355 786 2330 702 
C 2163 180 1798 51 1523 51 
C 1114 51 621 431 621 1385 
C 621 2358 1094 2700 1472 2700 
C 1722 2700 2093 2582 2234 2240 
z
" transform="scale(0.015625)"/>
       <path id="CMR17-68" d="M 2656 1954 
C 2656 2282 2592 2816 1837 2816 
C 1312 2816 1056 2392 979 2179 
L 973 2179 
L 973 4416 
L 211 4345 
L 211 4179 
C 589 4179 646 4141 646 3843 
L 646 443 
C 646 198 621 166 211 166 
L 211 0 
C 365 12 646 12 813 12 
C 979 12 1267 12 1421 0 
L 1421 166 
C 1011 166 986 192 986 443 
L 986 1678 
C 986 2269 1344 2713 1792 2713 
C 2266 2713 2317 2289 2317 1980 
L 2317 443 
C 2317 198 2291 166 1882 166 
L 1882 0 
C 2035 12 2317 12 2483 12 
C 2650 12 2938 12 3091 0 
L 3091 166 
C 2682 166 2656 192 2656 443 
L 2656 1954 
z
" transform="scale(0.015625)"/>
      </defs>
      <use xlink:href="#CMR17-41" transform="scale(0.996264)"/>
      <use xlink:href="#CMR17-6e" transform="translate(69.07243 0) scale(0.996264)"/>
      <use xlink:href="#CMR17-61" transform="translate(119.9678 0) scale(0.996264)"/>
      <use xlink:href="#CMR17-6c" transform="translate(165.658277 0) scale(0.996264)"/>
      <use xlink:href="#CMR17-6f" transform="translate(190.529335 0) scale(0.996264)"/>
      <use xlink:href="#CMR17-67" transform="translate(236.219812 0) scale(0.996264)"/>
      <use xlink:href="#CMR17-69" transform="translate(311.986256 0) scale(0.996264)"/>
      <use xlink:href="#CMR17-6e" transform="translate(336.857314 0) scale(0.996264)"/>
      <use xlink:href="#CMR17-70" transform="translate(387.752684 0) scale(0.996264)"/>
      <use xlink:href="#CMR17-75" transform="translate(438.648054 0) scale(0.996264)"/>
      <use xlink:href="#CMR17-74" transform="translate(489.543424 0) scale(0.996264)"/>
      <use xlink:href="#CMR17-2c" transform="translate(524.824191 0) scale(0.996264)"/>
      <use xlink:href="#CMR17-4f" transform="translate(579.771216 0) scale(0.996264)"/>
      <use xlink:href="#CMR17-63" transform="translate(651.486005 0) scale(0.996264)"/>
      <use xlink:href="#CMR17-74" transform="translate(691.971665 0) scale(0.996264)"/>
      <use xlink:href="#CMR17-31" transform="translate(757.328399 0) scale(0.996264)"/>
      <use xlink:href="#CMR17-35" transform="translate(803.018876 0) scale(0.996264)"/>
      <use xlink:href="#CMR17-74" transform="translate(848.709353 0) scale(0.996264)"/>
      <use xlink:href="#CMR17-68" transform="translate(883.990121 0) scale(0.996264)"/>
     </g>
    </g>
    <g id="line2d_18">
     <path d="M 101.900525 263.968968 
L 119.900525 263.968968 
L 137.900525 263.968968 
" style="fill: none; stroke: #776bcd; stroke-width: 1.5; stroke-linecap: square"/>
    </g>
    <g id="text_19">
     <!-- Analog output, Oct 15th -->
     <g transform="translate(152.300525 270.268968) scale(0.18 -0.18)">
      <use xlink:href="#CMR17-41" transform="scale(0.996264)"/>
      <use xlink:href="#CMR17-6e" transform="translate(69.07243 0) scale(0.996264)"/>
      <use xlink:href="#CMR17-61" transform="translate(119.9678 0) scale(0.996264)"/>
      <use xlink:href="#CMR17-6c" transform="translate(165.658277 0) scale(0.996264)"/>
      <use xlink:href="#CMR17-6f" transform="translate(190.529335 0) scale(0.996264)"/>
      <use xlink:href="#CMR17-67" transform="translate(236.219812 0) scale(0.996264)"/>
      <use xlink:href="#CMR17-6f" transform="translate(311.986256 0) scale(0.996264)"/>
      <use xlink:href="#CMR17-75" transform="translate(357.676733 0) scale(0.996264)"/>
      <use xlink:href="#CMR17-74" transform="translate(408.572103 0) scale(0.996264)"/>
      <use xlink:href="#CMR17-70" transform="translate(443.85287 0) scale(0.996264)"/>
      <use xlink:href="#CMR17-75" transform="translate(494.74824 0) scale(0.996264)"/>
      <use xlink:href="#CMR17-74" transform="translate(545.64361 0) scale(0.996264)"/>
      <use xlink:href="#CMR17-2c" transform="translate(580.924378 0) scale(0.996264)"/>
      <use xlink:href="#CMR17-4f" transform="translate(635.871403 0) scale(0.996264)"/>
      <use xlink:href="#CMR17-63" transform="translate(707.586191 0) scale(0.996264)"/>
      <use xlink:href="#CMR17-74" transform="translate(748.071852 0) scale(0.996264)"/>
      <use xlink:href="#CMR17-31" transform="translate(813.428586 0) scale(0.996264)"/>
      <use xlink:href="#CMR17-35" transform="translate(859.119063 0) scale(0.996264)"/>
      <use xlink:href="#CMR17-74" transform="translate(904.80954 0) scale(0.996264)"/>
      <use xlink:href="#CMR17-68" transform="translate(940.090308 0) scale(0.996264)"/>
     </g>
    </g>
   </g>
  </g>
 </g>
 <defs>
  <clipPath id="p2c8ced76fd">
   <rect x="85.700525" y="10.8" width="291.89978" height="279.157032"/>
  </clipPath>
 </defs>
</svg>
