<?xml version="1.0" encoding="utf-8" standalone="no"?>
<!DOCTYPE svg PUBLIC "-//W3C//DTD SVG 1.1//EN"
  "http://www.w3.org/Graphics/SVG/1.1/DTD/svg11.dtd">
<svg xmlns:xlink="http://www.w3.org/1999/xlink" width="460.8pt" height="345.6pt" viewBox="0 0 460.8 345.6" xmlns="http://www.w3.org/2000/svg" version="1.1">
 <metadata>
  <rdf:RDF xmlns:dc="http://purl.org/dc/elements/1.1/" xmlns:cc="http://creativecommons.org/ns#" xmlns:rdf="http://www.w3.org/1999/02/22-rdf-syntax-ns#">
   <cc:Work>
    <dc:type rdf:resource="http://purl.org/dc/dcmitype/StillImage"/>
    <dc:date>2024-11-24T11:18:27.627204</dc:date>
    <dc:format>image/svg+xml</dc:format>
    <dc:creator>
     <cc:Agent>
      <dc:title>Matplotlib v3.6.3, https://matplotlib.org/</dc:title>
     </cc:Agent>
    </dc:creator>
   </cc:Work>
  </rdf:RDF>
 </metadata>
 <defs>
  <style type="text/css">*{stroke-linejoin: round; stroke-linecap: butt}</style>
 </defs>
 <g id="figure_1">
  <g id="patch_1">
   <path d="M 0 345.6 
L 460.8 345.6 
L 460.8 0 
L 0 0 
z
" style="fill: #ffffff"/>
  </g>
  <g id="axes_1">
   <g id="patch_2">
    <path d="M 57.6 307.584 
L 414.72 307.584 
L 414.72 41.472 
L 57.6 41.472 
z
" style="fill: #ffffff"/>
   </g>
   <g id="matplotlib.axis_1">
    <g id="xtick_1">
     <g id="line2d_1">
      <defs>
       <path id="md8e3ed2626" d="M 0 0 
L 0 3.5 
" style="stroke: #000000; stroke-width: 0.8"/>
      </defs>
      <g>
       <use xlink:href="#md8e3ed2626" x="73.832727" y="307.584" style="stroke: #000000; stroke-width: 0.8"/>
      </g>
     </g>
     <g id="text_1">
      <!-- $\mathdefault{0.0}$ -->
      <g transform="translate(63.169695 327.0373) scale(0.18 -0.18)">
       <defs>
        <path id="CMR17-30" d="M 2688 2038 
C 2688 2430 2682 3099 2413 3613 
C 2176 4063 1798 4224 1466 4224 
C 1158 4224 768 4082 525 3620 
C 269 3137 243 2539 243 2038 
C 243 1671 250 1112 448 623 
C 723 -39 1216 -128 1466 -128 
C 1760 -128 2208 -7 2470 604 
C 2662 1048 2688 1568 2688 2038 
z
M 1466 -26 
C 1056 -26 813 328 723 816 
C 653 1196 653 1749 653 2109 
C 653 2604 653 3015 736 3407 
C 858 3954 1216 4121 1466 4121 
C 1728 4121 2067 3947 2189 3420 
C 2272 3054 2278 2623 2278 2109 
C 2278 1691 2278 1176 2202 797 
C 2067 96 1690 -26 1466 -26 
z
" transform="scale(0.015625)"/>
        <path id="CMMI12-3a" d="M 1178 307 
C 1178 492 1024 620 870 620 
C 685 620 557 467 557 313 
C 557 128 710 0 864 0 
C 1050 0 1178 153 1178 307 
z
" transform="scale(0.015625)"/>
       </defs>
       <use xlink:href="#CMR17-30" transform="scale(0.996264)"/>
       <use xlink:href="#CMMI12-3a" transform="translate(45.690477 0) scale(0.996264)"/>
       <use xlink:href="#CMR17-30" transform="translate(72.787654 0) scale(0.996264)"/>
      </g>
     </g>
    </g>
    <g id="xtick_2">
     <g id="line2d_2">
      <g>
       <use xlink:href="#md8e3ed2626" x="155.404221" y="307.584" style="stroke: #000000; stroke-width: 0.8"/>
      </g>
     </g>
     <g id="text_2">
      <!-- $\mathdefault{0.5}$ -->
      <g transform="translate(144.741189 327.0373) scale(0.18 -0.18)">
       <defs>
        <path id="CMR17-35" d="M 730 3750 
C 794 3724 1056 3641 1325 3641 
C 1920 3641 2246 3961 2432 4140 
C 2432 4191 2432 4224 2394 4224 
C 2387 4224 2374 4224 2323 4198 
C 2099 4102 1837 4032 1517 4032 
C 1325 4032 1037 4055 723 4191 
C 653 4224 640 4224 634 4224 
C 602 4224 595 4217 595 4090 
L 595 2231 
C 595 2113 595 2080 659 2080 
C 691 2080 704 2093 736 2139 
C 941 2435 1222 2560 1542 2560 
C 1766 2560 2246 2415 2246 1293 
C 2246 1087 2246 716 2054 422 
C 1894 159 1645 25 1370 25 
C 947 25 518 319 403 812 
C 429 806 480 793 506 793 
C 589 793 749 838 749 1036 
C 749 1209 627 1280 506 1280 
C 358 1280 262 1190 262 1011 
C 262 454 704 -128 1382 -128 
C 2042 -128 2669 441 2669 1267 
C 2669 2054 2170 2662 1549 2662 
C 1222 2662 947 2540 730 2304 
L 730 3750 
z
" transform="scale(0.015625)"/>
       </defs>
       <use xlink:href="#CMR17-30" transform="scale(0.996264)"/>
       <use xlink:href="#CMMI12-3a" transform="translate(45.690477 0) scale(0.996264)"/>
       <use xlink:href="#CMR17-35" transform="translate(72.787654 0) scale(0.996264)"/>
      </g>
     </g>
    </g>
    <g id="xtick_3">
     <g id="line2d_3">
      <g>
       <use xlink:href="#md8e3ed2626" x="236.975715" y="307.584" style="stroke: #000000; stroke-width: 0.8"/>
      </g>
     </g>
     <g id="text_3">
      <!-- $\mathdefault{1.0}$ -->
      <g transform="translate(226.312683 327.0373) scale(0.18 -0.18)">
       <defs>
        <path id="CMR17-31" d="M 1702 4083 
C 1702 4217 1696 4224 1606 4224 
C 1357 3927 979 3833 621 3820 
C 602 3820 570 3820 563 3808 
C 557 3795 557 3782 557 3648 
C 755 3648 1088 3686 1344 3839 
L 1344 467 
C 1344 243 1331 166 781 166 
L 589 166 
L 589 0 
C 896 6 1216 12 1523 12 
C 1830 12 2150 6 2458 0 
L 2458 166 
L 2266 166 
C 1715 166 1702 236 1702 467 
L 1702 4083 
z
" transform="scale(0.015625)"/>
       </defs>
       <use xlink:href="#CMR17-31" transform="scale(0.996264)"/>
       <use xlink:href="#CMMI12-3a" transform="translate(45.690477 0) scale(0.996264)"/>
       <use xlink:href="#CMR17-30" transform="translate(72.787654 0) scale(0.996264)"/>
      </g>
     </g>
    </g>
    <g id="xtick_4">
     <g id="line2d_4">
      <g>
       <use xlink:href="#md8e3ed2626" x="318.547209" y="307.584" style="stroke: #000000; stroke-width: 0.8"/>
      </g>
     </g>
     <g id="text_4">
      <!-- $\mathdefault{1.5}$ -->
      <g transform="translate(307.884177 327.0373) scale(0.18 -0.18)">
       <use xlink:href="#CMR17-31" transform="scale(0.996264)"/>
       <use xlink:href="#CMMI12-3a" transform="translate(45.690477 0) scale(0.996264)"/>
       <use xlink:href="#CMR17-35" transform="translate(72.787654 0) scale(0.996264)"/>
      </g>
     </g>
    </g>
    <g id="xtick_5">
     <g id="line2d_5">
      <g>
       <use xlink:href="#md8e3ed2626" x="400.118703" y="307.584" style="stroke: #000000; stroke-width: 0.8"/>
      </g>
     </g>
     <g id="text_5">
      <!-- $\mathdefault{2.0}$ -->
      <g transform="translate(389.455671 327.0373) scale(0.18 -0.18)">
       <defs>
        <path id="CMR17-32" d="M 2669 990 
L 2554 990 
C 2490 537 2438 460 2413 422 
C 2381 371 1920 371 1830 371 
L 602 371 
C 832 620 1280 1073 1824 1596 
C 2214 1966 2669 2400 2669 3033 
C 2669 3788 2067 4224 1395 4224 
C 691 4224 262 3603 262 3027 
C 262 2777 448 2745 525 2745 
C 589 2745 781 2783 781 3007 
C 781 3206 614 3264 525 3264 
C 486 3264 448 3257 422 3244 
C 544 3788 915 4057 1306 4057 
C 1862 4057 2227 3616 2227 3033 
C 2227 2477 1901 1998 1536 1583 
L 262 147 
L 262 0 
L 2515 0 
L 2669 990 
z
" transform="scale(0.015625)"/>
       </defs>
       <use xlink:href="#CMR17-32" transform="scale(0.996264)"/>
       <use xlink:href="#CMMI12-3a" transform="translate(45.690477 0) scale(0.996264)"/>
       <use xlink:href="#CMR17-30" transform="translate(72.787654 0) scale(0.996264)"/>
      </g>
     </g>
    </g>
    <g id="text_6">
     <!-- Time [ms] -->
     <g transform="translate(200.040747 347.958784) scale(0.18 -0.18)">
      <defs>
       <path id="CMR17-54" d="M 3981 4332 
L 288 4332 
L 179 2924 
L 294 2924 
C 378 3981 467 4166 1453 4166 
C 1568 4166 1754 4166 1805 4159 
C 1926 4140 1926 4064 1926 3917 
L 1926 465 
C 1926 236 1907 166 1376 166 
L 1197 166 
L 1197 0 
C 1504 6 1824 12 2138 12 
C 2451 12 2771 6 3078 0 
L 3078 166 
L 2899 166 
C 2368 166 2349 236 2349 465 
L 2349 3917 
C 2349 4057 2349 4134 2464 4159 
C 2515 4166 2701 4166 2816 4166 
C 3795 4166 3891 3981 3974 2924 
L 4090 2924 
L 3981 4332 
z
" transform="scale(0.015625)"/>
       <path id="CMR17-69" d="M 992 3961 
C 992 4102 877 4224 730 4224 
C 589 4224 467 4108 467 3961 
C 467 3820 582 3699 730 3699 
C 870 3699 992 3814 992 3961 
z
M 243 2745 
L 243 2579 
C 602 2579 653 2540 653 2231 
L 653 443 
C 653 198 627 166 218 166 
L 218 0 
C 371 12 646 12 806 12 
C 960 12 1222 12 1370 0 
L 1370 166 
C 992 166 979 205 979 436 
L 979 2816 
L 243 2745 
z
" transform="scale(0.015625)"/>
       <path id="CMR17-6d" d="M 4326 1954 
C 4326 2276 4269 2816 3507 2816 
C 3072 2816 2771 2520 2656 2173 
L 2650 2173 
C 2573 2700 2195 2816 1837 2816 
C 1331 2816 1069 2424 973 2166 
L 966 2166 
L 966 2816 
L 211 2745 
L 211 2578 
C 589 2578 646 2540 646 2231 
L 646 443 
C 646 198 621 166 211 166 
L 211 0 
C 365 12 646 12 813 12 
C 979 12 1267 12 1421 0 
L 1421 166 
C 1011 166 986 192 986 443 
L 986 1678 
C 986 2269 1344 2713 1792 2713 
C 2266 2713 2317 2289 2317 1980 
L 2317 443 
C 2317 198 2291 166 1882 166 
L 1882 0 
C 2035 12 2317 12 2483 12 
C 2650 12 2938 12 3091 0 
L 3091 166 
C 2682 166 2656 192 2656 443 
L 2656 1678 
C 2656 2269 3014 2713 3462 2713 
C 3936 2713 3987 2289 3987 1980 
L 3987 443 
C 3987 198 3962 166 3552 166 
L 3552 0 
C 3706 12 3987 12 4154 12 
C 4320 12 4608 12 4762 0 
L 4762 166 
C 4352 166 4326 192 4326 443 
L 4326 1954 
z
" transform="scale(0.015625)"/>
       <path id="CMR17-65" d="M 2438 1503 
C 2464 1529 2464 1542 2464 1606 
C 2464 2251 2118 2816 1389 2816 
C 710 2816 173 2175 173 1394 
C 173 554 781 -64 1459 -64 
C 2176 -64 2458 619 2458 755 
C 2458 800 2419 800 2406 800 
C 2362 800 2355 787 2330 709 
C 2189 270 1837 51 1504 51 
C 1229 51 954 206 781 490 
C 582 819 582 1200 582 1503 
L 2438 1503 
z
M 589 1600 
C 634 2511 1126 2713 1382 2713 
C 1818 2713 2112 2308 2118 1600 
L 589 1600 
z
" transform="scale(0.015625)"/>
       <path id="CMR17-5b" d="M 1504 -1600 
L 1504 -1376 
L 902 -1376 
L 902 4575 
L 1504 4575 
L 1504 4800 
L 678 4800 
L 678 -1600 
L 1504 -1600 
z
" transform="scale(0.015625)"/>
       <path id="CMR17-73" d="M 1978 2688 
C 1978 2803 1971 2809 1933 2809 
C 1907 2809 1901 2803 1824 2707 
C 1805 2681 1747 2617 1728 2592 
C 1523 2809 1235 2816 1126 2816 
C 416 2816 160 2444 160 2073 
C 160 1497 813 1363 998 1324 
C 1402 1241 1542 1216 1677 1100 
C 1760 1024 1901 883 1901 652 
C 1901 384 1747 38 1158 38 
C 602 38 403 460 288 1024 
C 269 1113 269 1120 218 1120 
C 166 1120 160 1113 160 985 
L 160 64 
C 160 -52 166 -58 205 -58 
C 237 -58 243 -52 275 0 
C 314 57 410 211 448 275 
C 576 102 800 -64 1158 -64 
C 1792 -64 2131 281 2131 780 
C 2131 1107 1958 1280 1875 1356 
C 1683 1555 1459 1600 1190 1651 
C 838 1728 390 1817 390 2208 
C 390 2374 480 2726 1126 2726 
C 1811 2726 1850 2086 1862 1881 
C 1869 1849 1901 1843 1920 1843 
C 1978 1843 1978 1862 1978 1971 
L 1978 2688 
z
" transform="scale(0.015625)"/>
       <path id="CMR17-5d" d="M 915 4800 
L 90 4800 
L 90 4575 
L 691 4575 
L 691 -1376 
L 90 -1376 
L 90 -1600 
L 915 -1600 
L 915 4800 
z
" transform="scale(0.015625)"/>
      </defs>
      <use xlink:href="#CMR17-54" transform="scale(0.996264)"/>
      <use xlink:href="#CMR17-69" transform="translate(66.509881 0) scale(0.996264)"/>
      <use xlink:href="#CMR17-6d" transform="translate(91.380939 0) scale(0.996264)"/>
      <use xlink:href="#CMR17-65" transform="translate(168.300529 0) scale(0.996264)"/>
      <use xlink:href="#CMR17-5b" transform="translate(238.862156 0) scale(0.996264)"/>
      <use xlink:href="#CMR17-6d" transform="translate(263.733214 0) scale(0.996264)"/>
      <use xlink:href="#CMR17-73" transform="translate(340.652804 0) scale(0.996264)"/>
      <use xlink:href="#CMR17-5d" transform="translate(376.454142 0) scale(0.996264)"/>
     </g>
    </g>
    <g id="text_7">
     <!-- $\times\mathdefault{10^{1}}\mathdefault{}$ -->
     <g transform="translate(378.178077 346.12898) scale(0.18 -0.18)">
      <defs>
       <path id="CMSY10-2" d="M 2490 1775 
L 1210 3046 
C 1133 3123 1120 3136 1069 3136 
C 1005 3136 941 3078 941 3008 
C 941 2963 954 2950 1024 2880 
L 2304 1596 
L 1024 313 
C 954 243 941 230 941 185 
C 941 115 1005 57 1069 57 
C 1120 57 1133 70 1210 147 
L 2483 1418 
L 3808 95 
C 3821 89 3866 57 3904 57 
C 3981 57 4032 115 4032 185 
C 4032 198 4032 223 4013 255 
C 4006 268 2989 1271 2669 1596 
L 3840 2765 
C 3872 2803 3968 2886 4000 2925 
C 4006 2937 4032 2963 4032 3008 
C 4032 3078 3981 3136 3904 3136 
C 3853 3136 3827 3110 3757 3040 
L 2490 1775 
z
" transform="scale(0.015625)"/>
      </defs>
      <use xlink:href="#CMSY10-2" transform="scale(0.996264)"/>
      <use xlink:href="#CMR17-31" transform="translate(77.487468 0) scale(0.996264)"/>
      <use xlink:href="#CMR17-30" transform="translate(123.177945 0) scale(0.996264)"/>
      <use xlink:href="#CMR17-31" transform="translate(168.868422 36.153639) scale(0.697382)"/>
     </g>
    </g>
   </g>
   <g id="matplotlib.axis_2">
    <g id="ytick_1">
     <g id="line2d_6">
      <defs>
       <path id="ma8d4c2d541" d="M 0 0 
L -3.5 0 
" style="stroke: #000000; stroke-width: 0.8"/>
      </defs>
      <g>
       <use xlink:href="#ma8d4c2d541" x="57.6" y="301.436852" style="stroke: #000000; stroke-width: 0.8"/>
      </g>
     </g>
     <g id="text_8">
      <!-- $\mathdefault{4.8660}$ -->
      <g transform="translate(4.601079 307.663503) scale(0.18 -0.18)">
       <defs>
        <path id="CMR17-34" d="M 2150 4147 
C 2150 4281 2144 4288 2029 4288 
L 128 1254 
L 128 1088 
L 1779 1088 
L 1779 460 
C 1779 230 1766 166 1318 166 
L 1197 166 
L 1197 0 
C 1402 12 1747 12 1965 12 
C 2182 12 2528 12 2733 0 
L 2733 166 
L 2611 166 
C 2163 166 2150 230 2150 460 
L 2150 1088 
L 2803 1088 
L 2803 1254 
L 2150 1254 
L 2150 4147 
z
M 1798 3723 
L 1798 1254 
L 256 1254 
L 1798 3723 
z
" transform="scale(0.015625)"/>
        <path id="CMR17-38" d="M 1741 2289 
C 2144 2494 2554 2803 2554 3298 
C 2554 3884 1990 4224 1472 4224 
C 890 4224 378 3800 378 3215 
C 378 3054 416 2777 666 2533 
C 730 2469 998 2276 1171 2154 
C 883 2006 211 1652 211 945 
C 211 282 838 -128 1459 -128 
C 2144 -128 2720 366 2720 1022 
C 2720 1607 2330 1877 2074 2051 
L 1741 2289 
z
M 902 2855 
C 851 2887 595 3086 595 3388 
C 595 3781 998 4076 1459 4076 
C 1965 4076 2336 3716 2336 3298 
C 2336 2700 1670 2359 1638 2359 
C 1632 2359 1626 2359 1574 2398 
L 902 2855 
z
M 2080 1536 
C 2176 1466 2483 1253 2483 861 
C 2483 385 2010 25 1472 25 
C 890 25 448 443 448 951 
C 448 1459 838 1884 1280 2083 
L 2080 1536 
z
" transform="scale(0.015625)"/>
        <path id="CMR17-36" d="M 678 2198 
C 678 3712 1395 4076 1811 4076 
C 1946 4076 2272 4049 2400 3782 
C 2298 3782 2106 3782 2106 3558 
C 2106 3385 2246 3328 2336 3328 
C 2394 3328 2566 3353 2566 3571 
C 2566 3987 2246 4224 1805 4224 
C 1043 4224 243 3411 243 2011 
C 243 257 966 -128 1478 -128 
C 2099 -128 2688 431 2688 1295 
C 2688 2101 2170 2688 1517 2688 
C 1126 2688 838 2430 678 1979 
L 678 2198 
z
M 1478 25 
C 691 25 691 1212 691 1450 
C 691 1914 909 2585 1504 2585 
C 1613 2585 1926 2585 2138 2140 
C 2253 1889 2253 1624 2253 1302 
C 2253 954 2253 696 2118 438 
C 1978 173 1773 25 1478 25 
z
" transform="scale(0.015625)"/>
       </defs>
       <use xlink:href="#CMR17-34" transform="scale(0.996264)"/>
       <use xlink:href="#CMMI12-3a" transform="translate(45.690477 0) scale(0.996264)"/>
       <use xlink:href="#CMR17-38" transform="translate(72.787654 0) scale(0.996264)"/>
       <use xlink:href="#CMR17-36" transform="translate(118.478131 0) scale(0.996264)"/>
       <use xlink:href="#CMR17-36" transform="translate(164.168608 0) scale(0.996264)"/>
       <use xlink:href="#CMR17-30" transform="translate(209.859086 0) scale(0.996264)"/>
      </g>
     </g>
    </g>
    <g id="ytick_2">
     <g id="line2d_7">
      <g>
       <use xlink:href="#ma8d4c2d541" x="57.6" y="261.777836" style="stroke: #000000; stroke-width: 0.8"/>
      </g>
     </g>
     <g id="text_9">
      <!-- $\mathdefault{4.8662}$ -->
      <g transform="translate(4.601079 268.004486) scale(0.18 -0.18)">
       <use xlink:href="#CMR17-34" transform="scale(0.996264)"/>
       <use xlink:href="#CMMI12-3a" transform="translate(45.690477 0) scale(0.996264)"/>
       <use xlink:href="#CMR17-38" transform="translate(72.787654 0) scale(0.996264)"/>
       <use xlink:href="#CMR17-36" transform="translate(118.478131 0) scale(0.996264)"/>
       <use xlink:href="#CMR17-36" transform="translate(164.168608 0) scale(0.996264)"/>
       <use xlink:href="#CMR17-32" transform="translate(209.859086 0) scale(0.996264)"/>
      </g>
     </g>
    </g>
    <g id="ytick_3">
     <g id="line2d_8">
      <g>
       <use xlink:href="#ma8d4c2d541" x="57.6" y="222.11882" style="stroke: #000000; stroke-width: 0.8"/>
      </g>
     </g>
     <g id="text_10">
      <!-- $\mathdefault{4.8664}$ -->
      <g transform="translate(4.601079 228.34547) scale(0.18 -0.18)">
       <use xlink:href="#CMR17-34" transform="scale(0.996264)"/>
       <use xlink:href="#CMMI12-3a" transform="translate(45.690477 0) scale(0.996264)"/>
       <use xlink:href="#CMR17-38" transform="translate(72.787654 0) scale(0.996264)"/>
       <use xlink:href="#CMR17-36" transform="translate(118.478131 0) scale(0.996264)"/>
       <use xlink:href="#CMR17-36" transform="translate(164.168608 0) scale(0.996264)"/>
       <use xlink:href="#CMR17-34" transform="translate(209.859086 0) scale(0.996264)"/>
      </g>
     </g>
    </g>
    <g id="ytick_4">
     <g id="line2d_9">
      <g>
       <use xlink:href="#ma8d4c2d541" x="57.6" y="182.459803" style="stroke: #000000; stroke-width: 0.8"/>
      </g>
     </g>
     <g id="text_11">
      <!-- $\mathdefault{4.8666}$ -->
      <g transform="translate(4.601079 188.686453) scale(0.18 -0.18)">
       <use xlink:href="#CMR17-34" transform="scale(0.996264)"/>
       <use xlink:href="#CMMI12-3a" transform="translate(45.690477 0) scale(0.996264)"/>
       <use xlink:href="#CMR17-38" transform="translate(72.787654 0) scale(0.996264)"/>
       <use xlink:href="#CMR17-36" transform="translate(118.478131 0) scale(0.996264)"/>
       <use xlink:href="#CMR17-36" transform="translate(164.168608 0) scale(0.996264)"/>
       <use xlink:href="#CMR17-36" transform="translate(209.859086 0) scale(0.996264)"/>
      </g>
     </g>
    </g>
    <g id="ytick_5">
     <g id="line2d_10">
      <g>
       <use xlink:href="#ma8d4c2d541" x="57.6" y="142.800787" style="stroke: #000000; stroke-width: 0.8"/>
      </g>
     </g>
     <g id="text_12">
      <!-- $\mathdefault{4.8668}$ -->
      <g transform="translate(4.601079 149.027437) scale(0.18 -0.18)">
       <use xlink:href="#CMR17-34" transform="scale(0.996264)"/>
       <use xlink:href="#CMMI12-3a" transform="translate(45.690477 0) scale(0.996264)"/>
       <use xlink:href="#CMR17-38" transform="translate(72.787654 0) scale(0.996264)"/>
       <use xlink:href="#CMR17-36" transform="translate(118.478131 0) scale(0.996264)"/>
       <use xlink:href="#CMR17-36" transform="translate(164.168608 0) scale(0.996264)"/>
       <use xlink:href="#CMR17-38" transform="translate(209.859086 0) scale(0.996264)"/>
      </g>
     </g>
    </g>
    <g id="ytick_6">
     <g id="line2d_11">
      <g>
       <use xlink:href="#ma8d4c2d541" x="57.6" y="103.14177" style="stroke: #000000; stroke-width: 0.8"/>
      </g>
     </g>
     <g id="text_13">
      <!-- $\mathdefault{4.8670}$ -->
      <g transform="translate(4.601079 109.368421) scale(0.18 -0.18)">
       <defs>
        <path id="CMR17-37" d="M 2886 3955 
L 2886 4096 
L 1382 4096 
C 634 4096 621 4166 595 4288 
L 480 4288 
L 294 3104 
L 410 3104 
C 429 3226 474 3552 550 3673 
C 589 3724 1062 3724 1171 3724 
L 2579 3724 
L 1869 2670 
C 1395 1961 1069 1003 1069 166 
C 1069 89 1069 -128 1299 -128 
C 1530 -128 1530 89 1530 172 
L 1530 466 
C 1530 1514 1709 2204 2003 2644 
L 2886 3955 
z
" transform="scale(0.015625)"/>
       </defs>
       <use xlink:href="#CMR17-34" transform="scale(0.996264)"/>
       <use xlink:href="#CMMI12-3a" transform="translate(45.690477 0) scale(0.996264)"/>
       <use xlink:href="#CMR17-38" transform="translate(72.787654 0) scale(0.996264)"/>
       <use xlink:href="#CMR17-36" transform="translate(118.478131 0) scale(0.996264)"/>
       <use xlink:href="#CMR17-37" transform="translate(164.168608 0) scale(0.996264)"/>
       <use xlink:href="#CMR17-30" transform="translate(209.859086 0) scale(0.996264)"/>
      </g>
     </g>
    </g>
    <g id="ytick_7">
     <g id="line2d_12">
      <g>
       <use xlink:href="#ma8d4c2d541" x="57.6" y="63.482754" style="stroke: #000000; stroke-width: 0.8"/>
      </g>
     </g>
     <g id="text_14">
      <!-- $\mathdefault{4.8672}$ -->
      <g transform="translate(4.601079 69.709404) scale(0.18 -0.18)">
       <use xlink:href="#CMR17-34" transform="scale(0.996264)"/>
       <use xlink:href="#CMMI12-3a" transform="translate(45.690477 0) scale(0.996264)"/>
       <use xlink:href="#CMR17-38" transform="translate(72.787654 0) scale(0.996264)"/>
       <use xlink:href="#CMR17-36" transform="translate(118.478131 0) scale(0.996264)"/>
       <use xlink:href="#CMR17-37" transform="translate(164.168608 0) scale(0.996264)"/>
       <use xlink:href="#CMR17-32" transform="translate(209.859086 0) scale(0.996264)"/>
      </g>
     </g>
    </g>
    <g id="text_15">
     <!-- Analog input [V] -->
     <g transform="translate(-3.867105 235.162293) rotate(-90) scale(0.18 -0.18)">
      <defs>
       <path id="CMR17-41" d="M 2323 4441 
C 2291 4524 2278 4544 2214 4544 
C 2150 4544 2138 4524 2106 4441 
L 749 580 
C 627 236 371 166 147 166 
L 147 0 
C 262 12 518 12 640 12 
C 800 12 1056 12 1210 0 
L 1210 166 
C 909 179 864 382 864 459 
C 864 516 877 548 890 586 
L 1229 1536 
L 2906 1536 
L 3290 453 
C 3322 376 3322 363 3322 338 
C 3322 166 3046 166 2925 166 
L 2925 0 
C 3110 12 3443 12 3642 12 
C 3808 12 4128 12 4282 0 
L 4282 166 
C 3942 166 3827 166 3744 402 
L 2323 4441 
z
M 2067 3924 
L 2848 1702 
L 1286 1702 
L 2067 3924 
z
" transform="scale(0.015625)"/>
       <path id="CMR17-6e" d="M 2656 1954 
C 2656 2282 2592 2816 1837 2816 
C 1331 2816 1069 2424 973 2166 
L 966 2166 
L 966 2816 
L 211 2745 
L 211 2578 
C 589 2578 646 2540 646 2231 
L 646 443 
C 646 198 621 166 211 166 
L 211 0 
C 365 12 646 12 813 12 
C 979 12 1267 12 1421 0 
L 1421 166 
C 1011 166 986 192 986 443 
L 986 1678 
C 986 2269 1344 2713 1792 2713 
C 2266 2713 2317 2289 2317 1980 
L 2317 443 
C 2317 198 2291 166 1882 166 
L 1882 0 
C 2035 12 2317 12 2483 12 
C 2650 12 2938 12 3091 0 
L 3091 166 
C 2682 166 2656 192 2656 443 
L 2656 1954 
z
" transform="scale(0.015625)"/>
       <path id="CMR17-61" d="M 2304 1656 
C 2304 2048 2304 2275 2035 2534 
C 1798 2751 1523 2816 1306 2816 
C 800 2816 435 2408 435 1977 
C 435 1740 627 1728 666 1728 
C 749 1728 896 1779 896 1958 
C 896 2118 774 2188 666 2188 
C 640 2188 608 2182 589 2176 
C 723 2594 1069 2713 1293 2713 
C 1613 2713 1965 2421 1965 1875 
L 1965 1632 
C 1587 1619 1133 1568 774 1373 
C 371 1147 256 822 256 576 
C 256 77 832 -64 1171 -64 
C 1523 -64 1850 135 1990 505 
C 2003 219 2182 -39 2464 -39 
C 2598 -39 2938 51 2938 563 
L 2938 926 
L 2822 926 
L 2822 557 
C 2822 161 2650 109 2566 109 
C 2304 109 2304 446 2304 732 
L 2304 1656 
z
M 1965 887 
C 1965 323 1568 38 1216 38 
C 896 38 646 278 646 576 
C 646 771 730 1114 1101 1322 
C 1408 1497 1760 1523 1965 1536 
L 1965 887 
z
" transform="scale(0.015625)"/>
       <path id="CMR17-6c" d="M 979 4416 
L 218 4345 
L 218 4179 
C 595 4179 653 4141 653 3835 
L 653 439 
C 653 198 627 166 218 166 
L 218 0 
C 371 12 653 12 813 12 
C 979 12 1261 12 1414 0 
L 1414 166 
C 1005 166 979 191 979 439 
L 979 4416 
z
" transform="scale(0.015625)"/>
       <path id="CMR17-6f" d="M 2758 1356 
C 2758 2176 2163 2816 1466 2816 
C 768 2816 173 2176 173 1356 
C 173 550 768 -64 1466 -64 
C 2163 -64 2758 550 2758 1356 
z
M 1466 51 
C 1165 51 909 230 762 480 
C 602 768 582 1126 582 1408 
C 582 1676 595 2009 762 2297 
C 890 2508 1139 2713 1466 2713 
C 1754 2713 1997 2553 2150 2329 
C 2349 2028 2349 1606 2349 1408 
C 2349 1158 2336 774 2163 467 
C 1984 172 1709 51 1466 51 
z
" transform="scale(0.015625)"/>
       <path id="CMR17-67" d="M 710 1165 
C 832 1068 1043 960 1299 960 
C 1805 960 2240 1359 2240 1895 
C 2240 2063 2189 2321 1997 2521 
C 2176 2713 2438 2777 2586 2777 
C 2611 2777 2650 2777 2682 2758 
C 2656 2751 2598 2726 2598 2623 
C 2598 2540 2656 2483 2739 2483 
C 2835 2483 2886 2547 2886 2630 
C 2886 2751 2790 2880 2586 2880 
C 2330 2880 2106 2758 1926 2591 
C 1734 2764 1504 2828 1299 2828 
C 794 2828 358 2431 358 1895 
C 358 1527 570 1294 634 1230 
C 442 1004 442 742 442 710 
C 442 544 506 300 723 166 
C 390 82 128 -184 128 -517 
C 128 -996 736 -1344 1466 -1344 
C 2170 -1344 2803 -1009 2803 -510 
C 2803 384 1856 384 1363 384 
C 1216 384 954 384 922 390 
C 723 422 589 601 589 825 
C 589 883 589 1024 710 1165 
z
M 1299 1068 
C 736 1068 736 1766 736 1895 
C 736 2024 736 2719 1299 2719 
C 1862 2719 1862 2024 1862 1895 
C 1862 1766 1862 1068 1299 1068 
z
M 1466 -1236 
C 826 -1236 384 -883 384 -517 
C 384 -311 493 -118 634 -11 
C 794 102 858 102 1293 102 
C 1818 102 2547 102 2547 -517 
C 2547 -883 2106 -1236 1466 -1236 
z
" transform="scale(0.015625)"/>
       <path id="CMR17-70" d="M 1408 -1114 
C 998 -1114 973 -1088 973 -834 
L 973 380 
C 1158 109 1427 -64 1766 -64 
C 2406 -64 3053 503 3053 1382 
C 3053 2196 2496 2816 1837 2816 
C 1453 2816 1139 2603 960 2345 
L 960 2816 
L 198 2745 
L 198 2577 
C 576 2577 634 2539 634 2228 
L 634 -834 
C 634 -1081 608 -1114 198 -1114 
L 198 -1280 
C 352 -1268 634 -1268 800 -1268 
C 966 -1268 1254 -1268 1408 -1280 
L 1408 -1114 
z
M 973 2015 
C 973 2106 973 2241 1222 2481 
C 1254 2506 1472 2700 1792 2700 
C 2259 2700 2643 2112 2643 1376 
C 2643 639 2234 38 1728 38 
C 1498 38 1248 148 1056 451 
C 973 594 973 632 973 736 
L 973 2015 
z
" transform="scale(0.015625)"/>
       <path id="CMR17-75" d="M 1882 2745 
L 1882 2579 
C 2259 2579 2317 2540 2317 2229 
L 2317 1053 
C 2317 510 2029 38 1555 38 
C 1030 38 986 355 986 691 
L 986 2816 
L 211 2745 
L 211 2579 
C 467 2579 640 2579 646 2320 
L 646 1079 
C 646 646 646 368 813 187 
C 896 103 1056 -64 1517 -64 
C 2061 -64 2272 400 2323 536 
L 2330 536 
L 2330 -64 
L 3091 -13 
L 3091 154 
C 2714 154 2656 193 2656 503 
L 2656 2816 
L 1882 2745 
z
" transform="scale(0.015625)"/>
       <path id="CMR17-74" d="M 966 2585 
L 1862 2585 
L 1862 2752 
L 966 2752 
L 966 3968 
L 851 3968 
C 838 3292 614 2700 70 2687 
L 70 2585 
L 627 2585 
L 627 778 
C 627 655 627 -64 1370 -64 
C 1747 -64 1965 308 1965 784 
L 1965 1151 
L 1850 1151 
L 1850 790 
C 1850 347 1677 51 1408 51 
C 1222 51 966 179 966 765 
L 966 2585 
z
" transform="scale(0.015625)"/>
       <path id="CMR17-56" d="M 3776 3762 
C 3834 3903 3936 4179 4365 4185 
L 4365 4352 
C 4218 4339 4051 4339 3891 4339 
C 3738 4339 3475 4339 3328 4352 
L 3328 4185 
C 3648 4166 3661 3942 3661 3903 
C 3661 3833 3642 3788 3622 3737 
L 2362 448 
L 1043 3903 
C 1024 3948 1011 3980 1011 4012 
C 1011 4185 1267 4185 1402 4185 
L 1402 4352 
C 1197 4339 896 4339 685 4339 
C 518 4339 218 4339 64 4352 
L 64 4185 
C 435 4185 506 4160 582 3955 
L 2106 -26 
C 2138 -116 2144 -128 2214 -128 
C 2285 -128 2291 -116 2323 -26 
L 3776 3762 
z
" transform="scale(0.015625)"/>
      </defs>
      <use xlink:href="#CMR17-41" transform="scale(0.996264)"/>
      <use xlink:href="#CMR17-6e" transform="translate(69.07243 0) scale(0.996264)"/>
      <use xlink:href="#CMR17-61" transform="translate(119.9678 0) scale(0.996264)"/>
      <use xlink:href="#CMR17-6c" transform="translate(165.658277 0) scale(0.996264)"/>
      <use xlink:href="#CMR17-6f" transform="translate(190.529335 0) scale(0.996264)"/>
      <use xlink:href="#CMR17-67" transform="translate(236.219812 0) scale(0.996264)"/>
      <use xlink:href="#CMR17-69" transform="translate(311.986256 0) scale(0.996264)"/>
      <use xlink:href="#CMR17-6e" transform="translate(336.857314 0) scale(0.996264)"/>
      <use xlink:href="#CMR17-70" transform="translate(387.752684 0) scale(0.996264)"/>
      <use xlink:href="#CMR17-75" transform="translate(438.648054 0) scale(0.996264)"/>
      <use xlink:href="#CMR17-74" transform="translate(489.543424 0) scale(0.996264)"/>
      <use xlink:href="#CMR17-5b" transform="translate(554.900158 0) scale(0.996264)"/>
      <use xlink:href="#CMR17-56" transform="translate(579.771216 0) scale(0.996264)"/>
      <use xlink:href="#CMR17-5d" transform="translate(648.843646 0) scale(0.996264)"/>
     </g>
    </g>
   </g>
   <g id="line2d_13">
    <path d="M 73.832727 174.528 
L 75.464157 115.039475 
L 77.095587 174.528 
L 83.621307 174.528 
L 85.252736 235.999475 
L 86.884166 174.528 
L 88.515596 235.999475 
L 99.935605 235.999475 
L 101.567035 174.528 
L 103.198465 235.999475 
L 104.829895 174.528 
L 106.461325 235.999475 
L 114.618474 235.999475 
L 116.249904 174.528 
L 117.881334 235.999475 
L 119.512764 235.999475 
L 121.144194 174.528 
L 166.82423 174.528 
L 168.45566 235.999475 
L 170.08709 174.528 
L 171.71852 235.999475 
L 176.61281 235.999475 
L 178.244239 174.528 
L 179.875669 174.528 
L 181.507099 235.999475 
L 183.138529 174.528 
L 186.401389 295.488 
L 189.664249 295.488 
L 191.295678 235.999475 
L 192.927108 295.488 
L 194.558538 235.999475 
L 196.189968 235.999475 
L 197.821398 295.488 
L 199.452828 235.999475 
L 217.398556 235.999475 
L 219.029986 174.528 
L 220.661416 235.999475 
L 246.764294 235.999475 
L 248.395724 174.528 
L 250.027154 235.999475 
L 251.658584 174.528 
L 258.184303 174.528 
L 259.815733 235.999475 
L 261.447163 235.999475 
L 263.078593 174.528 
L 264.710023 235.999475 
L 266.341453 235.999475 
L 267.972883 174.528 
L 269.604312 174.528 
L 271.235742 235.999475 
L 272.867172 174.528 
L 274.498602 174.528 
L 276.130032 235.999475 
L 277.761462 174.528 
L 279.392892 174.528 
L 281.024322 235.999475 
L 287.550041 235.999475 
L 289.181471 295.488 
L 290.812901 235.999475 
L 303.86434 235.999475 
L 305.49577 295.488 
L 307.1272 235.999475 
L 308.75863 235.999475 
L 310.390059 295.488 
L 312.021489 235.999475 
L 315.284349 235.999475 
L 316.915779 174.528 
L 318.547209 235.999475 
L 320.178639 235.999475 
L 321.810069 174.528 
L 323.441498 235.999475 
L 325.072928 235.999475 
L 326.704358 174.528 
L 328.335788 235.999475 
L 329.967218 174.528 
L 347.912947 174.528 
L 351.175806 53.568 
L 352.807236 53.568 
L 354.438666 115.039475 
L 356.070096 53.568 
L 357.701526 115.039475 
L 367.490105 115.039475 
L 369.121535 174.528 
L 370.752965 115.039475 
L 380.541544 115.039475 
L 382.172974 174.528 
L 383.804404 174.528 
L 385.435834 115.039475 
L 387.067264 174.528 
L 388.698693 174.528 
L 390.330123 115.039475 
L 391.961553 174.528 
L 393.592983 174.528 
L 395.224413 115.039475 
L 398.487273 115.039475 
L 398.487273 115.039475 
" clip-path="url(#p79e741835c)" style="fill: none; stroke: #9080ff; stroke-width: 1.5; stroke-linecap: square"/>
    <defs>
     <path id="me5b178002f" d="M -2.5 2.5 
L 2.5 2.5 
L 2.5 -2.5 
L -2.5 -2.5 
z
" style="stroke: #9080ff; stroke-linejoin: miter"/>
    </defs>
    <g clip-path="url(#p79e741835c)">
     <use xlink:href="#me5b178002f" x="73.832727" y="174.528" style="fill: #9080ff; stroke: #9080ff; stroke-linejoin: miter"/>
     <use xlink:href="#me5b178002f" x="75.464157" y="115.039475" style="fill: #9080ff; stroke: #9080ff; stroke-linejoin: miter"/>
     <use xlink:href="#me5b178002f" x="77.095587" y="174.528" style="fill: #9080ff; stroke: #9080ff; stroke-linejoin: miter"/>
     <use xlink:href="#me5b178002f" x="78.727017" y="174.528" style="fill: #9080ff; stroke: #9080ff; stroke-linejoin: miter"/>
     <use xlink:href="#me5b178002f" x="80.358447" y="174.528" style="fill: #9080ff; stroke: #9080ff; stroke-linejoin: miter"/>
     <use xlink:href="#me5b178002f" x="81.989877" y="174.528" style="fill: #9080ff; stroke: #9080ff; stroke-linejoin: miter"/>
     <use xlink:href="#me5b178002f" x="83.621307" y="174.528" style="fill: #9080ff; stroke: #9080ff; stroke-linejoin: miter"/>
     <use xlink:href="#me5b178002f" x="85.252736" y="235.999475" style="fill: #9080ff; stroke: #9080ff; stroke-linejoin: miter"/>
     <use xlink:href="#me5b178002f" x="86.884166" y="174.528" style="fill: #9080ff; stroke: #9080ff; stroke-linejoin: miter"/>
     <use xlink:href="#me5b178002f" x="88.515596" y="235.999475" style="fill: #9080ff; stroke: #9080ff; stroke-linejoin: miter"/>
     <use xlink:href="#me5b178002f" x="90.147026" y="235.999475" style="fill: #9080ff; stroke: #9080ff; stroke-linejoin: miter"/>
     <use xlink:href="#me5b178002f" x="91.778456" y="235.999475" style="fill: #9080ff; stroke: #9080ff; stroke-linejoin: miter"/>
     <use xlink:href="#me5b178002f" x="93.409886" y="235.999475" style="fill: #9080ff; stroke: #9080ff; stroke-linejoin: miter"/>
     <use xlink:href="#me5b178002f" x="95.041316" y="235.999475" style="fill: #9080ff; stroke: #9080ff; stroke-linejoin: miter"/>
     <use xlink:href="#me5b178002f" x="96.672746" y="235.999475" style="fill: #9080ff; stroke: #9080ff; stroke-linejoin: miter"/>
     <use xlink:href="#me5b178002f" x="98.304175" y="235.999475" style="fill: #9080ff; stroke: #9080ff; stroke-linejoin: miter"/>
     <use xlink:href="#me5b178002f" x="99.935605" y="235.999475" style="fill: #9080ff; stroke: #9080ff; stroke-linejoin: miter"/>
     <use xlink:href="#me5b178002f" x="101.567035" y="174.528" style="fill: #9080ff; stroke: #9080ff; stroke-linejoin: miter"/>
     <use xlink:href="#me5b178002f" x="103.198465" y="235.999475" style="fill: #9080ff; stroke: #9080ff; stroke-linejoin: miter"/>
     <use xlink:href="#me5b178002f" x="104.829895" y="174.528" style="fill: #9080ff; stroke: #9080ff; stroke-linejoin: miter"/>
     <use xlink:href="#me5b178002f" x="106.461325" y="235.999475" style="fill: #9080ff; stroke: #9080ff; stroke-linejoin: miter"/>
     <use xlink:href="#me5b178002f" x="108.092755" y="235.999475" style="fill: #9080ff; stroke: #9080ff; stroke-linejoin: miter"/>
     <use xlink:href="#me5b178002f" x="109.724185" y="235.999475" style="fill: #9080ff; stroke: #9080ff; stroke-linejoin: miter"/>
     <use xlink:href="#me5b178002f" x="111.355614" y="235.999475" style="fill: #9080ff; stroke: #9080ff; stroke-linejoin: miter"/>
     <use xlink:href="#me5b178002f" x="112.987044" y="235.999475" style="fill: #9080ff; stroke: #9080ff; stroke-linejoin: miter"/>
     <use xlink:href="#me5b178002f" x="114.618474" y="235.999475" style="fill: #9080ff; stroke: #9080ff; stroke-linejoin: miter"/>
     <use xlink:href="#me5b178002f" x="116.249904" y="174.528" style="fill: #9080ff; stroke: #9080ff; stroke-linejoin: miter"/>
     <use xlink:href="#me5b178002f" x="117.881334" y="235.999475" style="fill: #9080ff; stroke: #9080ff; stroke-linejoin: miter"/>
     <use xlink:href="#me5b178002f" x="119.512764" y="235.999475" style="fill: #9080ff; stroke: #9080ff; stroke-linejoin: miter"/>
     <use xlink:href="#me5b178002f" x="121.144194" y="174.528" style="fill: #9080ff; stroke: #9080ff; stroke-linejoin: miter"/>
     <use xlink:href="#me5b178002f" x="122.775624" y="174.528" style="fill: #9080ff; stroke: #9080ff; stroke-linejoin: miter"/>
     <use xlink:href="#me5b178002f" x="124.407053" y="174.528" style="fill: #9080ff; stroke: #9080ff; stroke-linejoin: miter"/>
     <use xlink:href="#me5b178002f" x="126.038483" y="174.528" style="fill: #9080ff; stroke: #9080ff; stroke-linejoin: miter"/>
     <use xlink:href="#me5b178002f" x="127.669913" y="174.528" style="fill: #9080ff; stroke: #9080ff; stroke-linejoin: miter"/>
     <use xlink:href="#me5b178002f" x="129.301343" y="174.528" style="fill: #9080ff; stroke: #9080ff; stroke-linejoin: miter"/>
     <use xlink:href="#me5b178002f" x="130.932773" y="174.528" style="fill: #9080ff; stroke: #9080ff; stroke-linejoin: miter"/>
     <use xlink:href="#me5b178002f" x="132.564203" y="174.528" style="fill: #9080ff; stroke: #9080ff; stroke-linejoin: miter"/>
     <use xlink:href="#me5b178002f" x="134.195633" y="174.528" style="fill: #9080ff; stroke: #9080ff; stroke-linejoin: miter"/>
     <use xlink:href="#me5b178002f" x="135.827063" y="174.528" style="fill: #9080ff; stroke: #9080ff; stroke-linejoin: miter"/>
     <use xlink:href="#me5b178002f" x="137.458492" y="174.528" style="fill: #9080ff; stroke: #9080ff; stroke-linejoin: miter"/>
     <use xlink:href="#me5b178002f" x="139.089922" y="174.528" style="fill: #9080ff; stroke: #9080ff; stroke-linejoin: miter"/>
     <use xlink:href="#me5b178002f" x="140.721352" y="174.528" style="fill: #9080ff; stroke: #9080ff; stroke-linejoin: miter"/>
     <use xlink:href="#me5b178002f" x="142.352782" y="174.528" style="fill: #9080ff; stroke: #9080ff; stroke-linejoin: miter"/>
     <use xlink:href="#me5b178002f" x="143.984212" y="174.528" style="fill: #9080ff; stroke: #9080ff; stroke-linejoin: miter"/>
     <use xlink:href="#me5b178002f" x="145.615642" y="174.528" style="fill: #9080ff; stroke: #9080ff; stroke-linejoin: miter"/>
     <use xlink:href="#me5b178002f" x="147.247072" y="174.528" style="fill: #9080ff; stroke: #9080ff; stroke-linejoin: miter"/>
     <use xlink:href="#me5b178002f" x="148.878502" y="174.528" style="fill: #9080ff; stroke: #9080ff; stroke-linejoin: miter"/>
     <use xlink:href="#me5b178002f" x="150.509931" y="174.528" style="fill: #9080ff; stroke: #9080ff; stroke-linejoin: miter"/>
     <use xlink:href="#me5b178002f" x="152.141361" y="174.528" style="fill: #9080ff; stroke: #9080ff; stroke-linejoin: miter"/>
     <use xlink:href="#me5b178002f" x="153.772791" y="174.528" style="fill: #9080ff; stroke: #9080ff; stroke-linejoin: miter"/>
     <use xlink:href="#me5b178002f" x="155.404221" y="174.528" style="fill: #9080ff; stroke: #9080ff; stroke-linejoin: miter"/>
     <use xlink:href="#me5b178002f" x="157.035651" y="174.528" style="fill: #9080ff; stroke: #9080ff; stroke-linejoin: miter"/>
     <use xlink:href="#me5b178002f" x="158.667081" y="174.528" style="fill: #9080ff; stroke: #9080ff; stroke-linejoin: miter"/>
     <use xlink:href="#me5b178002f" x="160.298511" y="174.528" style="fill: #9080ff; stroke: #9080ff; stroke-linejoin: miter"/>
     <use xlink:href="#me5b178002f" x="161.929941" y="174.528" style="fill: #9080ff; stroke: #9080ff; stroke-linejoin: miter"/>
     <use xlink:href="#me5b178002f" x="163.56137" y="174.528" style="fill: #9080ff; stroke: #9080ff; stroke-linejoin: miter"/>
     <use xlink:href="#me5b178002f" x="165.1928" y="174.528" style="fill: #9080ff; stroke: #9080ff; stroke-linejoin: miter"/>
     <use xlink:href="#me5b178002f" x="166.82423" y="174.528" style="fill: #9080ff; stroke: #9080ff; stroke-linejoin: miter"/>
     <use xlink:href="#me5b178002f" x="168.45566" y="235.999475" style="fill: #9080ff; stroke: #9080ff; stroke-linejoin: miter"/>
     <use xlink:href="#me5b178002f" x="170.08709" y="174.528" style="fill: #9080ff; stroke: #9080ff; stroke-linejoin: miter"/>
     <use xlink:href="#me5b178002f" x="171.71852" y="235.999475" style="fill: #9080ff; stroke: #9080ff; stroke-linejoin: miter"/>
     <use xlink:href="#me5b178002f" x="173.34995" y="235.999475" style="fill: #9080ff; stroke: #9080ff; stroke-linejoin: miter"/>
     <use xlink:href="#me5b178002f" x="174.98138" y="235.999475" style="fill: #9080ff; stroke: #9080ff; stroke-linejoin: miter"/>
     <use xlink:href="#me5b178002f" x="176.61281" y="235.999475" style="fill: #9080ff; stroke: #9080ff; stroke-linejoin: miter"/>
     <use xlink:href="#me5b178002f" x="178.244239" y="174.528" style="fill: #9080ff; stroke: #9080ff; stroke-linejoin: miter"/>
     <use xlink:href="#me5b178002f" x="179.875669" y="174.528" style="fill: #9080ff; stroke: #9080ff; stroke-linejoin: miter"/>
     <use xlink:href="#me5b178002f" x="181.507099" y="235.999475" style="fill: #9080ff; stroke: #9080ff; stroke-linejoin: miter"/>
     <use xlink:href="#me5b178002f" x="183.138529" y="174.528" style="fill: #9080ff; stroke: #9080ff; stroke-linejoin: miter"/>
     <use xlink:href="#me5b178002f" x="184.769959" y="235.999475" style="fill: #9080ff; stroke: #9080ff; stroke-linejoin: miter"/>
     <use xlink:href="#me5b178002f" x="186.401389" y="295.488" style="fill: #9080ff; stroke: #9080ff; stroke-linejoin: miter"/>
     <use xlink:href="#me5b178002f" x="188.032819" y="295.488" style="fill: #9080ff; stroke: #9080ff; stroke-linejoin: miter"/>
     <use xlink:href="#me5b178002f" x="189.664249" y="295.488" style="fill: #9080ff; stroke: #9080ff; stroke-linejoin: miter"/>
     <use xlink:href="#me5b178002f" x="191.295678" y="235.999475" style="fill: #9080ff; stroke: #9080ff; stroke-linejoin: miter"/>
     <use xlink:href="#me5b178002f" x="192.927108" y="295.488" style="fill: #9080ff; stroke: #9080ff; stroke-linejoin: miter"/>
     <use xlink:href="#me5b178002f" x="194.558538" y="235.999475" style="fill: #9080ff; stroke: #9080ff; stroke-linejoin: miter"/>
     <use xlink:href="#me5b178002f" x="196.189968" y="235.999475" style="fill: #9080ff; stroke: #9080ff; stroke-linejoin: miter"/>
     <use xlink:href="#me5b178002f" x="197.821398" y="295.488" style="fill: #9080ff; stroke: #9080ff; stroke-linejoin: miter"/>
     <use xlink:href="#me5b178002f" x="199.452828" y="235.999475" style="fill: #9080ff; stroke: #9080ff; stroke-linejoin: miter"/>
     <use xlink:href="#me5b178002f" x="201.084258" y="235.999475" style="fill: #9080ff; stroke: #9080ff; stroke-linejoin: miter"/>
     <use xlink:href="#me5b178002f" x="202.715688" y="235.999475" style="fill: #9080ff; stroke: #9080ff; stroke-linejoin: miter"/>
     <use xlink:href="#me5b178002f" x="204.347117" y="235.999475" style="fill: #9080ff; stroke: #9080ff; stroke-linejoin: miter"/>
     <use xlink:href="#me5b178002f" x="205.978547" y="235.999475" style="fill: #9080ff; stroke: #9080ff; stroke-linejoin: miter"/>
     <use xlink:href="#me5b178002f" x="207.609977" y="235.999475" style="fill: #9080ff; stroke: #9080ff; stroke-linejoin: miter"/>
     <use xlink:href="#me5b178002f" x="209.241407" y="235.999475" style="fill: #9080ff; stroke: #9080ff; stroke-linejoin: miter"/>
     <use xlink:href="#me5b178002f" x="210.872837" y="235.999475" style="fill: #9080ff; stroke: #9080ff; stroke-linejoin: miter"/>
     <use xlink:href="#me5b178002f" x="212.504267" y="235.999475" style="fill: #9080ff; stroke: #9080ff; stroke-linejoin: miter"/>
     <use xlink:href="#me5b178002f" x="214.135697" y="235.999475" style="fill: #9080ff; stroke: #9080ff; stroke-linejoin: miter"/>
     <use xlink:href="#me5b178002f" x="215.767127" y="235.999475" style="fill: #9080ff; stroke: #9080ff; stroke-linejoin: miter"/>
     <use xlink:href="#me5b178002f" x="217.398556" y="235.999475" style="fill: #9080ff; stroke: #9080ff; stroke-linejoin: miter"/>
     <use xlink:href="#me5b178002f" x="219.029986" y="174.528" style="fill: #9080ff; stroke: #9080ff; stroke-linejoin: miter"/>
     <use xlink:href="#me5b178002f" x="220.661416" y="235.999475" style="fill: #9080ff; stroke: #9080ff; stroke-linejoin: miter"/>
     <use xlink:href="#me5b178002f" x="222.292846" y="235.999475" style="fill: #9080ff; stroke: #9080ff; stroke-linejoin: miter"/>
     <use xlink:href="#me5b178002f" x="223.924276" y="235.999475" style="fill: #9080ff; stroke: #9080ff; stroke-linejoin: miter"/>
     <use xlink:href="#me5b178002f" x="225.555706" y="235.999475" style="fill: #9080ff; stroke: #9080ff; stroke-linejoin: miter"/>
     <use xlink:href="#me5b178002f" x="227.187136" y="235.999475" style="fill: #9080ff; stroke: #9080ff; stroke-linejoin: miter"/>
     <use xlink:href="#me5b178002f" x="228.818566" y="235.999475" style="fill: #9080ff; stroke: #9080ff; stroke-linejoin: miter"/>
     <use xlink:href="#me5b178002f" x="230.449995" y="235.999475" style="fill: #9080ff; stroke: #9080ff; stroke-linejoin: miter"/>
     <use xlink:href="#me5b178002f" x="232.081425" y="235.999475" style="fill: #9080ff; stroke: #9080ff; stroke-linejoin: miter"/>
     <use xlink:href="#me5b178002f" x="233.712855" y="235.999475" style="fill: #9080ff; stroke: #9080ff; stroke-linejoin: miter"/>
     <use xlink:href="#me5b178002f" x="235.344285" y="235.999475" style="fill: #9080ff; stroke: #9080ff; stroke-linejoin: miter"/>
     <use xlink:href="#me5b178002f" x="236.975715" y="235.999475" style="fill: #9080ff; stroke: #9080ff; stroke-linejoin: miter"/>
     <use xlink:href="#me5b178002f" x="238.607145" y="235.999475" style="fill: #9080ff; stroke: #9080ff; stroke-linejoin: miter"/>
     <use xlink:href="#me5b178002f" x="240.238575" y="235.999475" style="fill: #9080ff; stroke: #9080ff; stroke-linejoin: miter"/>
     <use xlink:href="#me5b178002f" x="241.870005" y="235.999475" style="fill: #9080ff; stroke: #9080ff; stroke-linejoin: miter"/>
     <use xlink:href="#me5b178002f" x="243.501434" y="235.999475" style="fill: #9080ff; stroke: #9080ff; stroke-linejoin: miter"/>
     <use xlink:href="#me5b178002f" x="245.132864" y="235.999475" style="fill: #9080ff; stroke: #9080ff; stroke-linejoin: miter"/>
     <use xlink:href="#me5b178002f" x="246.764294" y="235.999475" style="fill: #9080ff; stroke: #9080ff; stroke-linejoin: miter"/>
     <use xlink:href="#me5b178002f" x="248.395724" y="174.528" style="fill: #9080ff; stroke: #9080ff; stroke-linejoin: miter"/>
     <use xlink:href="#me5b178002f" x="250.027154" y="235.999475" style="fill: #9080ff; stroke: #9080ff; stroke-linejoin: miter"/>
     <use xlink:href="#me5b178002f" x="251.658584" y="174.528" style="fill: #9080ff; stroke: #9080ff; stroke-linejoin: miter"/>
     <use xlink:href="#me5b178002f" x="253.290014" y="174.528" style="fill: #9080ff; stroke: #9080ff; stroke-linejoin: miter"/>
     <use xlink:href="#me5b178002f" x="254.921444" y="174.528" style="fill: #9080ff; stroke: #9080ff; stroke-linejoin: miter"/>
     <use xlink:href="#me5b178002f" x="256.552873" y="174.528" style="fill: #9080ff; stroke: #9080ff; stroke-linejoin: miter"/>
     <use xlink:href="#me5b178002f" x="258.184303" y="174.528" style="fill: #9080ff; stroke: #9080ff; stroke-linejoin: miter"/>
     <use xlink:href="#me5b178002f" x="259.815733" y="235.999475" style="fill: #9080ff; stroke: #9080ff; stroke-linejoin: miter"/>
     <use xlink:href="#me5b178002f" x="261.447163" y="235.999475" style="fill: #9080ff; stroke: #9080ff; stroke-linejoin: miter"/>
     <use xlink:href="#me5b178002f" x="263.078593" y="174.528" style="fill: #9080ff; stroke: #9080ff; stroke-linejoin: miter"/>
     <use xlink:href="#me5b178002f" x="264.710023" y="235.999475" style="fill: #9080ff; stroke: #9080ff; stroke-linejoin: miter"/>
     <use xlink:href="#me5b178002f" x="266.341453" y="235.999475" style="fill: #9080ff; stroke: #9080ff; stroke-linejoin: miter"/>
     <use xlink:href="#me5b178002f" x="267.972883" y="174.528" style="fill: #9080ff; stroke: #9080ff; stroke-linejoin: miter"/>
     <use xlink:href="#me5b178002f" x="269.604312" y="174.528" style="fill: #9080ff; stroke: #9080ff; stroke-linejoin: miter"/>
     <use xlink:href="#me5b178002f" x="271.235742" y="235.999475" style="fill: #9080ff; stroke: #9080ff; stroke-linejoin: miter"/>
     <use xlink:href="#me5b178002f" x="272.867172" y="174.528" style="fill: #9080ff; stroke: #9080ff; stroke-linejoin: miter"/>
     <use xlink:href="#me5b178002f" x="274.498602" y="174.528" style="fill: #9080ff; stroke: #9080ff; stroke-linejoin: miter"/>
     <use xlink:href="#me5b178002f" x="276.130032" y="235.999475" style="fill: #9080ff; stroke: #9080ff; stroke-linejoin: miter"/>
     <use xlink:href="#me5b178002f" x="277.761462" y="174.528" style="fill: #9080ff; stroke: #9080ff; stroke-linejoin: miter"/>
     <use xlink:href="#me5b178002f" x="279.392892" y="174.528" style="fill: #9080ff; stroke: #9080ff; stroke-linejoin: miter"/>
     <use xlink:href="#me5b178002f" x="281.024322" y="235.999475" style="fill: #9080ff; stroke: #9080ff; stroke-linejoin: miter"/>
     <use xlink:href="#me5b178002f" x="282.655751" y="235.999475" style="fill: #9080ff; stroke: #9080ff; stroke-linejoin: miter"/>
     <use xlink:href="#me5b178002f" x="284.287181" y="235.999475" style="fill: #9080ff; stroke: #9080ff; stroke-linejoin: miter"/>
     <use xlink:href="#me5b178002f" x="285.918611" y="235.999475" style="fill: #9080ff; stroke: #9080ff; stroke-linejoin: miter"/>
     <use xlink:href="#me5b178002f" x="287.550041" y="235.999475" style="fill: #9080ff; stroke: #9080ff; stroke-linejoin: miter"/>
     <use xlink:href="#me5b178002f" x="289.181471" y="295.488" style="fill: #9080ff; stroke: #9080ff; stroke-linejoin: miter"/>
     <use xlink:href="#me5b178002f" x="290.812901" y="235.999475" style="fill: #9080ff; stroke: #9080ff; stroke-linejoin: miter"/>
     <use xlink:href="#me5b178002f" x="292.444331" y="235.999475" style="fill: #9080ff; stroke: #9080ff; stroke-linejoin: miter"/>
     <use xlink:href="#me5b178002f" x="294.075761" y="235.999475" style="fill: #9080ff; stroke: #9080ff; stroke-linejoin: miter"/>
     <use xlink:href="#me5b178002f" x="295.70719" y="235.999475" style="fill: #9080ff; stroke: #9080ff; stroke-linejoin: miter"/>
     <use xlink:href="#me5b178002f" x="297.33862" y="235.999475" style="fill: #9080ff; stroke: #9080ff; stroke-linejoin: miter"/>
     <use xlink:href="#me5b178002f" x="298.97005" y="235.999475" style="fill: #9080ff; stroke: #9080ff; stroke-linejoin: miter"/>
     <use xlink:href="#me5b178002f" x="300.60148" y="235.999475" style="fill: #9080ff; stroke: #9080ff; stroke-linejoin: miter"/>
     <use xlink:href="#me5b178002f" x="302.23291" y="235.999475" style="fill: #9080ff; stroke: #9080ff; stroke-linejoin: miter"/>
     <use xlink:href="#me5b178002f" x="303.86434" y="235.999475" style="fill: #9080ff; stroke: #9080ff; stroke-linejoin: miter"/>
     <use xlink:href="#me5b178002f" x="305.49577" y="295.488" style="fill: #9080ff; stroke: #9080ff; stroke-linejoin: miter"/>
     <use xlink:href="#me5b178002f" x="307.1272" y="235.999475" style="fill: #9080ff; stroke: #9080ff; stroke-linejoin: miter"/>
     <use xlink:href="#me5b178002f" x="308.75863" y="235.999475" style="fill: #9080ff; stroke: #9080ff; stroke-linejoin: miter"/>
     <use xlink:href="#me5b178002f" x="310.390059" y="295.488" style="fill: #9080ff; stroke: #9080ff; stroke-linejoin: miter"/>
     <use xlink:href="#me5b178002f" x="312.021489" y="235.999475" style="fill: #9080ff; stroke: #9080ff; stroke-linejoin: miter"/>
     <use xlink:href="#me5b178002f" x="313.652919" y="235.999475" style="fill: #9080ff; stroke: #9080ff; stroke-linejoin: miter"/>
     <use xlink:href="#me5b178002f" x="315.284349" y="235.999475" style="fill: #9080ff; stroke: #9080ff; stroke-linejoin: miter"/>
     <use xlink:href="#me5b178002f" x="316.915779" y="174.528" style="fill: #9080ff; stroke: #9080ff; stroke-linejoin: miter"/>
     <use xlink:href="#me5b178002f" x="318.547209" y="235.999475" style="fill: #9080ff; stroke: #9080ff; stroke-linejoin: miter"/>
     <use xlink:href="#me5b178002f" x="320.178639" y="235.999475" style="fill: #9080ff; stroke: #9080ff; stroke-linejoin: miter"/>
     <use xlink:href="#me5b178002f" x="321.810069" y="174.528" style="fill: #9080ff; stroke: #9080ff; stroke-linejoin: miter"/>
     <use xlink:href="#me5b178002f" x="323.441498" y="235.999475" style="fill: #9080ff; stroke: #9080ff; stroke-linejoin: miter"/>
     <use xlink:href="#me5b178002f" x="325.072928" y="235.999475" style="fill: #9080ff; stroke: #9080ff; stroke-linejoin: miter"/>
     <use xlink:href="#me5b178002f" x="326.704358" y="174.528" style="fill: #9080ff; stroke: #9080ff; stroke-linejoin: miter"/>
     <use xlink:href="#me5b178002f" x="328.335788" y="235.999475" style="fill: #9080ff; stroke: #9080ff; stroke-linejoin: miter"/>
     <use xlink:href="#me5b178002f" x="329.967218" y="174.528" style="fill: #9080ff; stroke: #9080ff; stroke-linejoin: miter"/>
     <use xlink:href="#me5b178002f" x="331.598648" y="174.528" style="fill: #9080ff; stroke: #9080ff; stroke-linejoin: miter"/>
     <use xlink:href="#me5b178002f" x="333.230078" y="174.528" style="fill: #9080ff; stroke: #9080ff; stroke-linejoin: miter"/>
     <use xlink:href="#me5b178002f" x="334.861508" y="174.528" style="fill: #9080ff; stroke: #9080ff; stroke-linejoin: miter"/>
     <use xlink:href="#me5b178002f" x="336.492937" y="174.528" style="fill: #9080ff; stroke: #9080ff; stroke-linejoin: miter"/>
     <use xlink:href="#me5b178002f" x="338.124367" y="174.528" style="fill: #9080ff; stroke: #9080ff; stroke-linejoin: miter"/>
     <use xlink:href="#me5b178002f" x="339.755797" y="174.528" style="fill: #9080ff; stroke: #9080ff; stroke-linejoin: miter"/>
     <use xlink:href="#me5b178002f" x="341.387227" y="174.528" style="fill: #9080ff; stroke: #9080ff; stroke-linejoin: miter"/>
     <use xlink:href="#me5b178002f" x="343.018657" y="174.528" style="fill: #9080ff; stroke: #9080ff; stroke-linejoin: miter"/>
     <use xlink:href="#me5b178002f" x="344.650087" y="174.528" style="fill: #9080ff; stroke: #9080ff; stroke-linejoin: miter"/>
     <use xlink:href="#me5b178002f" x="346.281517" y="174.528" style="fill: #9080ff; stroke: #9080ff; stroke-linejoin: miter"/>
     <use xlink:href="#me5b178002f" x="347.912947" y="174.528" style="fill: #9080ff; stroke: #9080ff; stroke-linejoin: miter"/>
     <use xlink:href="#me5b178002f" x="349.544376" y="115.039475" style="fill: #9080ff; stroke: #9080ff; stroke-linejoin: miter"/>
     <use xlink:href="#me5b178002f" x="351.175806" y="53.568" style="fill: #9080ff; stroke: #9080ff; stroke-linejoin: miter"/>
     <use xlink:href="#me5b178002f" x="352.807236" y="53.568" style="fill: #9080ff; stroke: #9080ff; stroke-linejoin: miter"/>
     <use xlink:href="#me5b178002f" x="354.438666" y="115.039475" style="fill: #9080ff; stroke: #9080ff; stroke-linejoin: miter"/>
     <use xlink:href="#me5b178002f" x="356.070096" y="53.568" style="fill: #9080ff; stroke: #9080ff; stroke-linejoin: miter"/>
     <use xlink:href="#me5b178002f" x="357.701526" y="115.039475" style="fill: #9080ff; stroke: #9080ff; stroke-linejoin: miter"/>
     <use xlink:href="#me5b178002f" x="359.332956" y="115.039475" style="fill: #9080ff; stroke: #9080ff; stroke-linejoin: miter"/>
     <use xlink:href="#me5b178002f" x="360.964386" y="115.039475" style="fill: #9080ff; stroke: #9080ff; stroke-linejoin: miter"/>
     <use xlink:href="#me5b178002f" x="362.595815" y="115.039475" style="fill: #9080ff; stroke: #9080ff; stroke-linejoin: miter"/>
     <use xlink:href="#me5b178002f" x="364.227245" y="115.039475" style="fill: #9080ff; stroke: #9080ff; stroke-linejoin: miter"/>
     <use xlink:href="#me5b178002f" x="365.858675" y="115.039475" style="fill: #9080ff; stroke: #9080ff; stroke-linejoin: miter"/>
     <use xlink:href="#me5b178002f" x="367.490105" y="115.039475" style="fill: #9080ff; stroke: #9080ff; stroke-linejoin: miter"/>
     <use xlink:href="#me5b178002f" x="369.121535" y="174.528" style="fill: #9080ff; stroke: #9080ff; stroke-linejoin: miter"/>
     <use xlink:href="#me5b178002f" x="370.752965" y="115.039475" style="fill: #9080ff; stroke: #9080ff; stroke-linejoin: miter"/>
     <use xlink:href="#me5b178002f" x="372.384395" y="115.039475" style="fill: #9080ff; stroke: #9080ff; stroke-linejoin: miter"/>
     <use xlink:href="#me5b178002f" x="374.015825" y="115.039475" style="fill: #9080ff; stroke: #9080ff; stroke-linejoin: miter"/>
     <use xlink:href="#me5b178002f" x="375.647254" y="115.039475" style="fill: #9080ff; stroke: #9080ff; stroke-linejoin: miter"/>
     <use xlink:href="#me5b178002f" x="377.278684" y="115.039475" style="fill: #9080ff; stroke: #9080ff; stroke-linejoin: miter"/>
     <use xlink:href="#me5b178002f" x="378.910114" y="115.039475" style="fill: #9080ff; stroke: #9080ff; stroke-linejoin: miter"/>
     <use xlink:href="#me5b178002f" x="380.541544" y="115.039475" style="fill: #9080ff; stroke: #9080ff; stroke-linejoin: miter"/>
     <use xlink:href="#me5b178002f" x="382.172974" y="174.528" style="fill: #9080ff; stroke: #9080ff; stroke-linejoin: miter"/>
     <use xlink:href="#me5b178002f" x="383.804404" y="174.528" style="fill: #9080ff; stroke: #9080ff; stroke-linejoin: miter"/>
     <use xlink:href="#me5b178002f" x="385.435834" y="115.039475" style="fill: #9080ff; stroke: #9080ff; stroke-linejoin: miter"/>
     <use xlink:href="#me5b178002f" x="387.067264" y="174.528" style="fill: #9080ff; stroke: #9080ff; stroke-linejoin: miter"/>
     <use xlink:href="#me5b178002f" x="388.698693" y="174.528" style="fill: #9080ff; stroke: #9080ff; stroke-linejoin: miter"/>
     <use xlink:href="#me5b178002f" x="390.330123" y="115.039475" style="fill: #9080ff; stroke: #9080ff; stroke-linejoin: miter"/>
     <use xlink:href="#me5b178002f" x="391.961553" y="174.528" style="fill: #9080ff; stroke: #9080ff; stroke-linejoin: miter"/>
     <use xlink:href="#me5b178002f" x="393.592983" y="174.528" style="fill: #9080ff; stroke: #9080ff; stroke-linejoin: miter"/>
     <use xlink:href="#me5b178002f" x="395.224413" y="115.039475" style="fill: #9080ff; stroke: #9080ff; stroke-linejoin: miter"/>
     <use xlink:href="#me5b178002f" x="396.855843" y="115.039475" style="fill: #9080ff; stroke: #9080ff; stroke-linejoin: miter"/>
     <use xlink:href="#me5b178002f" x="398.487273" y="115.039475" style="fill: #9080ff; stroke: #9080ff; stroke-linejoin: miter"/>
    </g>
   </g>
   <g id="patch_3">
    <path d="M 57.6 307.584 
L 57.6 41.472 
" style="fill: none; stroke: #000000; stroke-width: 0.8; stroke-linejoin: miter; stroke-linecap: square"/>
   </g>
   <g id="patch_4">
    <path d="M 414.72 307.584 
L 414.72 41.472 
" style="fill: none; stroke: #000000; stroke-width: 0.8; stroke-linejoin: miter; stroke-linecap: square"/>
   </g>
   <g id="patch_5">
    <path d="M 57.6 307.584 
L 414.72 307.584 
" style="fill: none; stroke: #000000; stroke-width: 0.8; stroke-linejoin: miter; stroke-linecap: square"/>
   </g>
   <g id="patch_6">
    <path d="M 57.6 41.472 
L 414.72 41.472 
" style="fill: none; stroke: #000000; stroke-width: 0.8; stroke-linejoin: miter; stroke-linecap: square"/>
   </g>
   <g id="legend_1">
    <g id="patch_7">
     <path d="M 70.2 80.960064 
L 293.362369 80.960064 
Q 296.962369 80.960064 296.962369 77.360064 
L 296.962369 54.072 
Q 296.962369 50.472 293.362369 50.472 
L 70.2 50.472 
Q 66.6 50.472 66.6 54.072 
L 66.6 77.360064 
Q 66.6 80.960064 70.2 80.960064 
z
" style="fill: #ffffff; opacity: 0.8; stroke: #cccccc; stroke-linejoin: miter"/>
    </g>
    <g id="line2d_14">
     <path d="M 73.8 63.972 
L 91.8 63.972 
L 109.8 63.972 
" style="fill: none; stroke: #9080ff; stroke-width: 1.5; stroke-linecap: square"/>
     <g>
      <use xlink:href="#me5b178002f" x="91.8" y="63.972" style="fill: #9080ff; stroke: #9080ff; stroke-linejoin: miter"/>
     </g>
    </g>
    <g id="text_16">
     <!-- Analog input, Oct 21st -->
     <g transform="translate(124.2 70.272) scale(0.18 -0.18)">
      <defs>
       <path id="CMR17-2c" d="M 1011 102 
C 1024 44 1024 25 1024 -76 
C 1024 -451 896 -795 627 -1108 
C 595 -1140 595 -1152 595 -1165 
C 595 -1191 621 -1216 646 -1216 
C 685 -1216 1126 -776 1126 -82 
C 1126 128 1101 524 800 524 
C 659 524 538 428 538 262 
C 538 96 659 0 800 0 
C 877 0 960 32 1011 102 
z
" transform="scale(0.015625)"/>
       <path id="CMR17-4f" d="M 4307 2166 
C 4307 3488 3366 4480 2304 4480 
C 1216 4480 294 3475 294 2166 
C 294 857 1229 -128 2298 -128 
C 3392 -128 4307 876 4307 2166 
z
M 2304 -13 
C 1574 -13 781 722 781 2250 
C 781 3771 1651 4364 2298 4364 
C 2976 4364 3821 3752 3821 2250 
C 3821 696 3008 -13 2304 -13 
z
" transform="scale(0.015625)"/>
       <path id="CMR17-63" d="M 2234 2240 
C 2112 2240 1933 2240 1933 2015 
C 1933 1836 2080 1785 2163 1785 
C 2208 1785 2394 1804 2394 2028 
C 2394 2476 1958 2816 1466 2816 
C 787 2816 211 2201 211 1379 
C 211 521 813 -64 1466 -64 
C 2259 -64 2458 676 2458 747 
C 2458 773 2451 792 2406 792 
C 2362 792 2355 786 2330 702 
C 2163 180 1798 51 1523 51 
C 1114 51 621 431 621 1385 
C 621 2358 1094 2700 1472 2700 
C 1722 2700 2093 2582 2234 2240 
z
" transform="scale(0.015625)"/>
      </defs>
      <use xlink:href="#CMR17-41" transform="scale(0.996264)"/>
      <use xlink:href="#CMR17-6e" transform="translate(69.07243 0) scale(0.996264)"/>
      <use xlink:href="#CMR17-61" transform="translate(119.9678 0) scale(0.996264)"/>
      <use xlink:href="#CMR17-6c" transform="translate(165.658277 0) scale(0.996264)"/>
      <use xlink:href="#CMR17-6f" transform="translate(190.529335 0) scale(0.996264)"/>
      <use xlink:href="#CMR17-67" transform="translate(236.219812 0) scale(0.996264)"/>
      <use xlink:href="#CMR17-69" transform="translate(311.986256 0) scale(0.996264)"/>
      <use xlink:href="#CMR17-6e" transform="translate(336.857314 0) scale(0.996264)"/>
      <use xlink:href="#CMR17-70" transform="translate(387.752684 0) scale(0.996264)"/>
      <use xlink:href="#CMR17-75" transform="translate(438.648054 0) scale(0.996264)"/>
      <use xlink:href="#CMR17-74" transform="translate(489.543424 0) scale(0.996264)"/>
      <use xlink:href="#CMR17-2c" transform="translate(524.824191 0) scale(0.996264)"/>
      <use xlink:href="#CMR17-4f" transform="translate(579.771216 0) scale(0.996264)"/>
      <use xlink:href="#CMR17-63" transform="translate(651.486005 0) scale(0.996264)"/>
      <use xlink:href="#CMR17-74" transform="translate(691.971665 0) scale(0.996264)"/>
      <use xlink:href="#CMR17-32" transform="translate(757.328399 0) scale(0.996264)"/>
      <use xlink:href="#CMR17-31" transform="translate(803.018876 0) scale(0.996264)"/>
      <use xlink:href="#CMR17-73" transform="translate(848.709353 0) scale(0.996264)"/>
      <use xlink:href="#CMR17-74" transform="translate(884.510691 0) scale(0.996264)"/>
     </g>
    </g>
   </g>
  </g>
 </g>
 <defs>
  <clipPath id="p79e741835c">
   <rect x="57.6" y="41.472" width="357.12" height="266.112"/>
  </clipPath>
 </defs>
</svg>
